%FSTAX23Y23*%
%MOIN*%
%SFA1B1*%

%IPPOS*%
%ADD22C,0.010000*%
%ADD24C,0.019700*%
%ADD27C,0.003900*%
%ADD62C,0.005900*%
%ADD64C,0.007900*%
%ADD65C,0.009800*%
%ADD66C,0.002000*%
%ADD110C,0.011800*%
%LNuzcar-1*%
%LPD*%
G54D22*
X03338Y02261D02*
Y02364D01*
X03117Y02261D02*
X03338D01*
X03117D02*
Y02364D01*
X03338*
Y02386D02*
Y02488D01*
X03117Y02386D02*
X03338D01*
X03117D02*
Y02488D01*
X03338*
X02725Y02597D02*
Y02699D01*
X02945*
Y02597D02*
Y02699D01*
X02725Y02597D02*
X02945D01*
X03671Y02386D02*
Y02488D01*
X0345Y02386D02*
X03671D01*
X0345D02*
Y02488D01*
X03671*
X03669Y02261D02*
Y02364D01*
X03448Y02261D02*
X03669D01*
X03448D02*
Y02364D01*
X03669*
X04458Y02496D02*
X04561D01*
X04458D02*
Y02717D01*
X04561*
Y02496D02*
Y02717D01*
X04358Y02966D02*
X0446D01*
X04358D02*
Y03187D01*
X0446*
Y02966D02*
Y03187D01*
X02301Y02234D02*
Y03411D01*
X02304Y02232D02*
X05847D01*
X02301Y03411D02*
X05846D01*
Y02234D02*
Y03411D01*
G54D24*
X03235Y03347D02*
D01*
X03235Y03348*
X03235Y03349*
X03234Y0335*
X03234Y03351*
X03234Y03352*
X03234Y03353*
X03233Y03354*
X03233Y03355*
X03232Y03355*
X03232Y03356*
X03231Y03357*
X0323Y03358*
X03229Y03358*
X03229Y03359*
X03228Y03359*
X03227Y0336*
X03226Y0336*
X03225Y03361*
X03224Y03361*
X03223Y03361*
X03222Y03361*
X03221Y03361*
X0322*
X03219Y03361*
X03218Y03361*
X03217Y03361*
X03216Y03361*
X03215Y0336*
X03215Y0336*
X03214Y03359*
X03213Y03359*
X03212Y03358*
X03211Y03358*
X03211Y03357*
X0321Y03356*
X03209Y03355*
X03209Y03355*
X03208Y03354*
X03208Y03353*
X03207Y03352*
X03207Y03351*
X03207Y0335*
X03207Y03349*
X03207Y03348*
X03207Y03347*
X03207Y03346*
X03207Y03345*
X03207Y03344*
X03207Y03343*
X03207Y03342*
X03208Y03341*
X03208Y03341*
X03209Y0334*
X03209Y03339*
X0321Y03338*
X03211Y03337*
X03211Y03337*
X03212Y03336*
X03213Y03336*
X03214Y03335*
X03215Y03335*
X03215Y03334*
X03216Y03334*
X03217Y03334*
X03218Y03333*
X03219Y03333*
X0322Y03333*
X03221*
X03222Y03333*
X03223Y03333*
X03224Y03334*
X03225Y03334*
X03226Y03334*
X03227Y03335*
X03228Y03335*
X03229Y03336*
X03229Y03336*
X0323Y03337*
X03231Y03337*
X03232Y03338*
X03232Y03339*
X03233Y0334*
X03233Y03341*
X03234Y03341*
X03234Y03342*
X03234Y03343*
X03234Y03344*
X03235Y03345*
X03235Y03346*
X03235Y03347*
G54D27*
X05156Y0283D02*
D01*
X05156Y02831*
X05156Y02832*
X05156Y02834*
X05156Y02835*
X05155Y02836*
X05155Y02838*
X05154Y02839*
X05153Y0284*
X05153Y02841*
X05152Y02842*
X05151Y02843*
X0515Y02844*
X05149Y02845*
X05148Y02846*
X05147Y02847*
X05145Y02847*
X05144Y02848*
X05143Y02848*
X05141Y02849*
X0514Y02849*
X05139Y02849*
X05137Y02849*
X05136*
X05135Y02849*
X05133Y02849*
X05132Y02849*
X05131Y02848*
X05129Y02848*
X05128Y02847*
X05127Y02847*
X05126Y02846*
X05125Y02845*
X05124Y02844*
X05123Y02843*
X05122Y02842*
X05121Y02841*
X0512Y0284*
X05119Y02839*
X05119Y02838*
X05118Y02836*
X05118Y02835*
X05117Y02834*
X05117Y02832*
X05117Y02831*
X05117Y0283*
X05117Y02828*
X05117Y02827*
X05117Y02825*
X05118Y02824*
X05118Y02823*
X05119Y02821*
X05119Y0282*
X0512Y02819*
X05121Y02818*
X05122Y02817*
X05123Y02816*
X05124Y02815*
X05125Y02814*
X05126Y02813*
X05127Y02812*
X05128Y02812*
X05129Y02811*
X05131Y02811*
X05132Y0281*
X05133Y0281*
X05135Y0281*
X05136Y0281*
X05137*
X05139Y0281*
X0514Y0281*
X05141Y0281*
X05143Y02811*
X05144Y02811*
X05145Y02812*
X05147Y02812*
X05148Y02813*
X05149Y02814*
X0515Y02815*
X05151Y02816*
X05152Y02817*
X05153Y02818*
X05153Y02819*
X05154Y0282*
X05155Y02821*
X05155Y02823*
X05156Y02824*
X05156Y02825*
X05156Y02827*
X05156Y02828*
X05156Y0283*
X05391Y03126D02*
X05447D01*
Y03006D02*
Y03126D01*
X05391Y03006D02*
X05447D01*
X05391D02*
Y03126D01*
X0503D02*
X05086D01*
Y03006D02*
Y03126D01*
X0503Y03006D02*
X05086D01*
X0503D02*
Y03126D01*
X05383Y02584D02*
Y02867D01*
X05099Y02584D02*
Y02867D01*
X05383*
X05099Y02584D02*
X05383D01*
X02944Y02758D02*
Y02896D01*
X02731D02*
X02944D01*
X02731Y02758D02*
Y02896D01*
Y02758D02*
X02944D01*
X0346Y02636D02*
X03476D01*
X03468Y02629D02*
Y02644D01*
X03155Y02704D02*
Y02719D01*
X03148Y02712D02*
X03163D01*
G54D62*
X0348Y02843D02*
Y0293D01*
X03389Y02918D02*
Y0293D01*
X03571*
Y02918D02*
Y0293D01*
Y02843D02*
Y02855D01*
X03389Y02843D02*
X03571D01*
X03389D02*
Y02855D01*
X0418Y02994D02*
Y03081D01*
X04271Y02994D02*
Y03006D01*
X0409Y02994D02*
X04271D01*
X0409D02*
Y03006D01*
Y03069D02*
Y03081D01*
X04271*
Y03069D02*
Y03081D01*
X04184Y03138D02*
Y03224D01*
X04275Y03138D02*
Y0315D01*
X04094Y03138D02*
X04275D01*
X04094D02*
Y0315D01*
Y03213D02*
Y03224D01*
X04275*
Y03213D02*
Y03224D01*
X04182Y03279D02*
Y03366D01*
X04273Y03279D02*
Y03291D01*
X04092Y03279D02*
X04273D01*
X04092D02*
Y03291D01*
Y03354D02*
Y03366D01*
X04273*
Y03354D02*
Y03366D01*
X05057Y03157D02*
X05061Y03161D01*
X05069*
X05073Y03157*
Y03141*
X05069Y03137*
X05061*
X05057Y03141*
X05049Y03137D02*
X05041D01*
X05045*
Y03161*
X05049Y03157*
X05408Y02478D02*
X05412Y02482D01*
X0542*
X05424Y02478*
Y02463*
X0542Y02459*
X05412*
X05408Y02463*
X05385Y02459D02*
X05401D01*
X05385Y02475*
Y02478*
X05389Y02482*
X05397*
X05401Y02478*
X05583Y02575D02*
X05587Y02579D01*
X05595*
X05599Y02575*
Y02559*
X05595Y02556*
X05587*
X05583Y02559*
X05576Y02575D02*
X05572Y02579D01*
X05564*
X0556Y02575*
Y02571*
X05564Y02567*
X05568*
X05564*
X0556Y02563*
Y02559*
X05564Y02556*
X05572*
X05576Y02559*
X05633Y03016D02*
X05637Y0302D01*
X05644*
X05648Y03016*
Y03*
X05644Y02996*
X05637*
X05633Y03*
X05613Y02996D02*
Y0302D01*
X05625Y03008*
X05609*
X05422Y03151D02*
X05426Y03155D01*
X05434*
X05438Y03151*
Y03136*
X05434Y03132*
X05426*
X05422Y03136*
X05398Y03155D02*
X05414D01*
Y03143*
X05406Y03147*
X05402*
X05398Y03143*
Y03136*
X05402Y03132*
X0541*
X05414Y03136*
X05754Y02822D02*
X05758Y02826D01*
X05766*
X0577Y02822*
Y02806*
X05766Y02802*
X05758*
X05754Y02806*
X05731Y02826D02*
X05739Y02822D01*
X05747Y02814*
Y02806*
X05743Y02802*
X05735*
X05731Y02806*
Y0281*
X05735Y02814*
X05747*
X04416Y03226D02*
X0442Y0323D01*
X04427*
X04431Y03226*
Y0321*
X04427Y03206*
X0442*
X04416Y0321*
X04408Y0323D02*
X04392D01*
Y03226*
X04408Y0321*
Y03206*
X04003Y02765D02*
X04007Y02769D01*
X04015*
X04019Y02765*
Y02749*
X04015Y02745*
X04007*
X04003Y02749*
X03995Y02765D02*
X03991Y02769D01*
X03983*
X03979Y02765*
Y02761*
X03983Y02757*
X03979Y02753*
Y02749*
X03983Y02745*
X03991*
X03995Y02749*
Y02753*
X03991Y02757*
X03995Y02761*
Y02765*
X03991Y02757D02*
X03983D01*
X04971Y02764D02*
X04975Y02768D01*
X04983*
X04987Y02764*
Y02748*
X04983Y02744*
X04975*
X04971Y02748*
X04964D02*
X0496Y02744D01*
X04952*
X04948Y02748*
Y02764*
X04952Y02768*
X0496*
X04964Y02764*
Y0276*
X0496Y02756*
X04948*
X04004Y02859D02*
X04008Y02863D01*
X04016*
X0402Y02859*
Y02843*
X04016Y02839*
X04008*
X04004Y02843*
X03996Y02839D02*
X03989D01*
X03992*
Y02863*
X03996Y02859*
X03977D02*
X03973Y02863D01*
X03965*
X03961Y02859*
Y02843*
X03965Y02839*
X03973*
X03977Y02843*
Y02859*
X0497Y02665D02*
X04974Y02669D01*
X04982*
X04986Y02665*
Y02649*
X04982Y02645*
X04974*
X0497Y02649*
X04962Y02645D02*
X04954D01*
X04958*
Y02669*
X04962Y02665*
X04943Y02645D02*
X04935D01*
X04939*
Y02669*
X04943Y02665*
X04526Y0276D02*
X0453Y02764D01*
X04538*
X04542Y0276*
Y02744*
X04538Y0274*
X0453*
X04526Y02744*
X04518Y0274D02*
X0451D01*
X04514*
Y02764*
X04518Y0276*
X04483Y0274D02*
X04499D01*
X04483Y02756*
Y0276*
X04487Y02764*
X04495*
X04499Y0276*
X04003Y02956D02*
X04007Y0296D01*
X04015*
X04019Y02956*
Y0294*
X04015Y02936*
X04007*
X04003Y0294*
X03995Y02936D02*
X03987D01*
X03991*
Y0296*
X03995Y02956*
X03976D02*
X03972Y0296D01*
X03964*
X0396Y02956*
Y02952*
X03964Y02948*
X03968*
X03964*
X0396Y02944*
Y0294*
X03964Y02936*
X03972*
X03976Y0294*
X04972Y02566D02*
X04976Y0257D01*
X04984*
X04988Y02566*
Y0255*
X04984Y02546*
X04976*
X04972Y0255*
X04964Y02546D02*
X04956D01*
X0496*
Y0257*
X04964Y02566*
X04933Y02546D02*
Y0257D01*
X04944Y02558*
X04929*
X03879Y03017D02*
X03883Y03021D01*
X03891*
X03895Y03017*
Y03001*
X03891Y02997*
X03883*
X03879Y03001*
X03871Y02997D02*
X03863D01*
X03867*
Y03021*
X03871Y03017*
X03836Y03021D02*
X03844Y03017D01*
X03852Y03009*
Y03001*
X03848Y02997*
X0384*
X03836Y03001*
Y03005*
X0384Y03009*
X03852*
X03733Y02364D02*
X03737Y02368D01*
X03745*
X03749Y02364*
Y02348*
X03745Y02344*
X03737*
X03733Y02348*
X03725Y02344D02*
X03717D01*
X03721*
Y02368*
X03725Y02364*
X03706Y02368D02*
X0369D01*
Y02364*
X03706Y02348*
Y02344*
X03734Y02486D02*
X03738Y0249D01*
X03746*
X0375Y02486*
Y0247*
X03746Y02466*
X03738*
X03734Y0247*
X03726Y02466D02*
X03718D01*
X03722*
Y0249*
X03726Y02486*
X03706D02*
X03702Y0249D01*
X03695*
X03691Y02486*
Y02482*
X03695Y02478*
X03691Y02474*
Y0247*
X03695Y02466*
X03702*
X03706Y0247*
Y02474*
X03702Y02478*
X03706Y02482*
Y02486*
X03702Y02478D02*
X03695D01*
X03874Y02936D02*
X03878Y0294D01*
X03886*
X0389Y02936*
Y0292*
X03886Y02916*
X03878*
X03874Y0292*
X03866Y02916D02*
X03858D01*
X03862*
Y0294*
X03866Y02936*
X03847Y0292D02*
X03843Y02916D01*
X03835*
X03831Y0292*
Y02936*
X03835Y0294*
X03843*
X03847Y02936*
Y02932*
X03843Y02928*
X03831*
X03013Y02699D02*
X03017Y02703D01*
X03025*
X03029Y02699*
Y02683*
X03025Y02679*
X03017*
X03013Y02683*
X0299Y02679D02*
X03005D01*
X0299Y02695*
Y02699*
X02994Y02703*
X03001*
X03005Y02699*
X02982D02*
X02978Y02703D01*
X0297*
X02966Y02699*
Y02695*
X0297Y02691*
X02974*
X0297*
X02966Y02687*
Y02683*
X0297Y02679*
X02978*
X02982Y02683*
X03399Y02488D02*
X03403Y02492D01*
X03411*
X03415Y02488*
Y02473*
X03411Y02469*
X03403*
X03399Y02473*
X03376Y02469D02*
X03391D01*
X03376Y02484*
Y02488*
X0338Y02492*
X03387*
X03391Y02488*
X03356Y02469D02*
Y02492D01*
X03368Y0248*
X03352*
X03401Y02361D02*
X03405Y02365D01*
X03413*
X03417Y02361*
Y02345*
X03413Y02341*
X03405*
X03401Y02345*
X03378Y02341D02*
X03393D01*
X03378Y02357*
Y02361*
X03382Y02365*
X03389*
X03393Y02361*
X03354Y02365D02*
X0337D01*
Y02353*
X03362Y02357*
X03358*
X03354Y02353*
Y02345*
X03358Y02341*
X03366*
X0337Y02345*
X04106Y0268D02*
Y02656D01*
X04095*
X04091Y0266*
Y02676*
X04095Y0268*
X04106*
X04083Y02676D02*
X04079Y0268D01*
X04071*
X04067Y02676*
Y02672*
X04071Y02668*
X04075*
X04071*
X04067Y02664*
Y0266*
X04071Y02656*
X04079*
X04083Y0266*
X04105Y02546D02*
Y02522D01*
X04093*
X04089Y02526*
Y02542*
X04093Y02546*
X04105*
X0407Y02522D02*
Y02546D01*
X04081Y02534*
X04066*
X04106Y02408D02*
Y02384D01*
X04094*
X0409Y02388*
Y02404*
X04094Y02408*
X04106*
X04067D02*
X04083D01*
Y02396*
X04075Y024*
X04071*
X04067Y02396*
Y02388*
X04071Y02384*
X04079*
X04083Y02388*
X03221Y02902D02*
Y02878D01*
X03209*
X03205Y02882*
Y02898*
X03209Y02902*
X03221*
X03182D02*
X03189Y02898D01*
X03197Y0289*
Y02882*
X03193Y02878*
X03186*
X03182Y02882*
Y02886*
X03186Y0289*
X03197*
X0369Y027D02*
Y02676D01*
X03678*
X03674Y0268*
Y02696*
X03678Y027*
X0369*
X03666D02*
X03651D01*
Y02696*
X03666Y0268*
Y02676*
X02983Y02889D02*
X02998D01*
Y02877*
X02991*
X02998*
Y02865*
X02975D02*
X02967D01*
X02971*
Y02889*
X02975Y02885*
X05649Y03129D02*
Y03105D01*
X05633*
X05625D02*
X05617D01*
X05621*
Y03129*
X05625Y03125*
X04381Y02613D02*
Y0259D01*
X04365*
X04342D02*
X04357D01*
X04342Y02605*
Y02609*
X04346Y02613*
X04353*
X04357Y02609*
X04382Y0252D02*
Y02496D01*
X04366*
X04358Y02516D02*
X04354Y0252D01*
X04347*
X04343Y02516*
Y02512*
X04347Y02508*
X04351*
X04347*
X04343Y02504*
Y025*
X04347Y02496*
X04354*
X04358Y025*
X0438Y02424D02*
Y02401D01*
X04365*
X04345D02*
Y02424D01*
X04357Y02412*
X04341*
X03052Y02551D02*
Y02527D01*
X03036*
X03013Y02551D02*
X03028D01*
Y02539*
X0302Y02543*
X03017*
X03013Y02539*
Y02531*
X03017Y02527*
X03024*
X03028Y02531*
X02703Y03383D02*
Y03359D01*
X02687*
X02664Y03383D02*
X02671Y03379D01*
X02679Y03371*
Y03363*
X02675Y03359*
X02668*
X02664Y03363*
Y03367*
X02668Y03371*
X02679*
X02691Y0255D02*
Y02526D01*
X02675*
X02667Y0255D02*
X02652D01*
Y02546*
X02667Y0253*
Y02526*
X05768Y02904D02*
Y02928D01*
X05756*
X05752Y02924*
Y02916*
X05756Y02912*
X05768*
X0576D02*
X05752Y02904D01*
X05745D02*
X05737D01*
X05741*
Y02928*
X05745Y02924*
X05008Y03008D02*
Y03032D01*
X04996*
X04992Y03028*
Y0302*
X04996Y03016*
X05008*
X05D02*
X04992Y03008D01*
X04969D02*
X04984D01*
X04969Y03024*
Y03028*
X04973Y03032*
X0498*
X04984Y03028*
X04938Y03009D02*
Y03032D01*
X04926*
X04922Y03028*
Y03021*
X04926Y03017*
X04938*
X0493D02*
X04922Y03009D01*
X04914Y03028D02*
X0491Y03032D01*
X04903*
X04899Y03028*
Y03025*
X04903Y03021*
X04906*
X04903*
X04899Y03017*
Y03013*
X04903Y03009*
X0491*
X04914Y03013*
X03569Y02948D02*
Y02972D01*
X03557*
X03553Y02968*
Y0296*
X03557Y02956*
X03569*
X03561D02*
X03553Y02948D01*
X03545Y02972D02*
X0353D01*
Y02968*
X03545Y02952*
Y02948*
X04245Y02591D02*
Y02615D01*
X04233*
X0423Y02611*
Y02603*
X04233Y02599*
X04245*
X04237D02*
X0423Y02591D01*
X04222D02*
X04214D01*
X04218*
Y02615*
X04222Y02611*
X04202D02*
X04198Y02615D01*
X0419*
X04186Y02611*
Y02595*
X0419Y02591*
X04198*
X04202Y02595*
Y02611*
X04244Y02496D02*
Y02519D01*
X04232*
X04229Y02516*
Y02508*
X04232Y02504*
X04244*
X04236D02*
X04229Y02496D01*
X04221D02*
X04213D01*
X04217*
Y02519*
X04221Y02516*
X04201Y02496D02*
X04193D01*
X04197*
Y02519*
X04201Y02516*
X04268Y03095D02*
Y03119D01*
X04256*
X04252Y03115*
Y03107*
X04256Y03103*
X04268*
X0426D02*
X04252Y03095D01*
X04245D02*
X04237D01*
X04241*
Y03119*
X04245Y03115*
X04209Y03095D02*
X04225D01*
X04209Y03111*
Y03115*
X04213Y03119*
X04221*
X04225Y03115*
X04273Y03238D02*
Y03262D01*
X04261*
X04257Y03258*
Y0325*
X04261Y03246*
X04273*
X04265D02*
X04257Y03238D01*
X0425D02*
X04242D01*
X04246*
Y03262*
X0425Y03258*
X0423D02*
X04226Y03262D01*
X04218*
X04214Y03258*
Y03254*
X04218Y0325*
X04222*
X04218*
X04214Y03246*
Y03242*
X04218Y03238*
X04226*
X0423Y03242*
X04244Y02401D02*
Y02424D01*
X04232*
X04228Y0242*
Y02412*
X04232Y02408*
X04244*
X04236D02*
X04228Y02401D01*
X0422D02*
X04212D01*
X04216*
Y02424*
X0422Y0242*
X04185Y02424D02*
X042D01*
Y02412*
X04192Y02416*
X04188*
X04185Y02412*
Y02405*
X04188Y02401*
X04196*
X042Y02405*
X04351Y03343D02*
Y03367D01*
X04339*
X04335Y03363*
Y03355*
X04339Y03351*
X04351*
X04343D02*
X04335Y03343D01*
X04328D02*
X0432D01*
X04324*
Y03367*
X04328Y03363*
X04292Y03367D02*
X043Y03363D01*
X04308Y03355*
Y03347*
X04304Y03343*
X04296*
X04292Y03347*
Y03351*
X04296Y03355*
X04308*
X05186Y02954D02*
X0519Y02958D01*
X05198*
X05202Y02954*
Y0295*
X05198Y02946*
X0519*
X05186Y02942*
Y02938*
X0519Y02934*
X05198*
X05202Y02938*
X05178Y02958D02*
Y02934D01*
X05166*
X05162Y02938*
Y02942*
X05166Y02946*
X05178*
X05166*
X05162Y0295*
Y02954*
X05166Y02958*
X05178*
X05154Y02934D02*
X05147D01*
X05151*
Y02958*
X05154Y02954*
X05326Y02955D02*
X0533Y02959D01*
X05338*
X05342Y02955*
Y02951*
X05338Y02947*
X0533*
X05326Y02943*
Y02939*
X0533Y02935*
X05338*
X05342Y02939*
X05318Y02959D02*
Y02935D01*
X05307*
X05303Y02939*
Y02943*
X05307Y02947*
X05318*
X05307*
X05303Y02951*
Y02955*
X05307Y02959*
X05318*
X05279Y02935D02*
X05295D01*
X05279Y02951*
Y02955*
X05283Y02959*
X05291*
X05295Y02955*
X05597Y02772D02*
X05601Y02776D01*
X05609*
X05613Y02772*
Y02768*
X05609Y02765*
X05601*
X05597Y02761*
Y02757*
X05601Y02753*
X05609*
X05613Y02757*
X05589Y02776D02*
Y02753D01*
X05578*
X05574Y02757*
Y02761*
X05578Y02765*
X05589*
X05578*
X05574Y02768*
Y02772*
X05578Y02776*
X05589*
X05566Y02772D02*
X05562Y02776D01*
X05554*
X0555Y02772*
Y02768*
X05554Y02765*
X05558*
X05554*
X0555Y02761*
Y02757*
X05554Y02753*
X05562*
X05566Y02757*
X04968Y03154D02*
X04972Y03158D01*
X0498*
X04983Y03154*
Y03151*
X0498Y03147*
X04972*
X04968Y03143*
Y03139*
X04972Y03135*
X0498*
X04983Y03139*
X0496Y03158D02*
Y03135D01*
X04948*
X04944Y03139*
Y03143*
X04948Y03147*
X0496*
X04948*
X04944Y03151*
Y03154*
X04948Y03158*
X0496*
X04924Y03135D02*
Y03158D01*
X04936Y03147*
X04921*
X05723Y03106D02*
X05727Y0311D01*
X05735*
X05739Y03106*
Y03102*
X05735Y03098*
X05727*
X05723Y03094*
Y0309*
X05727Y03086*
X05735*
X05739Y0309*
X05715Y0311D02*
Y03086D01*
X05704*
X057Y0309*
Y03094*
X05704Y03098*
X05715*
X05704*
X057Y03102*
Y03106*
X05704Y0311*
X05715*
X05676D02*
X05692D01*
Y03098*
X05684Y03102*
X0568*
X05676Y03098*
Y0309*
X0568Y03086*
X05688*
X05692Y0309*
X04855Y03032D02*
X04859Y03036D01*
X04867*
X04871Y03032*
Y03028*
X04867Y03024*
X04859*
X04855Y0302*
Y03016*
X04859Y03012*
X04867*
X04871Y03016*
X04847Y03036D02*
Y03012D01*
X04836*
X04832Y03016*
Y0302*
X04836Y03024*
X04847*
X04836*
X04832Y03028*
Y03032*
X04836Y03036*
X04847*
X04808D02*
X04816Y03032D01*
X04824Y03024*
Y03016*
X0482Y03012*
X04812*
X04808Y03016*
Y0302*
X04812Y03024*
X04824*
X05449Y02916D02*
Y02897D01*
X05445Y02893*
X05437*
X05433Y02897*
Y02916*
X05425Y02893D02*
X05418D01*
X05422*
Y02916*
X05425Y02912*
X04764Y03201D02*
Y03181D01*
X0476Y03177*
X04752*
X04748Y03181*
Y03201*
X0474Y03197D02*
X04736Y03201D01*
X04729*
X04725Y03197*
Y03193*
X04729Y03189*
X04732*
X04729*
X04725Y03185*
Y03181*
X04729Y03177*
X04736*
X0474Y03181*
X04856Y02735D02*
Y02715D01*
X04852Y02711*
X04844*
X0484Y02715*
Y02735*
X04821Y02711D02*
Y02735D01*
X04832Y02723*
X04817*
X03847Y03361D02*
Y03341D01*
X03843Y03337*
X03835*
X03831Y03341*
Y03361*
X03808D02*
X03823D01*
Y03349*
X03815Y03353*
X03812*
X03808Y03349*
Y03341*
X03812Y03337*
X03819*
X03823Y03341*
X03317Y0336D02*
Y0334D01*
X03313Y03336*
X03305*
X03301Y0334*
Y0336*
X03278D02*
X03285Y03356D01*
X03293Y03348*
Y0334*
X03289Y03336*
X03282*
X03278Y0334*
Y03344*
X03282Y03348*
X03293*
X05406Y03206D02*
Y03202D01*
X05398Y03194*
X0539Y03202*
Y03206*
X05398Y03194D02*
Y03182D01*
X05382D02*
X05374D01*
X05378*
Y03206*
X05382Y03202*
G54D64*
X02516Y02392D02*
D01*
X02516Y02393*
X02516Y02394*
X02516Y02394*
X02516Y02395*
X02516Y02396*
X02516Y02396*
X02515Y02397*
X02515Y02398*
X02514Y02398*
X02514Y02399*
X02514Y02399*
X02513Y024*
X02513Y024*
X02512Y02401*
X02511Y02401*
X02511Y02401*
X0251Y02402*
X02509Y02402*
X02509Y02402*
X02508Y02402*
X02507Y02402*
X02507Y02402*
X02506*
X02505Y02402*
X02505Y02402*
X02504Y02402*
X02503Y02402*
X02503Y02402*
X02502Y02401*
X02501Y02401*
X02501Y02401*
X025Y024*
X025Y024*
X02499Y02399*
X02499Y02399*
X02498Y02398*
X02498Y02398*
X02498Y02397*
X02497Y02396*
X02497Y02396*
X02497Y02395*
X02497Y02394*
X02496Y02394*
X02496Y02393*
X02496Y02392*
X02536D02*
D01*
X02536Y02393*
X02536Y02394*
X02536Y02394*
X02536Y02395*
X02536Y02396*
X02536Y02396*
X02535Y02397*
X02535Y02398*
X02534Y02398*
X02534Y02399*
X02534Y02399*
X02533Y024*
X02533Y024*
X02532Y02401*
X02531Y02401*
X02531Y02401*
X0253Y02402*
X02529Y02402*
X02529Y02402*
X02528Y02402*
X02527Y02402*
X02527Y02402*
X02526*
X02525Y02402*
X02525Y02402*
X02524Y02402*
X02523Y02402*
X02523Y02402*
X02522Y02401*
X02521Y02401*
X02521Y02401*
X0252Y024*
X0252Y024*
X02519Y02399*
X02519Y02399*
X02518Y02398*
X02518Y02398*
X02518Y02397*
X02517Y02396*
X02517Y02396*
X02517Y02395*
X02517Y02394*
X02516Y02394*
X02516Y02393*
X02516Y02392*
X02556D02*
D01*
X02556Y02393*
X02556Y02394*
X02556Y02394*
X02556Y02395*
X02556Y02396*
X02556Y02396*
X02555Y02397*
X02555Y02398*
X02554Y02398*
X02554Y02399*
X02554Y02399*
X02553Y024*
X02553Y024*
X02552Y02401*
X02551Y02401*
X02551Y02401*
X0255Y02402*
X02549Y02402*
X02549Y02402*
X02548Y02402*
X02547Y02402*
X02547Y02402*
X02546*
X02545Y02402*
X02545Y02402*
X02544Y02402*
X02543Y02402*
X02543Y02402*
X02542Y02401*
X02541Y02401*
X02541Y02401*
X0254Y024*
X0254Y024*
X02539Y02399*
X02539Y02399*
X02538Y02398*
X02538Y02398*
X02538Y02397*
X02537Y02396*
X02537Y02396*
X02537Y02395*
X02537Y02394*
X02536Y02394*
X02536Y02393*
X02536Y02392*
X02526Y03226D02*
D01*
X02526Y03227*
X02526Y03228*
X02526Y03228*
X02526Y03229*
X02526Y0323*
X02526Y0323*
X02525Y03231*
X02525Y03232*
X02524Y03232*
X02524Y03233*
X02524Y03233*
X02523Y03234*
X02523Y03234*
X02522Y03235*
X02521Y03235*
X02521Y03235*
X0252Y03236*
X02519Y03236*
X02519Y03236*
X02518Y03236*
X02517Y03236*
X02517Y03236*
X02516*
X02515Y03236*
X02515Y03236*
X02514Y03236*
X02513Y03236*
X02513Y03236*
X02512Y03235*
X02511Y03235*
X02511Y03235*
X0251Y03234*
X0251Y03234*
X02509Y03233*
X02509Y03233*
X02508Y03232*
X02508Y03232*
X02508Y03231*
X02507Y0323*
X02507Y0323*
X02507Y03229*
X02507Y03228*
X02506Y03228*
X02506Y03227*
X02506Y03226*
X02546D02*
D01*
X02546Y03227*
X02546Y03228*
X02546Y03228*
X02546Y03229*
X02546Y0323*
X02546Y0323*
X02545Y03231*
X02545Y03232*
X02544Y03232*
X02544Y03233*
X02544Y03233*
X02543Y03234*
X02543Y03234*
X02542Y03235*
X02541Y03235*
X02541Y03235*
X0254Y03236*
X02539Y03236*
X02539Y03236*
X02538Y03236*
X02537Y03236*
X02537Y03236*
X02536*
X02535Y03236*
X02535Y03236*
X02534Y03236*
X02533Y03236*
X02533Y03236*
X02532Y03235*
X02531Y03235*
X02531Y03235*
X0253Y03234*
X0253Y03234*
X02529Y03233*
X02529Y03233*
X02528Y03232*
X02528Y03232*
X02528Y03231*
X02527Y0323*
X02527Y0323*
X02527Y03229*
X02527Y03228*
X02526Y03228*
X02526Y03227*
X02526Y03226*
X02566D02*
D01*
X02566Y03227*
X02566Y03228*
X02566Y03228*
X02566Y03229*
X02566Y0323*
X02566Y0323*
X02565Y03231*
X02565Y03232*
X02564Y03232*
X02564Y03233*
X02564Y03233*
X02563Y03234*
X02563Y03234*
X02562Y03235*
X02561Y03235*
X02561Y03235*
X0256Y03236*
X02559Y03236*
X02559Y03236*
X02558Y03236*
X02557Y03236*
X02557Y03236*
X02556*
X02555Y03236*
X02555Y03236*
X02554Y03236*
X02553Y03236*
X02553Y03236*
X02552Y03235*
X02551Y03235*
X02551Y03235*
X0255Y03234*
X0255Y03234*
X02549Y03233*
X02549Y03233*
X02548Y03232*
X02548Y03232*
X02548Y03231*
X02547Y0323*
X02547Y0323*
X02547Y03229*
X02547Y03228*
X02546Y03228*
X02546Y03227*
X02546Y03226*
X02878Y02392D02*
D01*
X02878Y02393*
X02878Y02394*
X02878Y02394*
X02878Y02395*
X02878Y02396*
X02878Y02396*
X02877Y02397*
X02877Y02398*
X02876Y02398*
X02876Y02399*
X02876Y02399*
X02875Y024*
X02875Y024*
X02874Y02401*
X02873Y02401*
X02873Y02401*
X02872Y02402*
X02871Y02402*
X02871Y02402*
X0287Y02402*
X02869Y02402*
X02869Y02402*
X02868*
X02867Y02402*
X02867Y02402*
X02866Y02402*
X02865Y02402*
X02865Y02402*
X02864Y02401*
X02863Y02401*
X02863Y02401*
X02862Y024*
X02862Y024*
X02861Y02399*
X02861Y02399*
X0286Y02398*
X0286Y02398*
X0286Y02397*
X02859Y02396*
X02859Y02396*
X02859Y02395*
X02859Y02394*
X02858Y02394*
X02858Y02393*
X02858Y02392*
X02898D02*
D01*
X02898Y02393*
X02898Y02394*
X02898Y02394*
X02898Y02395*
X02898Y02396*
X02898Y02396*
X02897Y02397*
X02897Y02398*
X02896Y02398*
X02896Y02399*
X02896Y02399*
X02895Y024*
X02895Y024*
X02894Y02401*
X02893Y02401*
X02893Y02401*
X02892Y02402*
X02891Y02402*
X02891Y02402*
X0289Y02402*
X02889Y02402*
X02889Y02402*
X02888*
X02887Y02402*
X02887Y02402*
X02886Y02402*
X02885Y02402*
X02885Y02402*
X02884Y02401*
X02883Y02401*
X02883Y02401*
X02882Y024*
X02882Y024*
X02881Y02399*
X02881Y02399*
X0288Y02398*
X0288Y02398*
X0288Y02397*
X02879Y02396*
X02879Y02396*
X02879Y02395*
X02879Y02394*
X02878Y02394*
X02878Y02393*
X02878Y02392*
X02918D02*
D01*
X02918Y02393*
X02918Y02394*
X02918Y02394*
X02918Y02395*
X02918Y02396*
X02918Y02396*
X02917Y02397*
X02917Y02398*
X02916Y02398*
X02916Y02399*
X02916Y02399*
X02915Y024*
X02915Y024*
X02914Y02401*
X02913Y02401*
X02913Y02401*
X02912Y02402*
X02911Y02402*
X02911Y02402*
X0291Y02402*
X02909Y02402*
X02909Y02402*
X02908*
X02907Y02402*
X02907Y02402*
X02906Y02402*
X02905Y02402*
X02905Y02402*
X02904Y02401*
X02903Y02401*
X02903Y02401*
X02902Y024*
X02902Y024*
X02901Y02399*
X02901Y02399*
X029Y02398*
X029Y02398*
X029Y02397*
X02899Y02396*
X02899Y02396*
X02899Y02395*
X02899Y02394*
X02898Y02394*
X02898Y02393*
X02898Y02392*
X05433Y0306D02*
Y03072D01*
X05405Y0306D02*
Y03072D01*
X05072Y0306D02*
Y03072D01*
X05044Y0306D02*
Y03072D01*
X03993Y02569D02*
Y02632D01*
X04105Y02558D02*
Y02644D01*
X03908Y02558D02*
X04105D01*
X03908D02*
Y02644D01*
X04105*
X03993Y02601D02*
X04022Y02632D01*
Y02569D02*
Y02632D01*
X03993Y02601D02*
X04022Y02569D01*
X03994Y02432D02*
Y02495D01*
X04105Y0242D02*
Y02507D01*
X03908Y0242D02*
X04105D01*
X03908D02*
Y02507D01*
X04105*
X03994Y02464D02*
X04023Y02495D01*
Y02432D02*
Y02495D01*
X03994Y02464D02*
X04023Y02432D01*
X03994Y02299D02*
Y02362D01*
X04105Y02287D02*
Y02374D01*
X03908Y02287D02*
X04105D01*
X03908D02*
Y02374D01*
X04105*
X03994Y02331D02*
X04023Y02362D01*
Y02299D02*
Y02362D01*
X03994Y02331D02*
X04023Y02299D01*
X03415Y03318D02*
X03842D01*
X03415Y03075D02*
X03842D01*
X03151Y02947D02*
Y03367D01*
X02841Y02947D02*
X03181D01*
Y03367*
X02841D02*
X03181D01*
X04643Y02656D02*
X04812D01*
X04613Y02625D02*
X04643Y02656D01*
X04613Y02558D02*
Y02625D01*
X04812Y02558D02*
Y02656D01*
X04613Y02558D02*
X04812D01*
X04513Y03027D02*
X04712D01*
Y03125*
X04513Y03027D02*
Y03094D01*
X04543Y03125*
X04712*
X0376Y02942D02*
X03764D01*
X0376Y0291D02*
X03764D01*
X03759Y02995D02*
X03763D01*
X03759Y03026D02*
X03763D01*
X04935Y02494D02*
X04939D01*
X04935Y02526D02*
X04939D01*
X03965Y02883D02*
X03969D01*
X03965Y02915D02*
X03969D01*
X04935Y02594D02*
X04939D01*
X04935Y02625D02*
X04939D01*
X03964Y02788D02*
X03968D01*
X03964Y0282D02*
X03968D01*
X04935Y02691D02*
X04939D01*
X04935Y02723D02*
X04939D01*
X03965Y02694D02*
X03969D01*
X03965Y02725D02*
X03969D01*
X0571Y02746D02*
X05714D01*
X0571Y02777D02*
X05714D01*
X05591Y02972D02*
X05595D01*
X05591Y0294D02*
X05595D01*
X05538Y0253D02*
X05542D01*
X05538Y02498D02*
X05542D01*
X05363Y02403D02*
X05367D01*
X05363Y02434D02*
X05367D01*
X04361Y02382D02*
X04365D01*
X04361Y02351D02*
X04365D01*
X04361D02*
X04365D01*
X04361Y02382D02*
X04365D01*
X04361Y02477D02*
X04365D01*
X04361Y02446D02*
X04365D01*
X04361D02*
X04365D01*
X04361Y02477D02*
X04365D01*
X04361Y0257D02*
X04365D01*
X04361Y02539D02*
X04365D01*
X04361D02*
X04365D01*
X04361Y0257D02*
X04365D01*
X05594Y03083D02*
X05598D01*
X05594Y03052D02*
X05598D01*
X05594D02*
X05598D01*
X05594Y03083D02*
X05598D01*
X04218Y0235D02*
X04222D01*
X04218Y02381D02*
X04222D01*
X04218Y02446D02*
X04222D01*
X04218Y02477D02*
X04222D01*
X04218Y02539D02*
X04222D01*
X04218Y0257D02*
X04222D01*
X04933Y02937D02*
Y02941D01*
X04901Y02937D02*
Y02941D01*
X04971Y02937D02*
Y02941D01*
X05003Y02937D02*
Y02941D01*
X0571Y02849D02*
X05714D01*
X0571Y0288D02*
X05714D01*
X03318Y02575D02*
Y02697D01*
X03612D02*
X03629Y0268D01*
X03612Y02575D02*
X03629Y02593D01*
Y0268*
X03318Y02697D02*
X03421D01*
X03318Y02575D02*
X03421D01*
X03515D02*
X03612D01*
X03515Y02697D02*
X03612D01*
X03094Y02861D02*
X03216D01*
X03199Y0255D02*
X03216Y02568D01*
X03094D02*
X03112Y0255D01*
X03199*
X03216Y02759D02*
Y02861D01*
X03094Y02759D02*
Y02861D01*
Y02568D02*
Y02664D01*
X03216Y02568D02*
Y02664D01*
X02806Y02888D02*
X02869D01*
X02806Y02766D02*
X02869D01*
X05357Y03171D02*
Y03187D01*
X05121Y03171D02*
Y03187D01*
Y03049D02*
Y03065D01*
X05357Y03049D02*
Y03065D01*
X05121Y03187D02*
X05357D01*
X05121Y03049D02*
X05357D01*
X02481Y02392D02*
X02496D01*
X02556D02*
X02571D01*
X02581Y02512D02*
X02631Y02462D01*
X02471Y02512D02*
X02581D01*
X02426Y02467D02*
X02471Y02512D01*
X02581Y02277D02*
X02631Y02327D01*
Y02462*
X02476Y02277D02*
X02581D01*
X02426Y02327D02*
X02476Y02277D01*
X02426Y02327D02*
Y02467D01*
X02491Y03226D02*
X02506D01*
X02566D02*
X02581D01*
X02591Y03346D02*
X02641Y03296D01*
X02481Y03346D02*
X02591D01*
X02436Y03301D02*
X02481Y03346D01*
X02591Y03111D02*
X02641Y03161D01*
Y03296*
X02486Y03111D02*
X02591D01*
X02436Y03161D02*
X02486Y03111D01*
X02436Y03161D02*
Y03301D01*
X02843Y02392D02*
X02858D01*
X02918D02*
X02933D01*
X02943Y02512D02*
X02993Y02462D01*
X02833Y02512D02*
X02943D01*
X02788Y02467D02*
X02833Y02512D01*
X02943Y02277D02*
X02993Y02327D01*
Y02462*
X02838Y02277D02*
X02943D01*
X02788Y02327D02*
X02838Y02277D01*
X02788Y02327D02*
Y02467D01*
G54D65*
X03767Y03287D02*
D01*
X03767Y03287*
X03767Y03287*
X03766Y03288*
X03766Y03288*
X03766Y03288*
X03766Y03289*
X03766Y03289*
X03766Y03289*
X03766Y0329*
X03765Y0329*
X03765Y0329*
X03765Y0329*
X03765Y03291*
X03764Y03291*
X03764Y03291*
X03764Y03291*
X03764Y03291*
X03763Y03291*
X03763Y03291*
X03763Y03292*
X03762Y03292*
X03762Y03292*
X03762*
X03761Y03292*
X03761Y03292*
X03761Y03291*
X0376Y03291*
X0376Y03291*
X0376Y03291*
X03759Y03291*
X03759Y03291*
X03759Y03291*
X03758Y0329*
X03758Y0329*
X03758Y0329*
X03758Y0329*
X03758Y03289*
X03757Y03289*
X03757Y03289*
X03757Y03288*
X03757Y03288*
X03757Y03288*
X03757Y03287*
X03757Y03287*
X03757Y03287*
X03757Y03286*
X03757Y03286*
X03757Y03286*
X03757Y03285*
X03757Y03285*
X03757Y03285*
X03757Y03284*
X03758Y03284*
X03758Y03284*
X03758Y03284*
X03758Y03283*
X03758Y03283*
X03759Y03283*
X03759Y03283*
X03759Y03282*
X0376Y03282*
X0376Y03282*
X0376Y03282*
X03761Y03282*
X03761Y03282*
X03761Y03282*
X03762Y03282*
X03762*
X03762Y03282*
X03763Y03282*
X03763Y03282*
X03763Y03282*
X03764Y03282*
X03764Y03282*
X03764Y03282*
X03764Y03283*
X03765Y03283*
X03765Y03283*
X03765Y03283*
X03765Y03284*
X03766Y03284*
X03766Y03284*
X03766Y03284*
X03766Y03285*
X03766Y03285*
X03766Y03285*
X03766Y03286*
X03767Y03286*
X03767Y03286*
X03767Y03287*
X05101Y02889D02*
D01*
X05101Y02889*
X05101Y0289*
X05101Y0289*
X05101Y0289*
X05101Y02891*
X05101Y02891*
X051Y02891*
X051Y02892*
X051Y02892*
X051Y02892*
X051Y02893*
X05099Y02893*
X05099Y02893*
X05099Y02893*
X05099Y02893*
X05098Y02894*
X05098Y02894*
X05098Y02894*
X05097Y02894*
X05097Y02894*
X05097Y02894*
X05096Y02894*
X05096*
X05096Y02894*
X05095Y02894*
X05095Y02894*
X05095Y02894*
X05094Y02894*
X05094Y02894*
X05094Y02893*
X05093Y02893*
X05093Y02893*
X05093Y02893*
X05093Y02893*
X05092Y02892*
X05092Y02892*
X05092Y02892*
X05092Y02891*
X05092Y02891*
X05091Y02891*
X05091Y0289*
X05091Y0289*
X05091Y0289*
X05091Y02889*
X05091Y02889*
X05091Y02889*
X05091Y02888*
X05091Y02888*
X05091Y02888*
X05091Y02887*
X05092Y02887*
X05092Y02887*
X05092Y02887*
X05092Y02886*
X05092Y02886*
X05093Y02886*
X05093Y02885*
X05093Y02885*
X05093Y02885*
X05094Y02885*
X05094Y02885*
X05094Y02885*
X05095Y02884*
X05095Y02884*
X05095Y02884*
X05096Y02884*
X05096Y02884*
X05096*
X05097Y02884*
X05097Y02884*
X05097Y02884*
X05098Y02884*
X05098Y02885*
X05098Y02885*
X05099Y02885*
X05099Y02885*
X05099Y02885*
X05099Y02885*
X051Y02886*
X051Y02886*
X051Y02886*
X051Y02887*
X051Y02887*
X05101Y02887*
X05101Y02887*
X05101Y02888*
X05101Y02888*
X05101Y02888*
X05101Y02889*
X05101Y02889*
X05129Y03214D02*
D01*
X05129Y03214*
X05129Y03214*
X05129Y03215*
X05129Y03215*
X05129Y03215*
X05129Y03216*
X05128Y03216*
X05128Y03216*
X05128Y03216*
X05128Y03217*
X05128Y03217*
X05127Y03217*
X05127Y03217*
X05127Y03218*
X05127Y03218*
X05126Y03218*
X05126Y03218*
X05126Y03218*
X05125Y03218*
X05125Y03218*
X05125Y03218*
X05124Y03218*
X05124*
X05124Y03218*
X05123Y03218*
X05123Y03218*
X05123Y03218*
X05122Y03218*
X05122Y03218*
X05122Y03218*
X05121Y03218*
X05121Y03217*
X05121Y03217*
X05121Y03217*
X0512Y03217*
X0512Y03216*
X0512Y03216*
X0512Y03216*
X0512Y03216*
X05119Y03215*
X05119Y03215*
X05119Y03215*
X05119Y03214*
X05119Y03214*
X05119Y03214*
X05119Y03213*
X05119Y03213*
X05119Y03213*
X05119Y03212*
X05119Y03212*
X0512Y03212*
X0512Y03211*
X0512Y03211*
X0512Y03211*
X0512Y0321*
X05121Y0321*
X05121Y0321*
X05121Y0321*
X05121Y0321*
X05122Y03209*
X05122Y03209*
X05122Y03209*
X05123Y03209*
X05123Y03209*
X05123Y03209*
X05124Y03209*
X05124Y03209*
X05124*
X05125Y03209*
X05125Y03209*
X05125Y03209*
X05126Y03209*
X05126Y03209*
X05126Y03209*
X05127Y03209*
X05127Y0321*
X05127Y0321*
X05127Y0321*
X05128Y0321*
X05128Y0321*
X05128Y03211*
X05128Y03211*
X05128Y03211*
X05129Y03212*
X05129Y03212*
X05129Y03212*
X05129Y03213*
X05129Y03213*
X05129Y03213*
X05129Y03214*
G54D66*
X03703Y02897D02*
Y02956D01*
Y02897D02*
X03821D01*
Y02956*
X03703D02*
X03821D01*
X0382Y02981D02*
Y0304D01*
X03702D02*
X0382D01*
X03702Y02981D02*
Y0304D01*
Y02981D02*
X0382D01*
X04996Y02481D02*
Y0254D01*
X04878D02*
X04996D01*
X04878Y02481D02*
Y0254D01*
Y02481D02*
X04996D01*
X04026Y0287D02*
Y02929D01*
X03908D02*
X04026D01*
X03908Y0287D02*
Y02929D01*
Y0287D02*
X04026D01*
X04996Y0258D02*
Y02639D01*
X04878D02*
X04996D01*
X04878Y0258D02*
Y02639D01*
Y0258D02*
X04996D01*
X04025Y02774D02*
Y02833D01*
X03907D02*
X04025D01*
X03907Y02774D02*
Y02833D01*
Y02774D02*
X04025D01*
X04996Y02677D02*
Y02736D01*
X04878D02*
X04996D01*
X04878Y02677D02*
Y02736D01*
Y02677D02*
X04996D01*
X04026Y0268D02*
Y02739D01*
X03908D02*
X04026D01*
X03908Y0268D02*
Y02739D01*
Y0268D02*
X04026D01*
X05771Y02732D02*
Y02791D01*
X05653D02*
X05771D01*
X05653Y02732D02*
Y02791D01*
Y02732D02*
X05771D01*
X05534Y02926D02*
Y02985D01*
Y02926D02*
X05652D01*
Y02985*
X05534D02*
X05652D01*
X05481Y02484D02*
Y02544D01*
Y02484D02*
X05599D01*
Y02544*
X05481D02*
X05599D01*
X05424Y02389D02*
Y02448D01*
X05306D02*
X05424D01*
X05306Y02389D02*
Y02448D01*
Y02389D02*
X05424D01*
X04308Y02338D02*
X04419D01*
Y02394*
X04308D02*
X04419D01*
X04308Y02338D02*
Y02394D01*
Y02433D02*
X04419D01*
Y02489*
X04308D02*
X04419D01*
X04308Y02433D02*
Y02489D01*
Y02526D02*
X04419D01*
Y02582*
X04308D02*
X04419D01*
X04308Y02526D02*
Y02582D01*
X05541Y03039D02*
X05652D01*
Y03095*
X05541D02*
X05652D01*
X05541Y03039D02*
Y03095D01*
X04279Y02336D02*
Y02395D01*
X04161D02*
X04279D01*
X04161Y02336D02*
Y02395D01*
Y02336D02*
X04279D01*
Y02432D02*
Y02491D01*
X04161D02*
X04279D01*
X04161Y02432D02*
Y02491D01*
Y02432D02*
X04279D01*
Y02525D02*
Y02584D01*
X04161D02*
X04279D01*
X04161Y02525D02*
Y02584D01*
Y02525D02*
X04279D01*
X04888Y02998D02*
X04947D01*
X04888Y0288D02*
Y02998D01*
Y0288D02*
X04947D01*
Y02998*
X04958Y0288D02*
X05017D01*
Y02998*
X04958D02*
X05017D01*
X04958Y0288D02*
Y02998D01*
X05771Y02835D02*
Y02894D01*
X05653D02*
X05771D01*
X05653Y02835D02*
Y02894D01*
Y02835D02*
X05771D01*
X04817Y0288D02*
X04876D01*
Y02998*
X04817Y0288D02*
Y02998D01*
X04876*
X05676Y02955D02*
X05735D01*
Y03073*
X05676Y02955D02*
Y03073D01*
X05735*
X04985Y03065D02*
Y03124D01*
X04867D02*
X04985D01*
X04867Y03065D02*
X04985D01*
X04867D02*
Y03124D01*
X05554Y02625D02*
X05613D01*
Y02743*
X05554Y02625D02*
Y02743D01*
X05613*
X05367Y02965D02*
Y03024D01*
X05249D02*
X05367D01*
X05249Y02965D02*
X05367D01*
X05249D02*
Y03024D01*
X05107Y02965D02*
Y03024D01*
Y02965D02*
X05226D01*
X05107Y03024D02*
X05226D01*
Y02965D02*
Y03024D01*
G54D110*
X04603Y02699D02*
D01*
X04603Y02699*
X04603Y027*
X04603Y027*
X04603Y027*
X04603Y02701*
X04603Y02701*
X04603Y02701*
X04602Y02702*
X04602Y02702*
X04602Y02702*
X04602Y02703*
X04601Y02703*
X04601Y02703*
X04601Y02704*
X046Y02704*
X046Y02704*
X046Y02704*
X04599Y02704*
X04599Y02704*
X04598Y02705*
X04598Y02705*
X04598Y02705*
X04597*
X04597Y02705*
X04596Y02705*
X04596Y02704*
X04595Y02704*
X04595Y02704*
X04595Y02704*
X04594Y02704*
X04594Y02704*
X04594Y02703*
X04593Y02703*
X04593Y02703*
X04593Y02702*
X04593Y02702*
X04592Y02702*
X04592Y02701*
X04592Y02701*
X04592Y02701*
X04592Y027*
X04592Y027*
X04591Y027*
X04591Y02699*
X04591Y02699*
X04591Y02698*
X04591Y02698*
X04592Y02697*
X04592Y02697*
X04592Y02697*
X04592Y02696*
X04592Y02696*
X04592Y02696*
X04593Y02695*
X04593Y02695*
X04593Y02695*
X04593Y02694*
X04594Y02694*
X04594Y02694*
X04594Y02694*
X04595Y02693*
X04595Y02693*
X04595Y02693*
X04596Y02693*
X04596Y02693*
X04597Y02693*
X04597Y02693*
X04598*
X04598Y02693*
X04598Y02693*
X04599Y02693*
X04599Y02693*
X046Y02693*
X046Y02693*
X046Y02694*
X04601Y02694*
X04601Y02694*
X04601Y02694*
X04602Y02695*
X04602Y02695*
X04602Y02695*
X04602Y02696*
X04603Y02696*
X04603Y02696*
X04603Y02697*
X04603Y02697*
X04603Y02697*
X04603Y02698*
X04603Y02698*
X04603Y02699*
X04503Y03168D02*
D01*
X04503Y03168*
X04503Y03169*
X04503Y03169*
X04503Y03169*
X04503Y0317*
X04503Y0317*
X04503Y0317*
X04502Y03171*
X04502Y03171*
X04502Y03171*
X04502Y03172*
X04501Y03172*
X04501Y03172*
X04501Y03173*
X045Y03173*
X045Y03173*
X045Y03173*
X04499Y03173*
X04499Y03173*
X04498Y03174*
X04498Y03174*
X04498Y03174*
X04497*
X04497Y03174*
X04496Y03174*
X04496Y03173*
X04495Y03173*
X04495Y03173*
X04495Y03173*
X04494Y03173*
X04494Y03173*
X04494Y03172*
X04493Y03172*
X04493Y03172*
X04493Y03171*
X04493Y03171*
X04492Y03171*
X04492Y0317*
X04492Y0317*
X04492Y0317*
X04492Y03169*
X04492Y03169*
X04491Y03169*
X04491Y03168*
X04491Y03168*
X04491Y03167*
X04491Y03167*
X04492Y03166*
X04492Y03166*
X04492Y03166*
X04492Y03165*
X04492Y03165*
X04492Y03165*
X04493Y03164*
X04493Y03164*
X04493Y03164*
X04493Y03163*
X04494Y03163*
X04494Y03163*
X04494Y03163*
X04495Y03162*
X04495Y03162*
X04495Y03162*
X04496Y03162*
X04496Y03162*
X04497Y03162*
X04497Y03162*
X04498*
X04498Y03162*
X04498Y03162*
X04499Y03162*
X04499Y03162*
X045Y03162*
X045Y03162*
X045Y03163*
X04501Y03163*
X04501Y03163*
X04501Y03163*
X04502Y03164*
X04502Y03164*
X04502Y03164*
X04502Y03165*
X04503Y03165*
X04503Y03165*
X04503Y03166*
X04503Y03166*
X04503Y03166*
X04503Y03167*
X04503Y03167*
X04503Y03168*
M02*