%FSTAX23Y23*%
%MOIN*%
%SFA1B1*%

%IPPOS*%
%AMD31*
4,1,8,-0.030000,-0.012400,-0.012400,-0.030000,0.012400,-0.030000,0.030000,-0.012400,0.030000,0.012400,0.012400,0.030000,-0.012400,0.030000,-0.030000,0.012400,-0.030000,-0.012400,0.0*
%
%AMD34*
4,1,8,0.030000,-0.025000,0.030000,0.025000,0.015000,0.040000,-0.015000,0.040000,-0.030000,0.025000,-0.030000,-0.025000,-0.015000,-0.040000,0.015000,-0.040000,0.030000,-0.025000,0.0*
%
%ADD10C,0.008000*%
%ADD11R,0.047200X0.065000*%
%ADD14R,0.039400X0.035400*%
%ADD15R,0.035400X0.039400*%
%ADD22C,0.010000*%
%ADD23C,0.039400*%
%ADD24C,0.019700*%
%ADD27C,0.003900*%
%ADD28C,0.039400*%
%ADD29C,0.059100*%
%ADD30C,0.060000*%
G04~CAMADD=31~4~0.0~0.0~599.6~599.6~0.0~175.6~0~0.0~0.0~0.0~0.0~0~0.0~0.0~0.0~0.0~0~0.0~0.0~0.0~135.0~599.6~599.6*
%ADD31D31*%
%ADD32R,0.059100X0.059100*%
%ADD33R,0.059100X0.059100*%
G04~CAMADD=34~4~0.0~0.0~800.0~600.0~0.0~150.0~0~0.0~0.0~0.0~0.0~0~0.0~0.0~0.0~0.0~0~0.0~0.0~0.0~270.0~600.0~800.0*
%ADD34D34*%
%ADD35C,0.023600*%
%ADD36R,0.059800X0.063000*%
%ADD37R,0.063000X0.059800*%
%ADD38R,0.035400X0.027600*%
%ADD39R,0.033500X0.051200*%
%ADD40R,0.224400X0.216500*%
%ADD41R,0.063000X0.039400*%
%ADD42R,0.085000X0.042100*%
%ADD43R,0.200000X0.328000*%
%ADD44R,0.075200X0.425200*%
%ADD45R,0.028300X0.070100*%
%ADD46R,0.030000X0.030000*%
%ADD47R,0.040000X0.032000*%
%ADD48R,0.032000X0.040000*%
%ADD49R,0.047200X0.019700*%
%ADD50R,0.019700X0.047200*%
%ADD51R,0.090600X0.090600*%
%ADD52R,0.090600X0.090600*%
%ADD53R,0.055100X0.129900*%
%ADD54R,0.066900X0.070900*%
%ADD55R,0.118100X0.224400*%
%ADD56C,0.035400*%
%ADD57C,0.028300*%
%ADD58C,0.032000*%
%ADD59C,0.033500*%
%ADD60C,0.027600*%
%ADD61C,0.031500*%
%LNuzcar-1*%
%LPD*%
G54D10*
X05795Y03383D02*
X05817Y03361D01*
X05776Y03383D02*
X05817Y03342D01*
X05756Y03383D02*
X05817Y03322D01*
X057Y03303D02*
X05779Y03383D01*
X0569Y03313D02*
X0576Y03383D01*
X05737D02*
X05817Y03303D01*
Y03187D02*
Y03383D01*
X05698D02*
X05817Y03264D01*
X05729Y03274D02*
X05817Y03361D01*
X05717Y03383D02*
X05817Y03283D01*
X0571Y03293D02*
X05799Y03383D01*
X05719Y03284D02*
X05817Y03381D01*
X05671Y03332D02*
X05721Y03383D01*
X05661Y03342D02*
X05702Y03383D01*
X05681Y03323D02*
X05741Y03383D01*
X05642Y03362D02*
X05663Y03383D01*
X05632Y03371D02*
X05643Y03383D01*
X05651Y03352D02*
X05682Y03383D01*
X05678D02*
X05817Y03244D01*
X05639Y03383D02*
X05817Y03205D01*
X05659Y03383D02*
X05817Y03225D01*
X05632Y03371D02*
X05812Y03191D01*
X05582Y03343D02*
X05761Y03163D01*
X05788Y03215D02*
X05817Y03244D01*
X05778Y03225D02*
X05817Y03264D01*
X05797Y03206D02*
X05817Y03225D01*
X05758Y03245D02*
X05817Y03303D01*
X05749Y03254D02*
X05817Y03322D01*
X05768Y03235D02*
X05817Y03283D01*
X05812Y03191D02*
X05817Y03187D01*
X05807Y03196D02*
X05817Y03205D01*
X05812Y03191D02*
X05817Y03187D01*
X05775Y03163D02*
X05779Y03167D01*
X05755Y03163D02*
X05769Y03177D01*
X05743Y03163D02*
X05777D01*
X05739Y03264D02*
X05817Y03342D01*
X05605Y03189D02*
X05681Y03265D01*
X05624Y03189D02*
X05691Y03255D01*
X05547Y03189D02*
X05652Y03294D01*
X05527Y03189D02*
X05642Y03304D01*
X05585Y03189D02*
X05672Y03275D01*
X05604Y03343D02*
X05784Y03163D01*
X05562Y03343D02*
X05742Y03162D01*
X05644Y03169D02*
X0571Y03236D01*
X05566Y03189D02*
X05662Y03284D01*
X05634Y03179D02*
X05701Y03245D01*
X05623Y03381D02*
X05632Y03371D01*
X05604Y03381D02*
X05623D01*
X05632Y03371*
X05604Y03381D02*
X05623D01*
X05469Y03247D02*
X05564Y03343D01*
X05449Y03247D02*
X05545Y03343D01*
X05488Y03189D02*
X05623Y03323D01*
X05465Y03343D02*
X05619Y03189D01*
X05508D02*
X05633Y03314D01*
X05493Y03233D02*
X05603Y03343D01*
X05483Y03242D02*
X05584Y03343D01*
X05495Y03215D02*
X05613Y03333D01*
X05424Y033D02*
X05467Y03343D01*
X05419Y03315D02*
X05447Y03343D01*
X05424Y03281D02*
X05486Y03343D01*
X05409Y03324D02*
X05428Y03343D01*
X05407Y03326D02*
X05424Y03309D01*
Y03276D02*
Y03309D01*
X05426Y03343D02*
X0558Y03189D01*
X05406Y03343D02*
X0556Y03189D01*
X05445Y03343D02*
X05599Y03189D01*
X05424Y03305D02*
X05541Y03189D01*
X05424Y03286D02*
X05463Y03247D01*
X05606Y03189D02*
X05625D01*
X05495Y03215D02*
X05521Y03189D01*
X05606D02*
X05625D01*
X05495Y03197D02*
Y0323D01*
X05478Y03247D02*
X05495Y0323D01*
X05625Y03189D02*
X05635Y03179D01*
X05487Y03189D02*
X05606D01*
X05625D02*
X05635Y03179D01*
X05487Y03189D02*
X05495Y03197D01*
X05494Y03196D02*
X05502Y03189D01*
X05445Y03247D02*
X05478D01*
X05428Y0323D02*
X05445Y03247D01*
X05419Y03271D02*
X05444Y03246D01*
X05407Y03259D02*
X05424Y03276D01*
X0541Y03261D02*
X05434Y03237D01*
X05428Y03197D02*
X05436Y03189D01*
X0543D02*
X05433Y03192D01*
X05428Y03197D02*
Y0323D01*
X0541Y03189D02*
X05428Y03206D01*
X05784Y03157D02*
Y03163D01*
X05777Y03163D02*
X05784Y03157D01*
X05726Y03146D02*
X05743Y03163D01*
X05683Y0313D02*
X05749Y03197D01*
X05693Y03121D02*
X05759Y03187D01*
X05726Y03113D02*
X05743Y03096D01*
X05726Y03113D02*
Y03146D01*
X05703Y03111D02*
X05726Y03135D01*
X05712Y03101D02*
X05726Y03115D01*
X05601Y03343D02*
X05784Y0316D01*
X05543Y03343D02*
X05733Y03153D01*
X05673Y0314D02*
X0574Y03206D01*
X05654Y0316D02*
X0572Y03226D01*
X05523Y03343D02*
X05726Y03139D01*
X05664Y0315D02*
X0573Y03216D01*
X05504Y03343D02*
X05726Y0312D01*
X05484Y03343D02*
X05784Y03043D01*
X05635Y03179D02*
X05715Y03099D01*
X05606Y03151D02*
X0564Y03116D01*
X05608D02*
X0564D01*
X05777Y03096D02*
X05784Y03102D01*
X0577Y03096D02*
X05784Y03082D01*
X0575Y03096D02*
X05784Y03063D01*
X05755Y03065D02*
X05784Y03094D01*
X05743Y03096D02*
X05777D01*
X05739Y03067D02*
X05753D01*
X05784Y02871D02*
Y03102D01*
X05764Y03056D02*
X05784Y03075D01*
X05774Y03046D02*
X05784Y03055D01*
X05753Y03067D02*
X05763Y03057D01*
X05753Y03067D02*
X05763Y03057D01*
X0577Y0305*
X05728Y03078D02*
X05746Y03096D01*
X05722Y03091D02*
X05735Y03104D01*
X05725Y03078D02*
X05739D01*
X05715Y03099D02*
X05725Y03089D01*
X05715Y03099D02*
X05725Y03089D01*
Y03083D02*
X0573Y03078D01*
X05739Y03067D02*
Y03078D01*
Y03069D02*
X05766Y03096D01*
X05739Y03067D02*
X05753D01*
X05725Y03078D02*
Y03089D01*
Y03078D02*
Y03089D01*
X05598Y03151D02*
X05633Y03116D01*
X05591D02*
X05616Y03141D01*
X05611Y03116D02*
X05625Y03131D01*
X05559Y03151D02*
X05594Y03116D01*
X0554Y03151D02*
X05581Y03109D01*
X05579Y03151D02*
X05613Y03116D01*
X0552Y03151D02*
X05572Y03099D01*
X05489Y03053D02*
X05586Y03151D01*
X05552Y03096D02*
X05606Y03151D01*
X05501D02*
X05555Y03096D01*
X05481Y03151D02*
X05539Y03093D01*
X05479Y03063D02*
X05567Y03151D01*
X05451Y03112D02*
X05489Y03151D01*
X05448Y03129D02*
X0547Y03151D01*
X05444Y03129D02*
X05451Y03123D01*
X05423Y03151D02*
X05444Y03129D01*
X05409D02*
X05431Y03151D01*
X05429Y03129D02*
X0545Y03151D01*
X05462D02*
X05539Y03073D01*
X05442Y03151D02*
X05539Y03054D01*
X05461Y03064D02*
X05547Y03151D01*
X05451Y03093D02*
X05509Y03151D01*
X05436Y03058D02*
X05528Y03151D01*
X0563Y03116D02*
X05635Y03121D01*
X05589Y03116D02*
X05608D01*
X05589D02*
X05608D01*
X05579Y03107D02*
X05589Y03116D01*
X05579Y03107D02*
X05589Y03116D01*
X05569Y03096D02*
X05579Y03107D01*
X05539Y03096D02*
X05569D01*
X05495Y0304D02*
X05539Y03084D01*
X05495Y0302D02*
X05539Y03064D01*
Y03038D02*
Y03096D01*
X05478Y03064D02*
X05495Y03047D01*
X05451Y03084D02*
X0547Y03064D01*
X05441Y03074D02*
X05451Y03064D01*
X05445D02*
X05478D01*
X05451Y03074D02*
Y03129D01*
X05422Y03074D02*
X05437Y03058D01*
X05416D02*
X05431Y03074D01*
X05451Y03103D02*
X05553Y03001D01*
X05451Y03123D02*
X05584Y02989D01*
X05439Y03058D02*
X05445Y03064D01*
X05392Y03326D02*
X05408Y03343D01*
X05369D02*
X05604D01*
X05385Y03326D02*
X05407D01*
X05379Y03333D02*
X05389Y03343D01*
X05369D02*
X05385Y03326D01*
X05387Y03343D02*
X05403Y03326D01*
X05371Y03189D02*
X05525Y03343D01*
X05352Y03189D02*
X05506Y03343D01*
X05361Y03271D02*
X05428Y03204D01*
X05361Y03255D02*
Y03272D01*
X05374Y03259*
X05361Y03256D02*
X05369Y03264D01*
X04903Y03381D02*
X05604D01*
X04901Y03383D02*
X05817D01*
X05257Y03323D02*
X05277D01*
X05273Y03319D02*
X05277Y03323D01*
X0527D02*
X05274Y03319D01*
X05261Y03292D02*
X05273Y03304D01*
X05313Y03189D02*
X05383Y03259D01*
X05261Y03293D02*
X05273Y03281D01*
X05332Y03189D02*
X05402Y03259D01*
X05273Y03255D02*
Y03319D01*
X05261Y03274D02*
X05273Y03262D01*
X05393Y03259D02*
X05428Y03224D01*
X05359Y03253D02*
X05424Y03189D01*
X05391D02*
X05428Y03226D01*
X05374Y03259D02*
X05407D01*
X05339Y03233D02*
X05361Y03255D01*
X05295Y03233D02*
X05339D01*
X0535Y03243D02*
X05404Y03189D01*
X05306D02*
X05436D01*
X05391Y03151D02*
X05606D01*
X0534Y03234D02*
X05385Y03189D01*
X05321Y03233D02*
X05365Y03189D01*
X05302Y03233D02*
X05346Y03189D01*
X05293D02*
X05337Y03233D01*
X05261Y03254D02*
X05326Y03189D01*
X05287D02*
X05306D01*
X05273Y03255D02*
X05295Y03233D01*
X05241Y03235D02*
X05287Y03189D01*
X05287D02*
X05306D01*
X05278Y03179D02*
X05287Y03189D01*
X05251Y03245D02*
X05307Y03189D01*
X05278Y03179D02*
X05287Y03189D01*
X05182Y03155D02*
X05277Y0325D01*
X05224Y03233D02*
X05278Y03179D01*
X05261Y03312D02*
X05271Y03323D01*
X05257D02*
X05261Y03319D01*
Y03313D02*
X05273Y03301D01*
X05153Y03323D02*
X05173Y03303D01*
X05142Y0331D02*
X05154Y03323D01*
X05173Y03319D02*
X05177Y03323D01*
X05261Y03255D02*
Y03319D01*
X05142Y03291D02*
X05174Y03323D01*
X05261Y03273D02*
X05273Y03285D01*
X05173Y03255D02*
Y03319D01*
X05142Y03287D02*
Y0332D01*
Y03295D02*
X05173Y03264D01*
X0514Y03323D02*
X05142Y0332D01*
X04993Y03323D02*
X05077D01*
X0514D02*
X05177D01*
X05075Y0332D02*
X05077Y03323D01*
X05056D02*
X05067Y03312D01*
X05075D02*
Y0332D01*
X05142Y03314D02*
X05173Y03284D01*
X05125Y0327D02*
X05142Y03287D01*
X05137Y03281D02*
X05258Y0316D01*
X05066Y03312D02*
X05076Y03323D01*
X04982Y03312D02*
X05075D01*
X05239Y03233D02*
X05261Y03255D01*
X05175Y03168D02*
X05273Y03265D01*
X05205Y03233D02*
X05268Y03169D01*
X05173Y03255D02*
X05195Y03233D01*
X05092Y0327D02*
X05125D01*
X05195Y03233D02*
X05239D01*
X05155Y03168D02*
X0522Y03233D01*
X05127Y03271D02*
X05248Y0315D01*
X05136Y03168D02*
X05201Y03233D01*
X05097Y03168D02*
X05178Y03249D01*
X05116Y03168D02*
X05188Y03239D01*
X05088Y03274D02*
X05092Y0327D01*
X05046Y03274D02*
X05152Y03168D01*
X05066Y03274D02*
X05172Y03168D01*
X05014Y03202D02*
X05086Y03274D01*
X05014Y03221D02*
X05067Y03274D01*
X049D02*
X05088D01*
X05027D02*
X05133Y03168D01*
X05007Y03274D02*
X05113Y03168D01*
X05087D02*
X05182D01*
X04968Y03274D02*
X05087Y03155D01*
X04988Y03274D02*
X05094Y03168D01*
X05403Y03151D02*
X05425Y03129D01*
X05391Y0313D02*
X05411Y03151D01*
X05391Y03129D02*
X05451D01*
X05391Y03144D02*
X05405Y03129D01*
X05391D02*
Y03151D01*
X05287Y03131D02*
X05296Y03122D01*
X05387Y03074D02*
X05391D01*
X05257Y03102D02*
X05323Y03036D01*
X05391Y03074D02*
X05451D01*
X05296Y03069D02*
Y0314D01*
X05277Y03121D02*
X05296Y03102D01*
X05267Y03112D02*
X05296Y03083D01*
X05182Y03116D02*
X05298Y03233D01*
X05182Y03097D02*
X05318Y03233D01*
X05186Y0303D02*
X05296Y0314D01*
X05182Y03084D02*
X05278Y03179D01*
X05182Y03136D02*
X05287Y03241D01*
X05238Y03082D02*
X05291Y03029D01*
X0523Y03028D02*
X05296Y03094D01*
X05211Y03029D02*
X05296Y03113D01*
X05248Y03092D02*
X05312Y03028D01*
X05192Y03029D02*
X05296Y03133D01*
X0525Y03029D02*
X05296Y03074D01*
X05402Y03074D02*
X05418Y03058D01*
X05397D02*
X05412Y03074D01*
X05362Y03069D02*
X05391D01*
Y03074*
X05388Y03069D02*
X05391Y03072D01*
X05362Y03063D02*
X05368Y03069D01*
X05388D02*
X05398Y03058D01*
X05368Y03069D02*
X05387Y0305D01*
Y03058D02*
X05439D01*
X05387Y03003D02*
Y03058D01*
X05362Y03055D02*
X05387Y0303D01*
X05362Y03047D02*
Y03066D01*
X05296Y03069D02*
X05324D01*
X05362Y03047D02*
Y03066D01*
X05323Y03046D02*
Y03065D01*
X0531Y03069D02*
X05323Y03056D01*
Y03046D02*
Y03065D01*
X05361Y03042D02*
X05388Y03069D01*
X0527Y03029D02*
X0531Y03069D01*
X05289Y03029D02*
X05323Y03062D01*
X05228Y03073D02*
X05272Y03029D01*
X05218Y03063D02*
X05252Y03029D01*
X05109Y0327D02*
X05239Y0314D01*
X05085Y03274D02*
X05229Y0313D01*
X05074Y03137D02*
X05087D01*
Y03168*
X05074Y03137D02*
X05087D01*
X05065Y03129D02*
X05074Y03137D01*
X05182Y03138D02*
X05209Y03111D01*
X05182Y03158D02*
X05219Y03121D01*
X05182Y03119D02*
X052Y03101D01*
X05182Y03099D02*
X0519Y03091D01*
X05182Y03084D02*
Y03168D01*
X05065Y03058D02*
X05081Y03074D01*
X05039Y03129D02*
X05173Y03263D01*
X04967Y03135D02*
X05102Y0327D01*
X05058Y03129D02*
X05087Y03158D01*
X05014Y03189D02*
X0507Y03133D01*
X05014Y03208D02*
X05085Y03137D01*
X05065Y03129D02*
X05074Y03137D01*
X0499Y03099D02*
X05173Y03282D01*
X0499Y03119D02*
X05173Y03302D01*
X0498Y03128D02*
X05121Y0327D01*
X05026Y03129D02*
X05065D01*
X05046Y03058D02*
X05061Y03074D01*
X05154Y03069D02*
X05161Y03062D01*
X05154Y03069D02*
X05167D01*
X05157Y03059D02*
X05167Y03069D01*
X05154Y03055D02*
X05157Y03059D01*
X05154Y03055D02*
Y03066D01*
Y03055D02*
X05157Y03059D01*
X05154Y03055D02*
Y03066D01*
X05095Y03069D02*
X05114Y0305D01*
X05209Y03053D02*
X05244Y03017D01*
X05114Y03045D02*
Y03064D01*
Y03045D02*
Y03064D01*
X05087Y03069D02*
X05116D01*
X05085Y03058D02*
X05095Y03069D01*
X05026Y03058D02*
X0509D01*
X05052Y03074D02*
X05067Y03058D01*
X05026Y03074D02*
X05087D01*
Y03069D02*
Y03074D01*
X0509Y03044D02*
X05115Y03069D01*
X05086Y03058D02*
X0509Y03055D01*
X05114Y03031*
X05071Y03074D02*
X05086Y03058D01*
X0509Y03003D02*
Y03058D01*
X05779Y03028D02*
X05784Y03024D01*
X05779Y03032D02*
X05784Y03036D01*
X05779Y03012D02*
X05784Y03016D01*
X05779Y03022D02*
Y03041D01*
X0577Y0305D02*
X05779Y03041D01*
Y03022D02*
Y03041D01*
Y02993D02*
X05784Y02997D01*
X05779Y03009D02*
X05784Y03004D01*
X05779Y02989D02*
X05784Y02985D01*
X05779Y02973D02*
X05784Y02977D01*
X05779Y02939D02*
Y03022D01*
Y0297D02*
X05784Y02965D01*
X0577Y0305D02*
X05779Y03041D01*
X05634Y02997D02*
X05642Y02989D01*
X05593D02*
X05642D01*
X05624Y03007D02*
X05634Y02997D01*
X05624Y03007D02*
X05634Y02997D01*
X0562Y02989D02*
X05631Y03D01*
X05661Y02971D02*
X0567Y02961D01*
X05656Y02975D02*
X05661Y02971D01*
X0567Y02961*
X05656Y0294D02*
Y02975D01*
Y02967D02*
X0566Y02971D01*
X05779Y0295D02*
X05784Y02946D01*
X05779Y02954D02*
X05784Y02958D01*
X05779Y02934D02*
X05784Y02938D01*
X05779Y0292D02*
Y02939D01*
Y0292D02*
Y02939D01*
Y02931D02*
X05784Y02926D01*
X0577Y0291D02*
X05779Y0292D01*
X0577Y0291D02*
X05779Y0292D01*
X05775Y02915D02*
X05784Y02907D01*
X05763Y02899D02*
Y02903D01*
X0577Y0291*
X05763Y02898D02*
X05775D01*
X05701Y0295D02*
X05707Y02944D01*
X05687Y0294D02*
X05698Y0295D01*
X05671D02*
X05713D01*
X05671D02*
Y02961D01*
X05656Y02947D02*
X0567Y02961D01*
X05702Y0294D02*
X05713Y0295D01*
X05682D02*
X05692Y0294D01*
X05656D02*
X05702D01*
X05656Y02956D02*
X05673Y0294D01*
X05668D02*
X05678Y0295D01*
X05624Y03007D02*
Y03026D01*
X05594Y03038D02*
X05624Y03008D01*
Y03007D02*
Y03026D01*
X05613Y03038D02*
X05624Y03027D01*
X05597Y03038D02*
X05624D01*
X05624Y03026D02*
Y03038D01*
X05581Y02989D02*
X05624Y03033D01*
X05574Y03038D02*
X05623Y02989D01*
X05601D02*
X05624Y03013D01*
X05555Y03038D02*
X05603Y02989D01*
X05554Y03001D02*
X05591Y03038D01*
X05572Y03D02*
X05611Y03038D01*
X05515Y03001D02*
X05552Y03038D01*
X05496Y03001D02*
X05539Y03045D01*
Y03038D02*
X05594D01*
X05495Y03014D02*
Y03047D01*
X05535Y03001D02*
X05572Y03038D01*
X05495Y03039D02*
X05533Y03001D01*
X05495Y0302D02*
X05514Y03001D01*
X05483D02*
X05495Y03014D01*
X05489Y03007D02*
X05494Y03001D01*
X0558Y02989D02*
X05593D01*
X05571Y03001D02*
X0558Y02992D01*
X05552Y03001D02*
X05571D01*
X05552D02*
X05571D01*
X0558Y02992*
X05513Y02963D02*
X0553Y02946D01*
X05493Y02963D02*
X0553Y02927D01*
X05523Y02924D02*
X0553D01*
Y02963*
X05506Y02907D02*
X05523Y02924D01*
X05483Y03001D02*
X05552D01*
X05458Y02963D02*
X0553D01*
X05474D02*
X05518Y02919D01*
X05458Y02931D02*
Y02963D01*
X054Y03001D02*
X0544D01*
X05458Y02944D02*
X05477Y02963D01*
X05458Y02959D02*
X05508Y02909D01*
X05441Y02914D02*
X05458Y02931D01*
X05419Y02914D02*
X05441D01*
X05399Y02913D02*
X05418D01*
X05399D02*
X05418D01*
X05775Y02891D02*
X05784Y02899D01*
X05763Y02898D02*
X05784Y02919D01*
X05775Y02895D02*
X05784Y02887D01*
X05775Y02879D02*
Y02898D01*
X05765Y02906D02*
X05773Y02898D01*
X05775Y02895*
X05779Y02876D02*
X05784Y0288D01*
X05775Y02879D02*
X05781Y02874D01*
X05784Y02871*
X05649Y02831D02*
Y02881D01*
X05634D02*
X05649Y02866D01*
X05775Y02879D02*
X05781Y02874D01*
X05615Y02881D02*
X05649Y02847D01*
X05573Y02881D02*
X05649D01*
X05602Y02815D02*
X05649Y02862D01*
X05581Y02834D02*
X05628Y02881D01*
X05572Y02844D02*
X05609Y02881D01*
X05559Y02859D02*
X05602Y02815D01*
X05595Y02881D02*
X05662Y02814D01*
X05576Y02881D02*
X05662Y02795D01*
X05621Y02815D02*
X05649Y02843D01*
X05581Y02814D02*
X05648Y02881D01*
X05568Y02869D02*
X05622Y02815D01*
X05723Y02831D02*
X05758Y02796D01*
X05712Y02831D02*
X05758D01*
X05743D02*
X05758Y02816D01*
X057Y02796D02*
X05734Y02831D01*
X057D02*
X05712D01*
X05758Y02795D02*
Y02831D01*
X05738Y02795D02*
X05758Y02815D01*
X05718Y02795D02*
X05754Y02831D01*
X05712Y02795D02*
X05758D01*
X057D02*
Y02831D01*
X05704D02*
X05739Y02795D01*
X057Y02816D02*
X05715Y02831D01*
X05649D02*
X05662D01*
X05645Y028D02*
X05662Y02817D01*
X05635Y02809D02*
X05656Y02831D01*
X05629Y02815D02*
X05646Y02798D01*
X05596Y02815D02*
X05629D01*
X057Y02795D02*
X05712D01*
X057Y02815D02*
X0572Y02795D01*
X05649D02*
X05662D01*
Y02831*
X05646Y02791D02*
X05649Y02788D01*
X05573Y02874D02*
Y02881D01*
X05556Y02857D02*
X05573Y02874D01*
X05523Y02857D02*
X05556D01*
X05506Y02874D02*
Y02907D01*
X05458Y0294D02*
X05506Y02892D01*
Y02874D02*
X05523Y02857D01*
X05561Y02852D02*
X05589Y02881D01*
X05541Y02852D02*
X05546Y02857D01*
X05541D02*
X05546Y02852D01*
X05488Y02838D02*
X05515Y02865D01*
X05467Y02836D02*
X05506Y02875D01*
X05507Y02838D02*
X05526Y02857D01*
X05432Y02859D02*
X0553Y02957D01*
X05412Y02859D02*
X05516Y02963D01*
X05446Y02854D02*
X0553Y02938D01*
X05446Y02854D02*
Y02859D01*
X05393D02*
X05497Y02963D01*
X05441Y02859D02*
X05446Y02855D01*
X05453Y02926D02*
X05529Y0285D01*
X05443Y02916D02*
X05519Y0284D01*
X05457Y02846D02*
X05506Y02895D01*
X05426Y02914D02*
X05502Y02838D01*
X05408Y02913D02*
X05484Y02836D01*
X05531Y02852D02*
X05564D01*
X05516Y02838D02*
X05531Y02852D01*
X05564D02*
X05581Y02835D01*
X05486Y02838D02*
X05505D01*
X05486D02*
X05505D01*
X05516*
X05581Y02817D02*
X05589Y02809D01*
X05581Y02802D02*
Y02835D01*
X05579Y02798D02*
X05596Y02815D01*
X05477Y02828D02*
X05486Y02838D01*
X05505Y028D02*
X05516D01*
X05459Y02844D02*
X05469Y02835D01*
X05449Y02854D02*
X05459Y02845D01*
X05459Y02844D02*
X05469Y02835D01*
X05446Y02854D02*
X05449D01*
X05446D02*
X05449D01*
X05459Y02845*
X05477Y02828D02*
X05486Y02838D01*
X05469Y02832D02*
X05475Y02826D01*
X05469Y0282D02*
X05477Y02828D01*
X05469Y0282D02*
Y02835D01*
Y0282D02*
Y02835D01*
X05367Y03029D02*
X05387Y03049D01*
Y03011D02*
X05395Y03003D01*
X05372Y03014D02*
X05387Y03029D01*
X05369Y03029D02*
X05372Y03026D01*
X05387Y03011*
Y03003D02*
X05439D01*
X05372Y02994D02*
X05387Y0301D01*
X05372Y02993D02*
X05381Y03001D01*
X05372Y03007D02*
X05379Y03D01*
X05372Y02993D02*
Y03029D01*
Y02993D02*
X05381Y03001D01*
X05361Y03037D02*
X05369Y03029D01*
X05361D02*
Y03046D01*
Y03029D02*
X05372D01*
X05323D02*
Y03046D01*
X05312Y03029D02*
X05323D01*
X05244D02*
X05304D01*
Y03016D02*
X05312Y03008D01*
X05304Y03024D02*
X05323Y03043D01*
X05304Y03005D02*
X05312Y03012D01*
X05304Y02975D02*
Y03029D01*
X05312Y02975D02*
Y03029D01*
X05381Y03001D02*
X054D01*
X05381D02*
X054D01*
X05387Y02951D02*
X05391D01*
X05304Y02985D02*
X05312Y02993D01*
X05304Y02996D02*
X05312Y02989D01*
X05304Y02975D02*
X05312D01*
X05391Y02951D02*
Y02954D01*
X05387Y02951D02*
X05391Y02954D01*
X05303Y02937D02*
X05309D01*
X05302Y0293D02*
X05309Y02937D01*
X05302Y0293D02*
X05309Y02937D01*
X05296Y0293D02*
X05302D01*
X05262Y02961D02*
X05266Y02957D01*
X05251Y02951D02*
X0526Y02961D01*
X05251D02*
X05269D01*
X05251Y0295D02*
Y02961D01*
Y0295D02*
Y02961D01*
Y02953D02*
X05256Y02947D01*
X05296Y0293D02*
X05303Y02937D01*
X05247Y02939D02*
X05269Y02961D01*
X05296Y0293D02*
X05302D01*
X05241Y02941D02*
X05251Y0295D01*
X05241Y02941D02*
X05251Y0295D01*
X05244Y03023D02*
X0525Y03029D01*
X05233Y0301D02*
X05244D01*
X05233D02*
X05244D01*
X05199Y03043D02*
X05213Y03029D01*
X05189Y03034D02*
X05194Y03029D01*
X05186D02*
X0523D01*
X05244Y0301D02*
Y03029D01*
X0523Y03009D02*
X05244Y03023D01*
X0523Y03007D02*
X05233Y0301D01*
X0523Y03012D02*
X05233Y03009D01*
X0523Y03007D02*
Y03029D01*
Y03007D02*
X05233Y0301D01*
X05114Y03029D02*
Y03045D01*
X0509Y03024D02*
X05114Y03048D01*
X05103Y03029D02*
X05114D01*
X0509Y03035D02*
X05103Y03023D01*
Y02976D02*
Y03029D01*
X0509Y03005D02*
X05103Y03018D01*
X0509Y03016D02*
X05103Y03003D01*
X05075Y0299D02*
X05088Y03003D01*
X05131Y02948D02*
X05144Y02961D01*
X05131Y02948D02*
X05143Y02961D01*
X05118D02*
X05144D01*
X05121Y02958D02*
X05124Y02961D01*
X05099Y0298D02*
X05103Y02976D01*
X05126Y02961D02*
X05135Y02952D01*
X05242Y02942D02*
X05246Y02937D01*
X05239Y0293D02*
X05247Y02939D01*
X05233Y0293D02*
X05239D01*
X05118Y02961D02*
X05131Y02948D01*
X05233Y0293D02*
X05239D01*
X0507Y0299D02*
X05089D01*
X05026Y03003D02*
X0509D01*
X0507Y0299D02*
X05089D01*
X05064Y03003D02*
X05077Y0299D01*
X05055D02*
X05068Y03003D01*
X05021Y0299D02*
X0507D01*
X05092Y02987D02*
X05103Y02998D01*
X05084Y03003D02*
X05103Y02984D01*
X05089Y0299D02*
X05099Y0298D01*
X05089Y0299D02*
X05099Y0298D01*
X05021Y02952D02*
X0507D01*
X05375Y02881D02*
X05407Y02913D01*
X05375Y02861D02*
X05428Y02914D01*
X05375Y02886D02*
X05402Y02859D01*
X05375Y029D02*
X05387Y02913D01*
X05375Y02859D02*
Y02913D01*
X05399*
X05388D02*
X05441Y02859D01*
X05375Y02906D02*
X05422Y02859D01*
X05375D02*
X05446D01*
X05375Y02867D02*
X05383Y02859D01*
X05369Y02855D02*
X05375Y02861D01*
X05371Y02828D02*
Y02855D01*
X05368D02*
X05371Y02852D01*
X05327Y02855D02*
X05344D01*
X05371*
X05239Y0293D02*
X05247Y02939D01*
X05231Y0293D02*
X05241Y02941D01*
X05327Y02855D02*
X05344D01*
X05337Y02823D02*
X05369Y02855D01*
X05329D02*
X05361Y02823D01*
X05348Y02855D02*
X05371Y02832D01*
X05289Y02834D02*
X0531Y02855D01*
X05317Y02823D02*
X05349Y02855D01*
X05371Y02823D02*
Y02828D01*
X05356Y02823D02*
X05371Y02837D01*
Y02823D02*
Y02828D01*
X05296Y02855D02*
X05312D01*
X05296D02*
X05312D01*
X05327*
X05309D02*
X05341Y02823D01*
X05298D02*
X0533Y02855D01*
X05289Y02823D02*
X05371D01*
X0529Y02855D02*
X05322Y02823D01*
X05289Y02836D02*
X05302Y02823D01*
X05283Y02847D02*
X05291Y02855D01*
X05281D02*
X05296D01*
X05289Y02823D02*
Y0284D01*
X05275Y02855D02*
X05281D01*
X05275D02*
X05281D01*
X05275D02*
X05289Y0284D01*
X05267Y02785D02*
X05285D01*
X05267D02*
X05285D01*
X05332*
X05196Y02825D02*
X05202Y0282D01*
X05262Y0279D02*
X05267Y02785D01*
X05138Y02855D02*
X05155D01*
X05107Y02859D02*
Y02874D01*
X05138Y02855D02*
X05155D01*
X05107Y02909D02*
Y02915D01*
X05101Y02868D02*
X05107Y02862D01*
X051Y02859D02*
X05107Y02866D01*
X05153Y02855D02*
X05183Y02825D01*
X05111Y02792D02*
X05174Y02855D01*
X05186D02*
X05201D01*
X05134D02*
X05164Y02825D01*
X05107Y02862D02*
X05114Y02855D01*
X05155D02*
X0517D01*
X05088Y02925D02*
X05092Y02929D01*
X05057Y02925D02*
X0509D01*
X05099Y02917D02*
X05102Y0292D01*
X05057Y02952D02*
X05083Y02925D01*
X05037Y02952D02*
X05064Y02925D01*
X05069D02*
X05083Y02939D01*
X0509Y02925D02*
X05107Y02909D01*
X0507Y02952D02*
X05107Y02915D01*
X05093Y02859D02*
X05107D01*
X05021Y02897D02*
X05073Y02949D01*
X05093Y0286D02*
X05107Y02874D01*
X05192Y02855D02*
X05202Y02846D01*
X05173Y02855D02*
X05202Y02826D01*
X05183Y02825D02*
X05202Y02844D01*
X0517Y02855D02*
X05186D01*
X0517D02*
X05186D01*
X05163Y02825D02*
X05196D01*
X05202Y0282D02*
Y02853D01*
X05164Y02825D02*
X05193Y02855D01*
X05146Y02807D02*
X05164Y02825D01*
X05146Y02808D02*
X05163Y02825D01*
X05146Y02786D02*
Y02808D01*
X05114Y02855D02*
X05153Y02816D01*
X05111Y02855D02*
X05138D01*
X05111Y02812D02*
X05154Y02855D01*
X05111Y02851D02*
X05115Y02855D01*
X05111Y02828D02*
Y02855D01*
Y02831D02*
X05135Y02855D01*
X05111Y02812D02*
Y02828D01*
Y02838D02*
X05146Y02804D01*
X05111Y02819D02*
X05145Y02785D01*
X05111Y02812D02*
Y02828D01*
Y02796D02*
Y02812D01*
X05027Y03312D02*
X05037Y03323D01*
X05017D02*
X05028Y03312D01*
X05046D02*
X05057Y03323D01*
X04903Y03343D02*
X04956D01*
X04903Y03342D02*
X04956D01*
X04984Y03314D02*
X04993Y03323D01*
X05007Y03312D02*
X05018Y03323D01*
X04998D02*
X05008Y03312D01*
X05037Y03323D02*
X05047Y03312D01*
X04988D02*
X04998Y03323D01*
X04986Y03315D02*
X04989Y03312D01*
X04929Y03274D02*
X04964Y03239D01*
X0486Y03304D02*
X04867Y03298D01*
X04838Y03378D02*
X04842Y03383D01*
X048Y03304D02*
X04873D01*
X04838Y03345D02*
X0484Y03342D01*
X04823D02*
X04838Y03357D01*
X048Y03342D02*
X0484D01*
X04841Y03304D02*
X04857Y03288D01*
X04827Y03268D02*
X04863Y03304D01*
X04837Y03268D02*
X04872Y03302D01*
X04807Y03268D02*
X04844Y03304D01*
X04821D02*
X04847Y03278D01*
X04993Y03239D02*
X05028Y03274D01*
X04974Y03239D02*
X05008Y03274D01*
X05005Y03232D02*
X05047Y03274D01*
X04964Y03239D02*
X04997D01*
X04949Y03274D02*
X04983Y03239D01*
X04964D02*
X04997D01*
X05014Y03222D01*
X04997Y03239D02*
X05014Y03222D01*
X04947D02*
X04964Y03239D01*
X0491Y03274D02*
X04954Y0323D01*
X04895Y03269D02*
X04944Y0322D01*
X04947Y03222D02*
X04964Y03239D01*
X04885Y03259D02*
X04935Y0321D01*
X04865Y03239D02*
X049Y03274D01*
X04856Y0323D02*
X04865Y03239D01*
X04856Y0323D02*
X04865Y03239D01*
X04837Y0323D02*
X04856D01*
X04837D02*
X04856D01*
X04876Y0325D02*
X04925Y032D01*
X04874Y03198D02*
X0495Y03274D01*
X04866Y0324D02*
X04908Y03198D01*
X04856Y0323D02*
X04888Y03198D01*
X04837Y0323D02*
X04869Y03198D01*
X04821Y03383D02*
X04838Y03365D01*
X04801Y03383D02*
X04838Y03346D01*
Y03345D02*
Y03378D01*
X04784Y03342D02*
X04825Y03383D01*
X04782D02*
X04822Y03342D01*
X04804D02*
X04838Y03376D01*
X04781Y03342D02*
X048D01*
X04762Y03383D02*
X04803Y03342D01*
X04781D02*
X048D01*
X04771Y03333D02*
X04781Y03342D01*
X04771Y03333D02*
X04781Y03342D01*
X04759Y0332D02*
X04771Y03333D01*
X04748Y03364D02*
X04766Y03383D01*
X04743D02*
X04783Y03342D01*
X04757Y03354D02*
X04786Y03383D01*
X04734Y0337D02*
X04747Y03383D01*
X04723D02*
X04736Y0337D01*
X04741D02*
X04758Y03353D01*
Y0332D02*
Y03353D01*
Y03336D02*
X04805Y03383D01*
X04758Y03348D02*
X04772Y03334D01*
X04802Y03304D02*
X04837Y03268D01*
X04787Y03292D02*
X048Y03304D01*
X04778Y03282D02*
X04787Y03292D01*
X04778Y03282D02*
X04787Y03292D01*
X04759Y03282D02*
X04778D01*
X04759D02*
X04778D01*
X04788Y03268D02*
X04824Y03304D01*
X04768Y03268D02*
X04805Y03304D01*
X04791Y03295D02*
X04819Y03268D01*
X04781Y03286D02*
X04799Y03268D01*
X04765Y03282D02*
X0478Y03268D01*
X04758Y03328D02*
X04762Y03324D01*
X04749Y03268D02*
X04763Y03282D01*
X04746D02*
X0476Y03268D01*
X04729D02*
X04744Y03282D01*
X04726D02*
X04741Y03268D01*
X04717Y03216D02*
X0473Y0323D01*
X04758Y03199D02*
X04789Y0323D01*
X04749Y03209D02*
X04769Y0323D01*
X04741Y03216D02*
X04758Y03199D01*
X0472Y0323D02*
X04734Y03216D01*
X04736D02*
X0475Y0323D01*
X05014Y03189D02*
Y03222D01*
X04997Y03172D02*
X05014Y03189D01*
X05005Y03179D02*
X05055Y03129D01*
X05014Y03189D02*
Y03222D01*
X04997Y03172D02*
X05014Y03189D01*
X04973Y03147D02*
X04997Y03172D01*
X04995Y03169D02*
X05035Y03129D01*
X04985Y0316D02*
X05026Y03118D01*
Y03074D02*
Y03129D01*
X04975Y0315D02*
X05026Y03099D01*
X04969Y03133D02*
X04973Y03128D01*
X0499*
X04913Y03198D02*
X04989Y03274D01*
X04893Y03198D02*
X04969Y03274D01*
X04922Y03198D02*
X04947Y03222D01*
X04854Y03198D02*
X0493Y03274D01*
X04835Y03198D02*
X04911Y03274D01*
X04821Y03198D02*
X04922D01*
X04966Y0314D02*
X04977Y03128D01*
X04964Y03138D02*
X04973Y03147D01*
X04969Y03133D02*
X04973Y03128D01*
X04964Y03138D02*
X04973Y03147D01*
X04964Y03138D02*
X04969Y03133D01*
X05026Y03079D02*
X05032Y03074D01*
X0499Y03116D02*
X05026Y03079D01*
X05026Y03058D02*
X05042Y03074D01*
X0499Y0308D02*
X05026Y03117D01*
X0499Y0306D02*
Y03128D01*
X0493Y0306D02*
Y03111D01*
X0499Y03077D02*
X05026Y0304D01*
X0499Y03097D02*
X05028Y03058D01*
X05032Y03074D02*
X05048Y03058D01*
X04955Y03026D02*
X05026Y03097D01*
X04968Y03019D02*
X05026Y03078D01*
X04922Y03106D02*
X0493Y03098D01*
X04922Y03111D02*
X0493D01*
X04922Y03086D02*
X0493Y03079D01*
X04922Y0309D02*
X0493Y03098D01*
X04922Y0306D02*
Y03111D01*
Y03071D02*
X0493Y03078D01*
X04811Y03052D02*
X04862Y03104D01*
X04835Y03076D02*
X04885Y03026D01*
X04815Y03198D02*
X04847Y0323D01*
X04798D02*
X0483Y03198D01*
X04818Y0323D02*
X04849Y03198D01*
X04796D02*
X04828Y0323D01*
X04788Y03198D02*
X04821D01*
X04788D02*
X04821D01*
X04779Y0323D02*
X0481Y03198D01*
X04759Y0323D02*
X04791Y03198D01*
X04771Y03181D02*
X04788Y03198D01*
X04771Y03181D02*
X04788Y03198D01*
X04758Y03168D02*
Y03199D01*
Y03168D02*
X04771Y03181D01*
X04758Y0318D02*
X04808Y0323D01*
X0474D02*
X0478Y0319D01*
X04758Y03192D02*
X0477Y0318D01*
X04741Y03149D02*
X04758Y03166D01*
X04739Y03149D02*
X04758Y03168D01*
X04716Y03149D02*
X04739D01*
X04716Y03131D02*
Y03149D01*
Y03137D02*
X04727Y03149D01*
X04821Y03131D02*
X04832D01*
X0482Y0313D02*
X04826Y03124D01*
X04854Y03096D02*
X04862Y03088D01*
X04811Y0312D02*
X04816Y03114D01*
X04801Y0311D02*
X04806Y03105D01*
X04791Y031D02*
X04796Y03095D01*
X04862Y0306D02*
Y03104D01*
X04811Y03037D02*
X04862Y03089D01*
X04844Y03086D02*
X04862Y03068D01*
X04782Y03081D02*
X04832Y03131D01*
X04781Y03091D02*
X04787Y03085D01*
X04772Y03081D02*
X04821Y03131D01*
X04721Y03131D02*
X04739Y03149D01*
X04772Y03081D02*
X04777Y03075D01*
X04723Y03149D02*
X04731Y03141D01*
X04716Y03137D02*
X04721Y03131D01*
X04716Y03131D02*
X04721D01*
X04773Y03071D02*
X04782Y03081D01*
X04741Y03045D02*
X04826Y03131D01*
X04773Y03071D02*
X04782Y03081D01*
X04755Y03064D02*
X04772Y03081D01*
X04755Y03064D02*
X04772Y03081D01*
X04715Y0337D02*
X04727Y03383D01*
X04704D02*
X04716Y0337D01*
X04708D02*
X04741D01*
X04684Y03383D02*
X04702Y03365D01*
X04665Y03383D02*
X04692Y03355D01*
X04691Y03353D02*
X04708Y0337D01*
X04665Y03321D02*
X04691Y03346D01*
X04646Y03321D02*
X04708Y03383D01*
X04691Y0332D02*
Y03353D01*
X04685Y03321D02*
X04691Y03327D01*
X04669Y03321D02*
X04688D01*
X04627D02*
X04688Y03383D01*
X04626D02*
X04687Y03321D01*
X04645Y03383D02*
X04691Y03337D01*
X04606Y03383D02*
X04668Y03321D01*
X04588D02*
X04649Y03383D01*
X04607Y03321D02*
X04669Y03383D01*
X04568Y03321D02*
X0463Y03383D01*
X04567D02*
X04629Y03321D01*
X04587Y03383D02*
X04648Y03321D01*
X04548Y03383D02*
X0461Y03321D01*
X04549D02*
X0461Y03383D01*
X0469Y03268D02*
X04705Y03282D01*
X0467D02*
X04689D01*
X04759*
X04669Y03321D02*
X04688D01*
X04656Y03272D02*
X04666Y03283D01*
X0467Y03282D02*
X04689D01*
X0471Y03268D02*
X04724Y03282D01*
X04707D02*
X04721Y03268D01*
X0466D02*
X04837D01*
X04671D02*
X04685Y03282D01*
X04667Y03283D02*
X04682Y03268D01*
X04687Y03282D02*
X04702Y03268D01*
X04645Y03283D02*
X04669D01*
X04553Y03321D02*
X04669D01*
X04648Y03283D02*
X04663Y03268D01*
X04645Y03283D02*
X0466Y03268D01*
X04608Y03263D02*
X0461Y03261D01*
X04599Y03263D02*
X04608D01*
X04606Y03261D02*
X0461D01*
X04605D02*
X04607Y03263D01*
X04606Y03261D02*
X0461D01*
X04599Y03263D02*
X04601Y03261D01*
X04606*
X04509Y03383D02*
X04571Y03321D01*
X04489Y03383D02*
X04551Y03321D01*
X04528Y03383D02*
X0459Y03321D01*
X0445Y03383D02*
X04523Y0331D01*
X04431Y03383D02*
X04514Y033D01*
X0447Y03383D02*
X04533Y03319D01*
X04451Y03262D02*
X04571Y03383D01*
X04431Y03262D02*
X04552Y03383D01*
X0447Y03262D02*
X04591Y03383D01*
X04411D02*
X04504Y0329D01*
X04392Y03262D02*
X04513Y03383D01*
X04412Y03262D02*
X04532Y03383D01*
X04372D02*
X04484Y03271D01*
X04353Y03262D02*
X04474Y03383D01*
X04392D02*
X04494Y0328D01*
X04275Y0332D02*
X04337Y03383D01*
X04275Y0334D02*
X04318Y03383D01*
X04275Y03301D02*
X04357Y03383D01*
X04353D02*
X04474Y03262D01*
X04334D02*
X04454Y03383D01*
X04373Y03262D02*
X04493Y03383D01*
X04314Y03262D02*
X04435Y03383D01*
X04333D02*
X04454Y03262D01*
X04534Y03321D02*
X04553D01*
X04525Y03311D02*
X04534Y03321D01*
X04553*
X04525Y03311D02*
X04534Y03321D01*
X04475Y03262D02*
X04525Y03311D01*
X04327Y03262D02*
X04475D01*
X04314Y03383D02*
X04435Y03262D01*
X04294Y03383D02*
X04415Y03262D01*
X04308D02*
X04327D01*
X04299Y03252D02*
X04308Y03262D01*
X04327*
X04275Y03281D02*
X04376Y03383D01*
X04275Y03359D02*
X04298Y03383D01*
X04275D02*
X04396Y03262D01*
X04275Y03276D02*
Y03369D01*
X04269D02*
X04275Y03363D01*
X0427Y03276D02*
X04275Y03281D01*
Y03344D02*
X04357Y03262D01*
X04275Y03363D02*
X04376Y03262D01*
X04275Y03324D02*
X04337Y03262D01*
X04275Y03305D02*
X04318Y03262D01*
X04275Y03285D02*
X04303Y03257D01*
X04701Y0323D02*
X04714Y03217D01*
X04681Y0323D02*
X04694Y03217D01*
X0466Y0323D02*
X04837D01*
X04656D02*
X0466D01*
X04656D02*
X0466D01*
X04678Y03217D02*
X04691Y0323D01*
X04662D02*
X04675Y03217D01*
X04659D02*
X04672Y0323D01*
X04698Y03217D02*
X04711Y0323D01*
X04656Y03217D02*
Y03229D01*
X04516Y03217D02*
Y03245D01*
X04656Y03217D02*
Y03229D01*
X04513Y03242D02*
X04516Y03239D01*
X04504Y03233D02*
X04516Y03245D01*
X04494Y03224D02*
X04504Y03233D01*
X04494Y03224D02*
X04504Y03233D01*
X0449Y03224D02*
X04494D01*
X0449D02*
X04494D01*
X04503Y03232D02*
X04516Y0322D01*
X045Y03214D02*
X04516Y03229D01*
X04492Y03224D02*
X04509Y03207D01*
X0449Y03224D02*
X04493Y0322D01*
X0449Y03224D02*
X04493Y0322D01*
X04659Y03217D02*
X04666D01*
X04659D02*
X04666D01*
X04716*
X04606Y03223D02*
X04612Y03217D01*
X04601Y03223D02*
X04606D01*
X04595Y03217D02*
X04609D01*
X04716Y03216D02*
X04741D01*
X04708D02*
X04716D01*
X04595Y03217D02*
X04601Y03223D01*
X046Y03217D02*
X04606Y03222D01*
X04509Y03204D02*
Y03217D01*
X04516*
X04498Y03215D02*
X04509Y03204D01*
X04498Y03215D02*
X04509Y03204D01*
X04493Y0322D02*
X04498Y03215D01*
X04465Y03086D02*
X0447Y03081D01*
X04441Y031D02*
X04509Y03031D01*
X04421Y031D02*
X04509Y03012D01*
X0447Y03081D02*
X04487Y03064D01*
X0447Y03081D02*
X04487Y03064D01*
X04454Y03051D02*
X04477Y03074D01*
X04351Y0317D02*
X04363Y03158D01*
X04347Y0317D02*
X04363D01*
X04331Y03143D02*
X04359Y0317D01*
X04331Y03154D02*
X04347Y0317D01*
X0434Y03162D02*
X04363Y03138D01*
Y031D02*
Y0317D01*
X04331Y03151D02*
X04363Y03119D01*
X04331Y03134D02*
Y03154D01*
Y03134D02*
Y03154D01*
X04314Y03117D02*
X04331Y03134D01*
X04299Y03252D02*
X04308Y03262D01*
X04285Y03252D02*
X04415Y03383D01*
X04277Y03214D02*
X04291D01*
X04281Y03204D02*
X04291Y03214D01*
X04277Y03205D02*
X04286Y03214D01*
X04277Y03205D02*
X04279Y03203D01*
X04277Y032D02*
X04281Y03204D01*
X04273Y03065D02*
X04363Y03155D01*
X04273Y03045D02*
X04363Y03136D01*
X04277Y032D02*
Y03214D01*
Y032D02*
X04281Y03204D01*
X04451Y031D02*
X04465Y03086D01*
X04451Y031D02*
X04465Y03086D01*
X04436Y03053D02*
X04467Y03083D01*
X04402Y031D02*
X04449Y03053D01*
X04363Y031D02*
X04451D01*
X04417Y03053D02*
X04457Y03093D01*
X04382Y031D02*
X04429Y03053D01*
X04378D02*
X04425Y031D01*
X04397Y03053D02*
X04444Y031D01*
X0433Y03133D02*
X0441Y03053D01*
X04323Y03018D02*
X04405Y031D01*
X0432Y03123D02*
X0439Y03053D01*
X04314Y03117D02*
X04331Y03134D01*
X04307Y03117D02*
X04371Y03053D01*
X04281Y03117D02*
X04314D01*
X04281D02*
X04314D01*
X04273Y03084D02*
X04306Y03117D01*
X04308Y03041D02*
X04366Y031D01*
X0429Y03043D02*
X04363Y03116D01*
X04318Y03032D02*
X04386Y031D01*
X04287Y03117D02*
X04363Y03041D01*
X04273Y03043D02*
Y03084D01*
X04987Y0306D02*
X05026Y03021D01*
X0493Y0306D02*
X0499D01*
X04962Y03026D02*
X04971Y03016D01*
X04935Y03026D02*
X0497Y0306D01*
X04962Y03026D02*
X04971Y03016D01*
X05026Y03003D02*
Y03058D01*
X04967Y0306D02*
X05038Y0299D01*
X04971Y03003D02*
X05026Y03058D01*
X04948Y0306D02*
X05006Y03002D01*
X04922Y03067D02*
X04986Y03002D01*
X0499D02*
X05026Y03039D01*
X04909Y0306D02*
X04944Y03026D01*
X04896D02*
X04931Y0306D01*
X04916Y03026D02*
X04951Y0306D01*
X04862D02*
X04922D01*
X04862Y03068D02*
X0487Y0306D01*
X04889D02*
X04924Y03026D01*
X04877D02*
X04912Y0306D01*
X0487D02*
X04905Y03026D01*
X04821D02*
X04943D01*
X04838D02*
X04873Y0306D01*
X04857Y03026D02*
X04892Y0306D01*
X05021Y02994D02*
X05029Y03003D01*
X0501Y03002D02*
X05026Y03019D01*
X04971Y03002D02*
X05021D01*
X04971D02*
Y03016D01*
Y03002D02*
Y03016D01*
X05021Y0299D02*
Y03002D01*
X05045Y03003D02*
X05058Y0299D01*
X05021Y02916D02*
X05056Y02952D01*
X05021Y02949D02*
X0505Y02919D01*
X05036Y0299D02*
X05049Y03003D01*
X05021Y02936D02*
X05037Y02952D01*
X05021Y02939D02*
Y02952D01*
X04943Y03026D02*
X04962D01*
X04943D02*
X04962D01*
X04884Y0298D02*
Y02988D01*
X04881Y02983D02*
Y02988D01*
X04865Y02942D02*
X04872Y02935D01*
X04865Y02942D02*
X04872Y02935D01*
X04881Y02913D02*
X04884Y02915D01*
X04881Y02933D02*
X04884Y0293D01*
X04881Y02913D02*
X04884Y0291D01*
X04865Y02935D02*
X04868Y02939D01*
X04831Y02935D02*
X04872D01*
X04773Y03052D02*
Y03071D01*
X04762D02*
X04773Y0306D01*
Y03052D02*
Y03071D01*
X0473Y03064D02*
X04749Y03045D01*
X04721Y03064D02*
X04755D01*
X0476Y03045D02*
X04773Y03058D01*
X04825Y03066D02*
X04866Y03026D01*
X04818D02*
X04862Y03069D01*
X04815Y03057D02*
X04846Y03026D01*
X04811D02*
Y03052D01*
X0475Y03064D02*
X04773Y03041D01*
Y03036D02*
Y03052D01*
X04711Y03064D02*
X04729Y03045D01*
X04708Y03032D02*
X0474Y03064D01*
X04721D02*
X04755D01*
X04691D02*
X0472Y03035D01*
X04672Y03064D02*
X04703Y03032D01*
X04689D02*
X0472Y03064D01*
X04652D02*
X04684Y03032D01*
X0465D02*
X04681Y03064D01*
X04669Y03032D02*
X04701Y03064D01*
X0463Y03032D02*
X04662Y03064D01*
X04633D02*
X04664Y03032D01*
X04811Y03026D02*
X04821D01*
X04811Y03042D02*
X04827Y03026D01*
X04831Y02943D02*
X04864D01*
X04763Y03045D02*
X04773Y03036D01*
X0473Y03045D02*
X04763D01*
X04811Y03026D02*
X04821D01*
X04845Y02935D02*
X04853Y02943D01*
X04832D02*
X04839Y02935D01*
X04851Y02943D02*
X04859Y02935D01*
X04831D02*
Y02943D01*
Y0294D02*
X04833Y02943D01*
X04716Y03031D02*
X0473Y03045D01*
X04666Y03032D02*
X04716D01*
X04713Y03028D02*
X04716Y03031D01*
X04659Y03032D02*
X04666D01*
X04616D02*
X04659D01*
X04666*
X04665Y02934D02*
X04668Y02931D01*
X04656Y02922D02*
X04668Y02934D01*
X04656Y02923D02*
X04668Y02911D01*
X04659Y02934D02*
X04666D01*
X04659D02*
X04666D01*
X0504Y02908D02*
X05057Y02925D01*
X05021Y02929D02*
X05041Y02909D01*
X05021Y0291D02*
X0504Y02891D01*
X05021Y02877D02*
X0504Y02896D01*
X05021Y02876D02*
Y02939D01*
X05006Y02876D02*
X05021D01*
X0504Y02875D02*
Y02908D01*
X05021Y0289D02*
X05052Y02859D01*
X05021Y02857D02*
X0504Y02877D01*
X05011Y02867D02*
X0502Y02876D01*
X05006Y02872D02*
Y02876D01*
X05015D02*
X05036Y02855D01*
X04953Y0288D02*
X04957Y02876D01*
X04951Y02882D02*
X04953Y0288D01*
Y02876D02*
X04968D01*
X04951Y02893D02*
X04953Y0289D01*
X04951Y02893D02*
X04953Y0289D01*
X04951Y02885D02*
X04953Y02888D01*
X04968Y02872D02*
Y02876D01*
X04957D02*
X04968Y02865D01*
X04937Y02876D02*
X04977Y02836D01*
X04953Y02876D02*
Y0289D01*
X04918Y02876D02*
X04958Y02836D01*
X05042Y02859D02*
X05049Y02866D01*
X0504Y02875D02*
X05055Y0286D01*
X05036Y02859D02*
X05055D01*
X05036Y02842D02*
Y02859D01*
Y02854D02*
X05042Y02859D01*
X0503Y02848D02*
X05036Y02854D01*
X05006Y02872D02*
X05036Y02842D01*
X05Y02798D02*
X05012Y02809D01*
X05027Y02794D02*
X05036Y02785D01*
X04983Y02836D02*
X05Y02819D01*
Y02786D02*
Y02819D01*
X0498Y02836D02*
X04982Y02839D01*
X04968Y02853D02*
X04978Y02843D01*
X0495Y02836D02*
X04983D01*
X04968Y02853D02*
Y02872D01*
Y02853D02*
Y02872D01*
Y02853D02*
X04978Y02843D01*
X05027Y02794*
X0496Y02836D02*
X04973Y02848D01*
X04881Y02893D02*
X04884Y02896D01*
Y02876D02*
Y02933D01*
X04881Y02894D02*
X04884Y02891D01*
X04811Y02881D02*
X04813Y02884D01*
X04951Y02876D02*
Y02893D01*
X04828Y02821D02*
X04884Y02876D01*
Y02876D02*
X04951D01*
X04881Y02875D02*
Y02933D01*
X04813Y02875D02*
Y0289D01*
Y02884D02*
X04821Y02875D01*
X04668Y02898D02*
Y02934D01*
X0466Y02906D02*
X04668Y02915D01*
X04811Y02892D02*
X04813Y0289D01*
X04656Y0291D02*
Y02934D01*
X04618Y02909D02*
Y02934D01*
X04656Y0291D02*
X04668Y02898D01*
X04811Y02892D02*
X04813Y0289D01*
X04811Y02866D02*
Y02892D01*
Y02886D02*
X04813Y02884D01*
X04706Y02855D02*
Y02934D01*
X04708Y02829D02*
Y02934D01*
X04898Y02876D02*
X04944Y02831D01*
X04828Y0284D02*
X04863Y02875D01*
X04818Y0285D02*
X04844Y02875D01*
X04814Y02854D02*
Y02863D01*
Y02854D02*
Y02863D01*
Y02854D02*
X04828Y02839D01*
X04933Y02819D02*
X0495Y02836D01*
X0488Y02875D02*
X04934Y02821D01*
X04933Y02786D02*
Y02819D01*
X0486Y02875D02*
X04933Y02803D01*
X04828Y02806D02*
Y02839D01*
X04813Y02875D02*
X04881D01*
X04813Y02864D02*
X04824Y02875D01*
X04811Y02866D02*
X04814Y02863D01*
X04811Y02866D02*
X04814Y02863D01*
X04706Y02836D02*
Y02855D01*
Y02836D02*
Y02855D01*
X04811Y02789D02*
X04828Y02806D01*
X04705Y02827D02*
X04708Y02829D01*
X04778Y02789D02*
X04811D01*
X04705Y02834D02*
X04708Y02837D01*
X04705Y02827D02*
Y02835D01*
X04613Y03064D02*
X04645Y03032D01*
X04611D02*
X04642Y03064D01*
X0452D02*
X04721D01*
X04591Y03032D02*
X04623Y03064D01*
X04574D02*
X04606Y03032D01*
X04594Y03064D02*
X04625Y03032D01*
X04555Y03064D02*
X04586Y03032D01*
X04553D02*
X04584Y03064D01*
X04572Y03032D02*
X04603Y03064D01*
X04533Y03032D02*
X04564Y03064D01*
X04516D02*
X04547Y03032D01*
X04535Y03064D02*
X04567Y03032D01*
X04487Y03064D02*
X0452D01*
X04487D02*
X0452D01*
X04514Y03032D02*
X04545Y03064D01*
X04455Y03033D02*
X04487Y03064D01*
X04454Y03033D02*
X04471D01*
X04454D02*
X04471D01*
X04483Y03021D02*
X04525Y03064D01*
X04473Y03031D02*
X04506Y03064D01*
X04496D02*
X04528Y03032D01*
X04471Y03033D02*
X04483Y03021D01*
X04471Y03033D02*
X04483Y03021D01*
X04609Y03032D02*
X04616D01*
X04566D02*
X04609D01*
X04616*
X04559D02*
X04566D01*
X04509Y03028D02*
X04514Y03032D01*
X04559D02*
X04566D01*
X04609Y02934D02*
X04616D01*
X04566D02*
X04609D01*
X04616*
X04559D02*
X04566D01*
X04509Y03007D02*
Y03032D01*
X04559Y02934D02*
X04566D01*
X04509Y03032D02*
X04559D01*
X04493Y03012D02*
X04509Y03028D01*
X04497Y03007D02*
X04509D01*
X04501Y0296D02*
X04505Y02955D01*
X04483Y03021D02*
X04497Y03007D01*
X04501Y0296D02*
X04509D01*
Y02938D02*
Y0296D01*
X04503D02*
X04509Y02953D01*
X04505Y02946D02*
X04509Y0295D01*
X04505Y02938D02*
Y02955D01*
Y02938D02*
X04509D01*
X04449Y03053D02*
X04454Y03047D01*
X04363Y03053D02*
X04454D01*
Y03047D02*
X04469Y03033D01*
X04454D02*
Y03053D01*
X04323Y02998D02*
X04363Y03038D01*
X04323Y02993D02*
Y03026D01*
X04454Y02972D02*
Y02978D01*
X04323Y03003D02*
X0437Y02956D01*
X04454Y02978D02*
X0446Y02972D01*
X04363Y02965D02*
Y03053D01*
X04323Y03023D02*
X04363Y02982D01*
X04319Y02988D02*
X04353Y02954D01*
X04306Y03043D02*
X04323Y03026D01*
X04273Y03043D02*
X04306D01*
Y02976D02*
X04323Y02993D01*
X04273Y03053D02*
X04283Y03043D01*
X04273Y03073D02*
X04303Y03043D01*
X04289Y02976D02*
X04306D01*
X04304Y0294D02*
X04363Y02999D01*
X04294Y02949D02*
X04363Y03019D01*
X04313Y0293D02*
X04363Y0298D01*
X04309Y02978D02*
X04343Y02944D01*
X04292Y02976D02*
X04338Y0293D01*
X04455Y02972D02*
X0446D01*
X04454Y02973D02*
X04457Y02976D01*
X04447Y02965D02*
X04454Y02972D01*
X04439Y02965D02*
X04443Y02961D01*
X04438Y02955D02*
X04447Y02965D01*
X04433D02*
X04447D01*
X04433Y02947D02*
Y02965D01*
Y02952D02*
X04446Y02965D01*
X04433Y02952D02*
X04438Y02947D01*
X04433Y02947D02*
Y02965D01*
X04421Y02935D02*
X04433Y02947D01*
X04284Y02959D02*
X04301Y02976D01*
X04284Y02971D02*
X04289Y02976D01*
X04363Y02965D02*
X04379D01*
X04284Y02971D02*
X04289Y02976D01*
X04272Y02971D02*
X04284D01*
X04272D02*
X04284D01*
X04369Y02955D02*
X04379Y02965D01*
X04355Y02955D02*
X04369D01*
X04421Y02935D02*
X04433Y02947D01*
X04358Y02955D02*
X04368Y02965D01*
X04338Y02939D02*
X04355Y02955D01*
X04583Y02908D02*
X0461Y02934D01*
X04574Y02917D02*
X04591Y02934D01*
X04606D02*
X04618Y02922D01*
X04556Y02934D02*
X04563Y02928D01*
X04556Y02934D02*
X04563Y02928D01*
X04564Y02927D02*
X04571Y02934D01*
X04593Y02898D02*
X04618Y02923D01*
X04587Y02934D02*
X04615Y02906D01*
X04604Y02895D02*
X04618Y02909D01*
X04567Y02934D02*
X04605Y02896D01*
X04563Y02928D02*
X04604Y02887D01*
X04534Y029D02*
X0454Y02894D01*
X04492D02*
X04498Y029D01*
X04482D02*
X04501D01*
X04534*
X04477Y02905D02*
X04482Y029D01*
X04455Y02905D02*
X04477D01*
X04482Y029*
X04485D02*
X0449Y02894D01*
X04473D02*
X0448Y02902D01*
X04524Y029D02*
X04529Y02894D01*
X04453D02*
X04464Y02905D01*
X0446D02*
X04471Y02894D01*
X04604Y02887D02*
Y02895D01*
X04532Y02894D02*
X0454D01*
X04532D02*
X0454D01*
X04531D02*
X04535Y02898D01*
X04512Y02894D02*
X04517Y029D01*
X04531Y02836D02*
X04537Y02842D01*
X04535Y0282D02*
X04547Y02832D01*
X04532Y02847D02*
X04558Y0282D01*
X04531D02*
X04558D01*
X04531D02*
Y02847D01*
Y02834D02*
X04545Y0282D01*
X04505Y029D02*
X0451Y02894D01*
X04482Y029D02*
X04501D01*
X04475Y02894D02*
X04532D01*
X04452D02*
X04475D01*
X04452D02*
X04475D01*
X04452D02*
X04475D01*
X04464Y0282D02*
Y02834D01*
X04457Y0282D02*
X04464Y02827D01*
X0445Y0282D02*
X04464D01*
X04452Y02847D02*
X04464Y02834D01*
X04443Y02844D02*
X04464Y02823D01*
X04438Y02922D02*
X04455Y02905D01*
X04425Y0294D02*
X04438Y02927D01*
X04424Y02904D02*
X0444Y0292D01*
X04438Y02922D02*
Y02955D01*
X04415Y02914D02*
X04438Y02937D01*
X04407Y02922D02*
X04421Y02935D01*
X04434Y02895D02*
X0445Y0291D01*
X04416Y0293D02*
X04451Y02894D01*
X04434D02*
X04452D01*
X04407Y02922D02*
X04434Y02894D01*
X04369Y02888D02*
X04392Y02865D01*
X0436Y02888D02*
X04387Y02861D01*
X04323Y0292D02*
X04338Y02935D01*
X04277Y02971D02*
X04338Y02911D01*
X04333Y0291D02*
X04338Y02915D01*
Y02906D02*
Y02939D01*
X04272Y02971D02*
X04338Y02906D01*
X04267Y02903D02*
X04275Y02911D01*
X04338Y02905D02*
X04355Y02888D01*
X04338Y02906D02*
X04355Y02888D01*
X04381Y02862*
X04277Y02893D02*
X04285Y02901D01*
X04286Y02883D02*
X04295Y02892D01*
X04443Y02847D02*
X04452D01*
X04443Y02827D02*
Y02847D01*
X04444Y02827D02*
X04458Y0284D01*
X04385Y02858D02*
X04392Y02865D01*
X04382Y02862D02*
X04389Y02869D01*
X04381Y02862D02*
X04385Y02858D01*
X04443Y02827D02*
X0445Y0282D01*
X04415Y02799D02*
X04422Y02792D01*
X04393Y02799D02*
X04415D01*
X0439Y02801D02*
X04393Y02799D01*
X0439Y02792D02*
X04397Y02799D01*
X04372Y02871D02*
X04379Y02878D01*
X04355Y02888D02*
X04369D01*
X04381Y02862D02*
X04385Y02858D01*
X04362Y02881D02*
X04369Y02888D01*
X04296Y02873D02*
X04304Y02882D01*
X04306Y02864D02*
X04314Y02872D01*
X04325Y02844D02*
X04334Y02853D01*
X04316Y02854D02*
X04324Y02862D01*
X04325Y02844D02*
X04342D01*
X04297Y02794D02*
Y02816D01*
X04272Y02791D02*
X04297Y02816D01*
X05649Y0278D02*
Y02795D01*
X05646Y02782D02*
X05649Y02784D01*
X05646Y0278D02*
Y02798D01*
X05618Y02748D02*
X05623Y02742D01*
X05642D02*
X05649D01*
Y02728D02*
Y02742D01*
X05636D02*
X05649Y0273D01*
X05623Y02742D02*
X05642D01*
X05618Y02748D02*
X05623Y02742D01*
X05642*
X05596Y02748D02*
X05618D01*
X05579Y02765D02*
X05596Y02748D01*
X0555Y02748D02*
X05618D01*
X05564Y02785D02*
X05581Y02802D01*
X05555Y02785D02*
X05592Y02748D01*
X05554D02*
X05579Y02773D01*
X05618Y02688D02*
Y02748D01*
X05612D02*
X05618Y02742D01*
Y02714D02*
X05646Y02742D01*
X05573Y02748D02*
X05585Y02759D01*
X05758Y02711D02*
Y02728D01*
X05712D02*
X05758D01*
X05748D02*
X05758Y02718D01*
X05649Y02728D02*
X05712D01*
X05618Y02733D02*
X05626Y02742D01*
X05729Y02728D02*
X05752Y02705D01*
X05709Y02728D02*
X05742Y02695D01*
X0569Y02728D02*
X05732Y02686D01*
X0578Y02677D02*
X05784Y02673D01*
X05651Y02728D02*
X05713Y02666D01*
X05618Y02675D02*
X0567Y02728D01*
X0567D02*
X05722Y02676D01*
X05618Y02694D02*
X05651Y02728D01*
X05611Y02688D02*
X05618Y02694D01*
X0555Y02688D02*
X05618D01*
X05603Y0268D02*
X05611Y02688D01*
X05594D02*
X05601Y0268D01*
X0555D02*
X05618D01*
X05574Y02688D02*
X05582Y0268D01*
X05584D02*
X05591Y02688D01*
X05579Y02765D02*
Y02798D01*
X05538Y02751D02*
X05579Y02792D01*
X05569Y0279D02*
X05579Y0278D01*
X05531Y02785D02*
X05564D01*
X05528Y02761D02*
X05552Y02785D01*
X05521Y02767D02*
X05538Y0275D01*
X0555Y02743D02*
X05554Y02748D01*
X05535Y02785D02*
X05573Y02748D01*
X05538Y02732D02*
X0555Y02743D01*
Y02688D02*
Y02748D01*
X05538Y02717D02*
Y0275D01*
Y02743D02*
X0555Y02732D01*
X05516Y028D02*
X05531Y02785D01*
X05495Y02767D02*
X05522Y02794D01*
X05515Y02767D02*
X05533Y02785D01*
X05489Y0278D02*
X05508Y028D01*
X05489Y02783D02*
X05505Y028D01*
X05493Y02788D02*
X05514Y02767D01*
X05503Y02797D02*
X05553Y02748D01*
X05489Y02767D02*
X05521D01*
X05489D02*
Y02783D01*
Y02773D02*
X05494Y02767D01*
X05555Y02688D02*
X05562Y0268D01*
X0555Y02693D02*
X05555Y02688D01*
X05564Y0268D02*
X05572Y02688D01*
X05538Y02723D02*
X0555Y02712D01*
X05532Y0271D02*
X0555Y02693D01*
X05529Y02684D02*
X0555Y02704D01*
X05538Y02674D02*
X05552Y02688D01*
X05522Y02701D02*
X0555Y02673D01*
Y02668D02*
Y0268D01*
X05541Y0266D02*
X0555Y02668D01*
X05538Y02665D02*
X05542Y02661D01*
X05521Y027D02*
X05538Y02717D01*
X05492Y027D02*
X05521D01*
X05489Y02703D02*
X05492Y027D01*
X05499Y02693D02*
X05506Y027D01*
X05521Y02692D02*
X05538Y02675D01*
X05518Y02692D02*
X0555Y02724D01*
X05499Y02692D02*
X05521D01*
X05492Y027D02*
X05499Y02692D01*
X05503Y027D02*
X05511Y02692D01*
X0577Y02667D02*
X05784Y02653D01*
X05683Y02637D02*
X05758Y02711D01*
X05761Y02657D02*
X05784Y02634D01*
X05674Y02627D02*
X05683Y02637D01*
X05618Y02722D02*
X05693Y02647D01*
X05674Y02627D02*
X05683Y02637D01*
X05784Y02466D02*
Y0268D01*
X05751Y02647D02*
X05784Y02615D01*
X05741Y02638D02*
X05784Y02595D01*
X05734Y02616D02*
X05784Y02666D01*
X0572Y02616D02*
X05784Y0268D01*
X05754Y02616D02*
X05784Y02646D01*
X05618Y02636D02*
X05709Y02728D01*
X05618Y02742D02*
X05703Y02656D01*
X05618Y02655D02*
X0569Y02728D01*
X05618Y02703D02*
X05683Y02637D01*
X05613Y02688D02*
X05674Y02627D01*
X05618Y0262D02*
Y0268D01*
X05568Y02548D02*
X05748Y02728D01*
X05549Y02548D02*
X05729Y02728D01*
X05588Y02548D02*
X05758Y02718D01*
X05618Y02664D02*
X05674Y02608D01*
X05618Y02644D02*
X05674Y02588D01*
X05767Y0261D02*
X05784Y02627D01*
X0572Y02616D02*
X0576D01*
X05777Y026D02*
X05784Y02607D01*
X05731Y02628D02*
X05743Y02616D01*
X05674Y02608D02*
Y02627D01*
Y02608D02*
Y02627D01*
X0576Y02616D02*
X05782Y02594D01*
X05751Y02516D02*
X05784Y02549D01*
X05776Y02544D02*
X05784Y02537D01*
X05782Y0255D02*
Y02594D01*
X0576Y02528D02*
X05782Y0255D01*
X05583Y0262D02*
X05674Y0253D01*
X05564Y0262D02*
X05674Y0251D01*
X05603Y02524D02*
X05674Y02595D01*
X05618Y02625D02*
X05674Y02569D01*
X05603Y0262D02*
X05674Y02549D01*
X05603Y02544D02*
X05674Y02614D01*
X05603Y02505D02*
X05674Y02575D01*
X05551Y02613D02*
X05674Y02491D01*
X05603Y02485D02*
X05674Y02556D01*
Y02481D02*
Y02608D01*
X05603Y02542D02*
X05669Y02476D01*
X05541Y0266D02*
X0555Y02668D01*
X05508Y0257D02*
X05558Y0262D01*
X05618*
X05538Y02657D02*
X05541Y0266D01*
X05538Y02657D02*
Y02675D01*
X05503Y02622D02*
X05506Y02625D01*
X05529Y02548D02*
X05602Y0262D01*
X0551Y02548D02*
X05582Y0262D01*
X05541Y02603D02*
X05597Y02548D01*
X05532Y02594D02*
X05578Y02548D01*
X05522Y02584D02*
X05558Y02548D01*
X05512Y02574D02*
X05539Y02548D01*
X05471Y02652D02*
Y02664D01*
X05469Y02652D02*
Y02666D01*
X05416Y02581D02*
X05425Y02571D01*
X05416Y02581D02*
Y02591D01*
Y02581D02*
Y02591D01*
Y02581D02*
X05425Y02571D01*
X0549Y02548D02*
X05563Y0262D01*
X05398Y02591D02*
X05456Y02533D01*
X05499Y02561D02*
X05508Y0257D01*
X05393Y02547D02*
X05421Y02575D01*
X05426Y0257D02*
X05436Y02561D01*
X05502Y02564D02*
X05519Y02548D01*
X05477D02*
X0554D01*
X0554D02*
X05603D01*
X05499Y02561D02*
X05508Y0257D01*
X0548Y02561D02*
X05499D01*
X0548D02*
X05499D01*
X05603Y0248D02*
Y02548D01*
X05597D02*
X05603Y02542D01*
X05487Y02561D02*
X055Y02548D01*
X05477Y02533D02*
Y02548D01*
X05455Y02561D02*
X0548D01*
X05436D02*
X05455D01*
X05467D02*
X0548Y02548D01*
X05426Y0257D02*
X05436Y02561D01*
X05412Y02547D02*
X0543Y02566D01*
X05436Y02561D02*
X05455D01*
X05448D02*
X05475Y02533D01*
X05437Y02533D02*
X05464Y02561D01*
X05456Y02533D02*
X05484Y02561D01*
X05422Y02538D02*
X05445Y02561D01*
X05413Y02547D02*
X05428Y02533D01*
X05323Y02776D02*
X05332Y02785D01*
X05321D02*
X05327Y02779D01*
X05276Y02776D02*
X05323D01*
X05301Y02785D02*
X05311Y02776D01*
X05289D02*
X05299Y02785D01*
X05309Y02776D02*
X05318Y02785D01*
X05323Y02738D02*
X05338Y02723D01*
X0529Y02738D02*
X05331Y02697D01*
X0531Y02738D02*
X0535Y02697D01*
X05282Y02785D02*
X05291Y02776D01*
X05281Y02709D02*
X0531Y02738D01*
X05276D02*
X05323D01*
X05267Y02785D02*
X05276Y02776D01*
X05261Y0279D02*
X05266Y02785D01*
X05273Y02779D02*
X05279Y02785D01*
X05261Y0279D02*
X05266Y02785D01*
X05249Y02745D02*
X05257Y02738D01*
X05249Y02741D02*
Y02745D01*
X05271Y02738D02*
X05311Y02697D01*
X05249Y02741D02*
X05294Y02697D01*
X05257Y02738D02*
X05276D01*
X05249Y02745D02*
X05257Y02738D01*
X05262Y02729D02*
X05271Y02738D01*
X05371Y02702D02*
Y02717D01*
X05363Y02723D02*
X05371Y02715D01*
Y02697D02*
Y02702D01*
Y02717D02*
Y02723D01*
X05338D02*
X05371D01*
Y02717D02*
Y02723D01*
Y02697D02*
Y02702D01*
X05347Y02697D02*
X05371Y02721D01*
X05367Y02697D02*
X05371Y02701D01*
X05328Y02697D02*
X05354Y02723D01*
X05308Y02697D02*
X05336Y02725D01*
X05344Y02723D02*
X0537Y02697D01*
X05291Y02699D02*
X05326Y02734D01*
X05272Y02719D02*
X0529Y02738D01*
X05294Y02697D02*
X05371D01*
X05257Y02738D02*
X05276D01*
X05221Y02713D02*
X05265Y02668D01*
X05248Y02676D02*
X05253Y02681D01*
X05265Y02668D02*
X05268Y02665D01*
X05218Y02713D02*
X05265Y02665D01*
X05265Y02668D02*
X05268Y02665D01*
X05244Y0268D02*
X05259Y02665D01*
X05258Y02666D02*
X05263Y02671D01*
X05174Y02758D02*
X05182D01*
X05173Y02757D02*
X05182Y02749D01*
X05174Y02738D02*
X05182Y02746D01*
X05164Y02747D02*
X05168Y02743D01*
X0516D02*
X05174Y02758D01*
X0516Y02743D02*
X05168D01*
X05182Y0273D02*
X05199Y02713D01*
X05168Y02743D02*
X05185Y02726D01*
Y02726D02*
X05231Y0268D01*
X05182Y0273D02*
Y02758D01*
X05168Y02743D02*
X05185Y02726D01*
Y02693D02*
Y02726D01*
X05111Y028D02*
X05135Y02776D01*
X05111Y02773D02*
X05146Y02807D01*
X05111Y0278D02*
X05125Y02766D01*
X05111Y0278D02*
Y02796D01*
Y0278D02*
Y02796D01*
Y02765D02*
Y0278D01*
X05119Y0276D02*
X05146Y02786D01*
X05118Y0276D02*
X05146Y02788D01*
X05111Y0276D02*
X05119D01*
X05111D02*
Y02765D01*
Y0276D02*
Y02765D01*
X05233Y0268D02*
X05243Y0269D01*
X05214Y0268D02*
X05233Y027D01*
X05211Y0268D02*
X05244D01*
X05199Y02713D02*
X05221D01*
X05185Y0271D02*
X05193Y02718D01*
X05185Y02706D02*
X05211Y0268D01*
X05168Y02676D02*
X05185Y02693D01*
X0516Y02665D02*
X05207Y02713D01*
X05182Y0269D02*
X05201Y02671D01*
X0514Y02665D02*
X05151Y02676D01*
X05145Y02665D02*
X05164D01*
X0512Y0269D02*
X05135Y02676D01*
X05111Y02675D02*
X05123Y02687D01*
X05135Y02676D02*
X05168D01*
X05111Y02686D02*
Y0269D01*
Y02686D02*
Y0269D01*
X0512*
X05138Y02676D02*
X05148Y02665D01*
X05111Y02683D02*
X05128Y02665D01*
X05111D02*
X05145D01*
X05111Y0267D02*
Y02686D01*
Y02665D02*
Y0267D01*
X05361Y02627D02*
X05371Y02618D01*
X05354Y02627D02*
X05371D01*
Y02623D02*
Y02627D01*
X05354Y02625D02*
X05356Y02627D01*
X05283D02*
X05286Y02625D01*
X05371Y02623D02*
Y02627D01*
Y02596D02*
Y02623D01*
X05354Y02606D02*
X05371Y02623D01*
X05354Y02616D02*
X05371Y02599D01*
X05354Y02596D02*
Y02627D01*
X05286Y02596D02*
Y02627D01*
X05265Y02596D02*
X05286Y02616D01*
X05264Y02627D02*
X05286Y02605D01*
X05259Y02665D02*
X05268D01*
X05259Y02627D02*
X05286D01*
X05244Y02613D02*
X05259Y02627D01*
X05172Y02658D02*
X05224Y0271D01*
X05216Y02613D02*
X05244D01*
X05252Y0262D02*
X05276Y02596D01*
X05246D02*
X05278Y02627D01*
X05226Y02596D02*
X05244Y02613D01*
X05216Y02605D02*
X05224Y02613D01*
X0522D02*
X05237Y02596D01*
X05375Y0255D02*
X05416Y0259D01*
X05375Y02591D02*
X05416D01*
X0538Y02547D02*
X05413D01*
X05375Y02569D02*
X05397Y02591D01*
X05371Y02599D02*
X05378Y02591D01*
X05375Y02588D02*
X05378Y02591D01*
X05378D02*
X05436Y02533D01*
X05375Y02575D02*
X05402Y02547D01*
X05375Y02555D02*
X05383Y02547D01*
X05375Y02543D02*
Y02591D01*
Y02543D02*
X0538Y02547D01*
X05249Y02596D02*
X05264D01*
X0524Y02613D02*
X05257Y02596D01*
X05233D02*
X05249D01*
X05218D02*
X05233D01*
X05214Y02599D02*
X05218Y02596D01*
X05233D02*
X05249D01*
X05363D02*
X05371Y02604D01*
X05354Y02596D02*
X05371D01*
X05281D02*
X05286D01*
X05264D02*
X05281D01*
X05264D02*
X05281D01*
X05194Y02663D02*
X05211Y0268D01*
X05194Y02661D02*
X05214Y0268D01*
X05173Y0268D02*
X05194Y02659D01*
X05164Y02665D02*
X05174Y02656D01*
X05164Y02665D02*
X05174Y02656D01*
X05186Y02652D02*
X05194Y02661D01*
Y02652D02*
Y02663D01*
X05157Y02676D02*
X05181Y02652D01*
X05177D02*
X05194D01*
X05174Y02656D02*
X05177Y02652D01*
X05145Y02627D02*
X05149Y02624D01*
Y02602D02*
Y02624D01*
X05145Y02665D02*
X05164D01*
X05121D02*
X05133Y02678D01*
X05111Y02627D02*
X05145D01*
X05111Y02623D02*
Y02627D01*
Y02665D02*
Y0267D01*
Y02623D02*
Y02627D01*
X05127D02*
X05149Y02606D01*
X05111Y02598D02*
X05141Y02627D01*
X05111Y02624D02*
X0514Y02596D01*
X05111Y02617D02*
X05122Y02627D01*
X05111Y02596D02*
Y02623D01*
X0521Y02596D02*
X05218D01*
X0521D02*
X05216Y02602D01*
X0521Y02596D02*
X05218D01*
X05216Y02602D02*
Y02613D01*
X05149Y02602D02*
X05155Y02596D01*
X05148D02*
X05152Y02599D01*
X05138Y02596D02*
X05155D01*
X05129D02*
X05149Y02616D01*
X05138Y02596D02*
X05155D01*
X05111Y02605D02*
X0512Y02596D01*
X05111D02*
X05138D01*
X05105Y02591D02*
X05111Y02598D01*
X05077Y02591D02*
X05107D01*
X05086D02*
X05107Y0257D01*
X05081Y02587D02*
X05086Y02591D01*
X05077D02*
X05083Y02585D01*
Y02569D02*
X05105Y02591D01*
X05107Y02558D02*
Y02591D01*
X05092Y02558D02*
X05107Y02574D01*
X05083Y02558D02*
X05107D01*
X05083D02*
Y02585D01*
Y02574D02*
X05099Y02558D01*
X05766Y02534D02*
X05784Y02517D01*
X05716Y02528D02*
X0576D01*
X05716Y02516D02*
X0576D01*
X05732D02*
X05744Y02528D01*
X05712Y02516D02*
X05724Y02528D01*
X05733D02*
X05745Y02516D01*
X05766Y02511D02*
X05784Y02529D01*
X05753Y02528D02*
X05784Y02498D01*
X05775Y02501D02*
X05784Y0251D01*
X0576Y02516D02*
X05782Y02494D01*
X05712Y02511D02*
Y02533D01*
X05782Y02465D02*
Y02494D01*
X05712Y02531D02*
X05726Y02516D01*
X05712Y02533D02*
X05716Y02528D01*
X05712Y02511D02*
X05716Y02516D01*
X05603Y02503D02*
X05649Y02457D01*
X05603Y02522D02*
X05659Y02466D01*
X0554Y0248D02*
X05603D01*
X05614Y02437D02*
X05674Y02497D01*
X05575Y02437D02*
X05674Y02536D01*
X0563Y02437D02*
X05674Y02481D01*
X05594Y02437D02*
X05674Y02517D01*
X05603Y02483D02*
X05639Y02447D01*
X05812Y02437D02*
X05817Y02442D01*
X05812Y02437D02*
X05817Y02442D01*
X05808Y02434D02*
X05817Y02426D01*
X05697Y02447D02*
X05712Y02432D01*
X05687Y02438D02*
X05703Y02422D01*
X05695Y02414D02*
X05712Y02432D01*
X05799Y02424D02*
X05817Y02406D01*
X05783Y02392D02*
X05817Y02426D01*
X05789Y02414D02*
X05817Y02387D01*
X05786Y02376D02*
X05817Y02406D01*
X05783Y02408D02*
X05812Y02437D01*
X05783Y02382D02*
X05788Y02376D01*
X05678Y02428D02*
X05695Y02411D01*
X05659Y02409D02*
X05697Y02447D01*
X05649Y02399D02*
X05659Y02409D01*
X05586Y0248D02*
X05629Y02437D01*
X05567Y0248D02*
X0561Y02437D01*
X05479D02*
X0563D01*
X05668Y02418D02*
X05695Y02392D01*
X05649Y02399D02*
X05659Y02409D01*
X0563Y02399D02*
X05649D01*
X05428D02*
X0563D01*
X05649*
X05474Y02495D02*
X05477Y02493D01*
Y02484D02*
Y02495D01*
X05471Y0249D02*
X05477Y02495D01*
X05467Y02493D02*
X05477Y02484D01*
X05598Y0248D02*
X05603Y02485D01*
X05509Y0248D02*
X05552Y02437D01*
X05497D02*
X0554Y0248D01*
X05484Y02444D02*
X0552Y0248D01*
X05477Y02484D02*
X0548Y0248D01*
X05489D02*
X05532Y02437D01*
X05445Y02533D02*
X05455D01*
X05445D02*
X05455D01*
X05455D02*
X05477Y02533D01*
X05436Y02533D02*
X05445D01*
X05436Y02533D02*
X05443D01*
X05428D02*
X05436D01*
X05455Y02495D02*
X05477D01*
X05453Y02493D02*
X05467D01*
X05436Y02533D02*
X05443D01*
X05436D02*
X05443D01*
X05548Y0248D02*
X0559Y02437D01*
X05536D02*
X05579Y0248D01*
X05555Y02437D02*
X05598Y0248D01*
X05484Y02464D02*
X05501Y0248D01*
X0548D02*
X0554D01*
X05484Y02443D02*
Y02476D01*
X05528Y0248D02*
X05571Y02437D01*
X05516D02*
X05559Y0248D01*
X05551Y02399D02*
X05574Y02376D01*
X05484Y02466D02*
X05513Y02437D01*
X05484Y02446D02*
X05493Y02437D01*
X0548Y0248D02*
X05484Y02476D01*
X05417Y02452D02*
Y02457D01*
X05416Y02452D02*
Y02456D01*
X05378Y02452D02*
Y02456D01*
X05479Y02437D02*
X05484Y02443D01*
X05428Y02388D02*
X05439Y02399D01*
X05395Y02385D02*
X05428D01*
Y02399*
X05425Y02385D02*
X05428Y02388D01*
X05803Y02373D02*
X05817Y02387D01*
X05783Y02401D02*
X05817Y02367D01*
X05783Y02376D02*
X058D01*
X05783D02*
Y02408D01*
X05695Y0237D02*
Y02414D01*
Y0237D02*
X05699Y02366D01*
X05817Y0236D02*
Y02442D01*
X058Y02376D02*
X05817Y0236D01*
X05813Y02364D02*
X05817Y02367D01*
Y02264D02*
Y02325D01*
X058Y02309D02*
X05817Y02325D01*
X0569Y02319D02*
X05695Y02314D01*
X0564Y02366D02*
X05709Y02435D01*
X05621Y02366D02*
X057Y02445D01*
X05658Y02409D02*
X05695Y02372D01*
X0566Y02366D02*
X05695Y02401D01*
X05648Y02399D02*
X05681Y02366D01*
X05679D02*
X05695Y02382D01*
X0567Y02319D02*
X05695Y02294D01*
X05615Y02366D02*
X05699D01*
X05635Y02264D02*
X0569Y02319D01*
X05615Y02264D02*
X0567Y02319D01*
X05631D02*
X05686Y02264D01*
X05808Y02317D02*
X05817Y02309D01*
X05797Y02309D02*
X05817Y02289D01*
X05783Y02275D02*
X05817Y02309D01*
X05783Y02294D02*
X05797Y02309D01*
X05783Y0227D02*
Y02309D01*
X058*
X05791Y02264D02*
X05817Y02289D01*
X05783Y02304D02*
X05817Y0227D01*
X0581Y02264D02*
X05817Y0227D01*
X05783Y02284D02*
X05803Y02264D01*
X0578Y02267D02*
X05784Y02264D01*
X05776D02*
X05783Y0227D01*
X05695Y02314D02*
X05699Y02319D01*
X05776Y02264D02*
X05817D01*
X05651Y02319D02*
X05695Y02275D01*
X05615Y02319D02*
X05699D01*
X05695Y0227D02*
Y02314D01*
Y0227D02*
X05702Y02264D01*
X05654D02*
X05695Y02304D01*
X05693Y02264D02*
X05697Y02268D01*
X05613Y02317D02*
X05667Y02264D01*
X05674D02*
X05695Y02284D01*
X05608Y02373D02*
X05634Y02399D01*
X05592Y02376D02*
X05615Y02399D01*
X05609D02*
X05642Y02366D01*
X0557Y02399D02*
X05593Y02376D01*
X05531Y02399D02*
X05563Y02367D01*
X05572Y02376D02*
X05595Y02399D01*
X0559D02*
X05622Y02366D01*
X05473Y02399D02*
X05608Y02264D01*
X05628Y02399D02*
X05661Y02366D01*
X05512Y02399D02*
X05555Y02356D01*
X05492Y02399D02*
X05555Y02337D01*
X05453Y02399D02*
X05589Y02264D01*
X0544D02*
X05576Y02399D01*
X0542Y02264D02*
X05556Y02399D01*
X05428Y02385D02*
X0555Y02264D01*
X05395Y02375D02*
X05405Y02385D01*
X05395Y02354D02*
Y02385D01*
Y02355D02*
X05425Y02385D01*
X05434Y02399D02*
X05569Y02264D01*
X05401D02*
X05537Y02399D01*
X05409Y02385D02*
X0553Y02264D01*
X05382D02*
X05517Y02399D01*
X05395Y02379D02*
X05511Y02264D01*
X05605Y02376D02*
X05615Y02366D01*
X05572Y02376D02*
X05605D01*
Y02309D02*
X05615Y02319D01*
X05555Y02326D02*
Y02359D01*
Y02359D02*
X05572Y02376D01*
X05572Y02309D02*
X05605D01*
X05596Y02264D02*
X05651Y02319D01*
X05576Y02264D02*
X05632Y02319D01*
X05602Y02309D02*
X05647Y02264D01*
X05557D02*
X05602Y02309D01*
X05583D02*
X05628Y02264D01*
X05555Y02326D02*
X05572Y02309D01*
X05555Y02359D02*
X05572Y02376D01*
X05537Y02264D02*
X05583Y02309D01*
X05498Y02264D02*
X05558Y02323D01*
X05378Y02337D02*
X05395Y02354D01*
X05518Y02264D02*
X05567Y02313D01*
X05459Y02264D02*
X05555Y02359D01*
X05395Y0236D02*
X05491Y02264D01*
X05479D02*
X05555Y02339D01*
X05389Y02347D02*
X05472Y02264D01*
X05379Y02337D02*
X05452Y02264D01*
X05332Y0252D02*
X05342Y02511D01*
X05332Y0252D02*
X05342Y02511D01*
X05348Y02504*
X05327Y0252D02*
X05332D01*
X05327D02*
X05332D01*
X05325Y02499D02*
X05339Y02513D01*
X05348Y02504D02*
X05357Y02495D01*
X05332Y0252D02*
X05357Y02495D01*
X05357D02*
X05365D01*
X05348Y02504D02*
X05357Y02495D01*
X05334Y02489D02*
X05349Y02504D01*
X0532Y02503D02*
X05337Y02486D01*
X05309Y02503D02*
X05326Y0252D01*
X05307D02*
X05312D01*
X05327*
X05307Y02503D02*
Y0252D01*
X05235D02*
X05238Y02517D01*
X05307Y0252D02*
X05312D01*
X05313D02*
X05378Y02455D01*
X05307Y02506D02*
X0531Y02503D01*
X05307D02*
X0532D01*
X05215Y0252D02*
X05238Y02498D01*
X05201Y02515D02*
X05238Y02478D01*
X05378Y02456D02*
Y02475D01*
X05357Y02495D02*
X05378Y02475D01*
Y02456D02*
Y02475D01*
X05365Y02495D02*
X05378Y02482D01*
X05357Y02495D02*
X05365D01*
X05378Y02475D02*
Y02482D01*
Y02456D02*
Y02475D01*
X05356Y02452D02*
X05378Y02474D01*
X05365Y02452D02*
X05378D01*
X05337Y02476D02*
X05361Y02452D01*
X05337Y02453D02*
Y02486D01*
X05375Y02452D02*
X05378Y02455D01*
X05337Y02453D02*
X05372Y02488D01*
X05337Y02473D02*
X0536Y02495D01*
X05337Y02452D02*
X05365D01*
X05229Y02462D02*
X05238Y02471D01*
X05214Y02467D02*
X05238Y0249D01*
X05337Y02457D02*
X05342Y02452D01*
X05302Y02385D02*
X05328D01*
X05276Y02387D02*
X05302D01*
X05233Y0252D02*
X05238D01*
X05218D02*
X05233D01*
X05238*
X05201D02*
X05218D01*
X05201Y02511D02*
X0521Y0252D01*
X05201D02*
X05218D01*
X05238Y02454D02*
Y0252D01*
X05195Y02467D02*
X05238Y0251D01*
X05201Y02496D02*
X05238Y02459D01*
X05201Y02487D02*
Y0252D01*
Y02492D02*
X05229Y0252D01*
X05195Y02482D02*
X0521Y02467D01*
X05108Y02491D02*
X05112Y02494D01*
X05108Y02491D02*
X05112Y02487D01*
X05184Y02471D02*
X05201Y02487D01*
X05112Y0248D02*
Y02494D01*
X05089Y02491D02*
X05112Y02468D01*
X05086Y02491D02*
X05108D01*
X05098Y02467D02*
X05112Y02481D01*
X05047Y02435D02*
X05102Y02491D01*
X05112Y02467D02*
Y0248D01*
X05048Y02452D02*
X05086Y02491D01*
X05078Y02482D02*
X05093Y02467D01*
X05225D02*
X05238Y02454D01*
X05181Y02467D02*
X05225D01*
X05185Y02472D02*
X05191Y02467D01*
X05169Y02461D02*
X05179Y02471D01*
X05172Y02457D02*
X05181Y02467D01*
X05225Y0238D02*
X05238Y02393D01*
X05232Y02387D02*
X05238Y02381D01*
X05172Y02382D02*
Y02389D01*
Y02385D02*
X05174Y02387D01*
X05168Y02471D02*
X05176Y02462D01*
X05159Y02471D02*
X05162Y02468D01*
X05159Y02471D02*
X05184D01*
X05112Y02467D02*
Y0248D01*
X05068Y02473D02*
X05078Y02463D01*
X05081Y02467D02*
X05112D01*
X05162Y02468D02*
X05172Y02458D01*
X05162Y02468D02*
X05172Y02458D01*
X05134Y02382D02*
Y02388D01*
X0506Y02445D02*
X05081Y02467D01*
X05058Y02463D02*
X05068Y02453D01*
X05312Y02385D02*
X05328Y02369D01*
X05276Y02353D02*
X05308Y02385D01*
X05276Y02372D02*
X0529Y02387D01*
X05328Y02354D02*
Y02385D01*
X05343Y02264D02*
X05478Y02399D01*
X05323Y02264D02*
X05459Y02399D01*
X05362Y02264D02*
X05498Y02399D01*
X0529Y02387D02*
X05413Y02264D01*
X05276Y02305D02*
Y02387D01*
X05238Y02354D02*
Y02393D01*
X05212Y02367D02*
X05238Y02393D01*
X05228Y02364D02*
X05238Y02373D01*
X05219Y0238D02*
X05238Y02361D01*
X05181Y0238D02*
X05225D01*
X05181Y02367D02*
X05225D01*
X05276Y02314D02*
X05328Y02366D01*
X05276Y02382D02*
X05394Y02264D01*
X05276Y02362D02*
X05375Y02264D01*
X05276Y02333D02*
X05327Y02385D01*
X05225Y02367D02*
X05238Y02354D01*
X05377Y02337D02*
X05395Y02355D01*
X05328Y02354D02*
X05345Y02337D01*
X05378*
X05276Y02286D02*
Y02305D01*
Y02294D02*
X05332Y0235D01*
X05276Y02286D02*
Y02305D01*
X05304Y02264D02*
X05377Y02337D01*
X05284Y02264D02*
X05357Y02337D01*
X0536D02*
X05433Y02264D01*
X05276Y02343D02*
X05355Y02264D01*
X05276Y02323D02*
X05336Y02264D01*
X05276Y02304D02*
X05316Y02264D01*
X05275Y02285D02*
X05297Y02264D01*
X05265Y02276D02*
X05277Y02264D01*
X05266Y02277D02*
X05276Y02286D01*
X05266Y02277D02*
X05276Y02286D01*
X05259Y02269D02*
X05266Y02277D01*
X05265Y02264D02*
X05341Y0234D01*
X05253Y02264D02*
X05259Y02269D01*
X05253Y02264D02*
X05702D01*
X05253D02*
X05259Y02269D01*
X05255Y02266D02*
X05258Y02264D01*
X05172Y02389D02*
X05193Y02367D01*
X05172Y02389D02*
X05181Y0238D01*
X05192Y02367D02*
X05205Y0238D01*
X05125D02*
X05134Y02388D01*
X05118Y02367D02*
X05134Y02382D01*
X05122Y0238D02*
X05126Y02375D01*
X052Y0238D02*
X05213Y02367D01*
X05172Y02365D02*
X05186Y0238D01*
X05172Y02369D02*
X05178Y02363D01*
X05172Y02363D02*
Y02382D01*
X05114Y02367D02*
X05134Y02386D01*
X05172Y02363D02*
Y02382D01*
X05095Y02367D02*
X05108Y0238D01*
X05083D02*
X05096Y02367D01*
X05081Y0238D02*
X05125D01*
X0506Y02401D02*
X05081Y0238D01*
X0506Y02403D02*
X05083Y0238D01*
X05037Y02367D02*
X05065Y02396D01*
X05047Y02338D02*
X05088Y0238D01*
X05044Y02399D02*
X05079Y02364D01*
X05102Y0238D02*
X05115Y02367D01*
X05034Y02389D02*
X05069Y02355D01*
X05047Y02357D02*
X05075Y02386D01*
X05162Y02354D02*
X05172Y02363D01*
X0516Y02345D02*
X05181Y02367D01*
X05162Y02354D02*
X05172Y02363D01*
X05165Y02356D02*
X05168Y02353D01*
X05147Y02338D02*
X05162Y02354D01*
X05155Y02347D02*
X0516Y02342D01*
X05147Y02321D02*
X0516Y02334D01*
X05147Y02336D02*
X0516Y02323D01*
Y02301D02*
X05163Y02298D01*
X0516Y02301D02*
Y02345D01*
X05147Y02301D02*
Y02338D01*
X05081Y02367D02*
X05118D01*
X0506Y02345D02*
X05081Y02367D01*
X05147Y02316D02*
X0516Y02303D01*
X05047Y02319D02*
X0506Y02306D01*
X05047Y02318D02*
X0506Y02331D01*
X05047Y02299D02*
X0506Y02312D01*
X05143Y02298D02*
X0516Y02314D01*
X05143Y02298D02*
X05147Y02301D01*
X05143Y02298D02*
X05163D01*
X0506Y02301D02*
X05063Y02298D01*
X05047D02*
X05063D01*
X05Y02794D02*
X05036Y02758D01*
X05Y02813D02*
X05036Y02777D01*
Y02765D02*
Y0278D01*
Y02785*
X05027Y02794D02*
X05036Y02785D01*
X05036Y0278D02*
Y02785D01*
Y02749D02*
Y02765D01*
X05Y0274D02*
X05036Y02776D01*
Y02749D02*
Y02765D01*
Y02733D02*
Y02749D01*
X05002Y02722D02*
X05036Y02756D01*
X04995Y02741D02*
X05Y02735D01*
X04982Y02741D02*
X05031Y0279D01*
X04962Y02741D02*
X05021Y028D01*
X04983Y02769D02*
X05Y02786D01*
X0495Y02769D02*
X04983D01*
X04841Y02875D02*
X04975Y02741D01*
X04967Y02769D02*
X04995Y02741D01*
X04995Y0278D02*
X05036Y02738D01*
X04985Y0277D02*
X05036Y02719D01*
X04937Y02741D02*
X05D01*
X04816Y02711D02*
X04968Y02863D01*
X04943Y02741D02*
X04971Y02769D01*
X05036Y02697D02*
Y02702D01*
X05021Y02702D02*
X05036Y02717D01*
Y02697D02*
Y02702D01*
Y02717D02*
Y02733D01*
Y02717D02*
Y02733D01*
Y02702D02*
Y02717D01*
X0503Y02697D02*
X05036D01*
X05021Y02687D02*
X0503Y02697D01*
X05036*
X05021Y02687D02*
Y02704D01*
Y02687D02*
Y02704D01*
Y02687D02*
X0503Y02697D01*
X05012Y02713D02*
X05036Y02737D01*
X05009Y02716D02*
X05011Y02714D01*
X05021Y02704*
X05Y02725D02*
X05009Y02716D01*
X05Y02725D02*
Y02741D01*
Y02725D02*
X05009Y02716D01*
X05011Y02714D02*
X05021Y02704D01*
X05Y02735D02*
X05036Y02699D01*
X05021Y02695D02*
X05025Y02691D01*
X04937Y02673D02*
X04983D01*
X04965D02*
X04983Y02656D01*
X04813Y02748D02*
X04942Y02876D01*
X04933Y02786D02*
X0495Y02769D01*
X04884Y02741D02*
X04933Y02789D01*
X04828Y0281D02*
X04898Y02741D01*
X04904D02*
X04941Y02778D01*
X04821Y02875D02*
X04956Y02741D01*
X04816Y0273D02*
X04961Y02876D01*
X04811Y02866D02*
X04937Y02741D01*
X04828Y02829D02*
X04917Y02741D01*
X04816Y02691D02*
X04933Y02809D01*
X04821Y02798D02*
X04878Y02741D01*
X04794Y02748D02*
X04922Y02876D01*
X04774Y02748D02*
X04903Y02876D01*
X04774Y02786D02*
X04812Y02748D01*
X04768Y02781D02*
X04777Y0279D01*
X04768Y02781D02*
X04777Y0279D01*
X04735Y02748D02*
X04768Y02781D01*
X04791Y02789D02*
X04874Y02706D01*
X04755Y02748D02*
X04796Y02789D01*
X0481D02*
X04874Y02725D01*
X04735Y02748D02*
X04777Y02789D01*
X04764Y02777D02*
X04793Y02748D01*
X04923Y02741D02*
X04951Y02769D01*
X04874Y02741D02*
X04937D01*
X04812Y02748D02*
X04816Y02745D01*
X04874Y02686*
Y02673D02*
X04937D01*
X04874D02*
Y02741D01*
X04816Y02672D02*
X04874Y0273D01*
X04766Y02748D02*
X04816D01*
X04754Y02767D02*
X04773Y02748D01*
X04759D02*
X04766D01*
X04745Y02757D02*
X04754Y02748D01*
X04735D02*
X04759D01*
X04766*
X04923Y02643D02*
X04953Y02673D01*
X04906D02*
X04937Y02643D01*
X04881D02*
X04937D01*
X04887Y02673D02*
X04917Y02643D01*
X04884D02*
X04914Y02673D01*
X04904Y02643D02*
X04934Y02673D01*
X04983Y02643D02*
Y02673D01*
X04962Y02643D02*
X04983Y02664D01*
X04937Y02643D02*
X04983D01*
X04943D02*
X04973Y02673D01*
X04926D02*
X04956Y02643D01*
X04945Y02673D02*
X04976Y02643D01*
X04853Y02651D02*
X04875Y02673D01*
X04816Y02652D02*
X04874Y02711D01*
X04873Y02651D02*
X04895Y02673D01*
X04816Y02686D02*
X0485Y02651D01*
X04816Y02706D02*
X0487Y02651D01*
X04839D02*
X04872D01*
X04816Y02725D02*
X04898Y02643D01*
X04786Y02604D02*
X04874Y02691D01*
X04872Y02651D02*
X04881Y02643D01*
X04816Y02667D02*
X04835Y02647D01*
X04822Y02634D02*
X04839Y02651D01*
X04907Y02576D02*
X04927Y02555D01*
X04874Y02576D02*
X04927D01*
X04874D02*
Y02585D01*
X0485Y02584D02*
X04872D01*
X04927Y02546D02*
Y02576D01*
X04887D02*
X04919Y02544D01*
X04902D02*
X04927Y02569D01*
X04859Y02584D02*
X04899Y02544D01*
X04882D02*
X04914Y02576D01*
X04845Y02579D02*
X0488Y02544D01*
X04842Y02575D02*
X0485Y02584D01*
X04832Y02566D02*
X04842Y02575D01*
X04832Y02566D02*
X04842Y02575D01*
X04813Y02566D02*
X04832D01*
X04813D02*
X04832D01*
X04816Y02516D02*
X04875Y02576D01*
X04816Y02497D02*
X04895Y02576D01*
X04835Y02569D02*
X04874Y0253D01*
X04816Y02536D02*
X04864Y02584D01*
X04819Y02566D02*
X04874Y02511D01*
X04816Y0265D02*
Y02748D01*
X04813Y0265D02*
X04816Y02652D01*
X04813Y0265D02*
X04825Y02638D01*
X04759Y0265D02*
X04766D01*
X04759D02*
X04766D01*
X04816*
X04774D02*
X04817Y02607D01*
X04767Y02604D02*
X04813Y0265D01*
X04794D02*
X04822Y02621D01*
X04747Y02604D02*
X04793Y0265D01*
X04735D02*
X04781Y02604D01*
X04755Y0265D02*
X04801Y02604D01*
X04709Y0265D02*
X04716D01*
X04709D02*
X04716D01*
X04759*
X04659D02*
X04666D01*
X04659D02*
X04666D01*
X04709*
X04716D02*
X04762Y02604D01*
X04668Y02563D02*
X04754Y0265D01*
X04728Y02604D02*
X04774Y0265D01*
X04658Y02573D02*
X04735Y0265D01*
X04696D02*
X04742Y02604D01*
X04822Y02612D02*
Y02634D01*
X04806Y02604D02*
X04822Y0262D01*
X04813Y02604D02*
X04822Y02612D01*
X04731Y02604D02*
X04813D01*
X04712D02*
X04731D01*
Y02566D02*
X04813D01*
X04816Y02555D02*
X04826Y02566D01*
X04766Y02563D02*
X04816D01*
Y02494D02*
Y02563D01*
X04729D02*
X04759D01*
X04766*
X04712Y02604D02*
X04731D01*
X04677Y0265D02*
X04723Y02604D01*
X04703Y02594D02*
X04712Y02604D01*
X04703Y02594D02*
X04712Y02604D01*
X04678Y02569D02*
X04703Y02594D01*
X04658Y0259D02*
X04678Y0257D01*
X04672Y02563D02*
X04678Y02569D01*
X04672Y02563D02*
X04678Y02569D01*
X04659Y02563D02*
X04666D01*
X04658D02*
Y02596D01*
Y02571D02*
X04665Y02563D01*
X04569Y02775D02*
X04579Y02766D01*
X04568Y02776D02*
X04572Y02779D01*
X04578Y02766D02*
X04581Y02769D01*
X04562Y02782D02*
X04568D01*
X04562D02*
X04565Y02779D01*
X04569Y02775*
X04568Y02782D02*
X04606Y02745D01*
X04564Y02782D02*
X04609Y02737D01*
X04579Y02747D02*
X04591Y02759D01*
X04579Y02747D02*
Y02766D01*
X04569Y02775D02*
X04579Y02766D01*
Y02747D02*
Y02766D01*
X04463Y02779D02*
X04466Y02782D01*
X04463Y02779D02*
X04466Y02782D01*
X04562D02*
X04565Y02779D01*
X04431Y02782D02*
X0445D01*
X04431D02*
X0445D01*
X04466*
X04447D02*
X04456Y02773D01*
X04405Y02729D02*
X04458Y02782D01*
X04405Y02722D02*
X04463Y02779D01*
X0441Y02799D02*
X04446Y02763D01*
X04399Y02743D02*
X04439Y02782D01*
X04606Y02745D02*
X04609Y02741D01*
X04579Y02748D02*
X04609Y02717D01*
X04606Y02745D02*
X04609Y02741D01*
X04579Y02727D02*
X04601Y0275D01*
X04487Y02746D02*
X04491Y02751D01*
X04579Y02669D02*
X04609Y02699D01*
X04579Y02709D02*
X04609Y02678D01*
X04599Y02662D02*
X04609D01*
X04579Y02728D02*
X04609Y02698D01*
X04579Y02708D02*
X04609Y02738D01*
X04579Y02688D02*
X04609Y02719D01*
X04487Y02746D02*
X04491Y02751D01*
X04475Y02734D02*
X04487Y02723D01*
X04471Y02717D02*
X04487Y02733D01*
Y02717D02*
Y02746D01*
X04465Y02725D02*
X04473Y02717D01*
X04464D02*
X04487D01*
X04464Y0271D02*
X04471Y02717D01*
X04455Y02715D02*
X04464Y02706D01*
X04446Y02705D02*
X04464Y02687D01*
X04436Y02695D02*
X04464Y02667D01*
X04422Y02792D02*
X04431Y02782D01*
X04422Y02792D02*
X04431Y02782D01*
X0439Y02753D02*
X04425Y02788D01*
X0439Y02773D02*
X04416Y02798D01*
X04347Y02777D02*
X04352Y02782D01*
X04335Y02777D02*
X04352Y0276D01*
X0439Y0278D02*
X04427Y02743D01*
X0439Y028D02*
X04437Y02753D01*
X0439Y02761D02*
X04417Y02734D01*
X0439Y02751D02*
Y02801D01*
X04352Y02751D02*
Y02782D01*
X04325Y02726D02*
Y0276D01*
X04297Y02794D02*
X04314Y02777D01*
X04297Y02796D02*
X04316Y02777D01*
X04314D02*
X04347D01*
X04297D02*
X04305Y02785D01*
X04282Y02781D02*
X04297Y02796D01*
X04286Y02777D02*
X04308D01*
X04322Y02763D02*
X04336Y02777D01*
X04316D02*
X04347Y02746D01*
X04325Y02747D02*
X04352Y02774D01*
X04312Y02773D02*
X04316Y02777D01*
X04308D02*
X04325Y0276D01*
X04405Y02722D02*
Y02737D01*
X0439Y02751D02*
X04405Y02737D01*
Y02726D02*
X04407Y02724D01*
X04338Y02737D02*
X04352Y02751D01*
X04325Y02727D02*
X04352Y02754D01*
X04338Y02703D02*
Y02737D01*
X04362Y02679D02*
X0437Y02686D01*
X04354Y02679D02*
X04362Y02686D01*
X04355D02*
X0437D01*
X04338Y02703D02*
X04355Y02686D01*
X04335Y02679D02*
X04349Y02692D01*
X04325Y02728D02*
X04338Y02716D01*
X04325Y02748D02*
X04338Y02735D01*
X04316Y02718D02*
X04355Y02679D01*
X04308Y02709D02*
X04325Y02726D01*
X04307Y02709D02*
X04325Y02727D01*
X04275Y02709D02*
X04308D01*
X04305D02*
X04336Y02679D01*
X04296D02*
X04338Y0272D01*
X04315Y02679D02*
X04339Y02702D01*
X04276Y02679D02*
X04307Y02709D01*
X04286D02*
X04316Y02679D01*
X04649Y02642D02*
X04657Y0265D01*
X04645D02*
X04649Y02645D01*
X04645Y0265D02*
X04659D01*
X04609Y02662D02*
Y02741D01*
X04582Y02645D02*
X04599Y02662D01*
X04582Y02631D02*
Y02645D01*
X04658Y02593D02*
X04715Y0265D01*
X04657D02*
X04708Y02599D01*
X04649Y02638D02*
X04698Y02589D01*
X0465Y02604D02*
X04696Y0265D01*
X04649Y02623D02*
X04676Y0265D01*
X04649Y02612D02*
Y02645D01*
X04579Y02649D02*
X04609Y0268D01*
X04579Y02689D02*
X04606Y02662D01*
X04579Y0267D02*
X04592Y02656D01*
X04579Y0265D02*
X04583Y02646D01*
X04579Y02632D02*
Y02747D01*
Y0263D02*
X04582Y02633D01*
X04579Y02627D02*
Y02632D01*
Y02627D02*
Y02632D01*
Y02627D02*
X04582Y02631D01*
X04464Y02629D02*
X04537D01*
X04485Y02629D02*
X04537D01*
X04646Y02609D02*
X04658Y02596D01*
X04646Y02609D02*
X04649Y02612D01*
X04556Y02591D02*
X0456Y02595D01*
Y02585D02*
Y02595D01*
X04556Y02591D02*
X0456Y02595D01*
Y02585D02*
Y02595D01*
X04649Y02619D02*
X04688Y0258D01*
X0456Y02571D02*
Y02585D01*
X04555Y02567D02*
X0456Y02572D01*
X04555Y02567D02*
X0456Y02571D01*
X04551Y02582D02*
X0456Y02591D01*
X04537Y02591D02*
X04556D01*
X04537D02*
X04556D01*
X04541D02*
X04549Y02582D01*
X04485Y02591D02*
X04537D01*
X04477Y02582D02*
X04555D01*
Y02567D02*
Y02582D01*
X04549D02*
X04555Y02576D01*
X0456Y02572*
X04521Y02591D02*
X0453Y02582D01*
X04531D02*
X04539Y02591D01*
X04426Y02686D02*
X04464Y02648D01*
X04391Y0265D02*
X04487Y02746D01*
X04464Y02629D02*
Y02717D01*
X04381Y02641D02*
X04391Y0265D01*
X04381Y02641D02*
X04391Y0265D01*
X04416Y02676D02*
X04465Y02627D01*
X04376Y02583D02*
X04464Y02671D01*
X04396Y02583D02*
X04464Y02652D01*
X04407Y02666D02*
X04455Y02618D01*
X04397Y02656D02*
X04445Y02608D01*
X04387Y02647D02*
X04436Y02598D01*
X04357Y02583D02*
X04464Y02691D01*
X04337Y02583D02*
X04464Y0271D01*
X04374Y02641D02*
X04426Y02588D01*
X04362Y02641D02*
X04381D01*
X04283Y02588D02*
X04336Y02641D01*
X04362D02*
X04381D01*
X04315D02*
X04373Y02583D01*
X04289Y02574D02*
X04355Y02641D01*
X04318Y02583D02*
X04375Y02641D01*
X04276D02*
X04334Y02583D01*
X04296Y02641D02*
X04353Y02583D01*
X04492Y02582D02*
X045Y02591D01*
X04466Y02629D02*
X04485D01*
X04502Y02591D02*
X0451Y02582D01*
X04457Y02619D02*
X04466Y02629D01*
X04457Y02619D02*
X04466Y02629D01*
X04485*
X04512Y02582D02*
X0452Y02591D01*
X04477Y02582D02*
X04485Y02591D01*
X04484Y02589D02*
X04491Y02582D01*
X04439Y02545D02*
X04464Y0257D01*
Y02512D02*
Y0257D01*
X04419Y02582D02*
X04457Y02619D01*
X04415Y02583D02*
X04464Y02632D01*
X04364Y02583D02*
X04419D01*
X04354Y02641D02*
X04412Y02583D01*
X04335Y02641D02*
X04392Y02583D01*
X04306D02*
X04361D01*
X04306Y02574D02*
Y02583D01*
X04301Y02574D02*
X04306D01*
X04301D02*
X04306D01*
X04283D02*
Y02588D01*
Y02574D02*
X04301D01*
X05058Y02519D02*
Y02535D01*
X05033D02*
X05058D01*
X05045D02*
X05058Y02522D01*
X05021Y0254D02*
X05049Y02511D01*
X05021Y02547D02*
X05033Y02535D01*
X05021Y02526D02*
X05031Y02537D01*
X05021Y02487D02*
X05058Y02525D01*
X05021Y02507D02*
X05049Y02535D01*
X05021Y02482D02*
X05058Y02519D01*
X05021Y02501D02*
X0503Y02491D01*
X05021Y02485D02*
Y02547D01*
Y02479D02*
X05022Y02482D01*
X04921Y02544D02*
X04927Y02549D01*
X04874Y02544D02*
X04929D01*
X05021Y0252D02*
X0504Y02501D01*
X04816Y0255D02*
X04871Y02494D01*
X04872D02*
X04874Y02496D01*
X04833Y02494D02*
X04874Y02535D01*
X04849Y02494D02*
X04874D01*
Y02544*
X04852Y02494D02*
X04874Y02516D01*
X05049Y02453D02*
X0506Y02442D01*
X05044Y02447D02*
X05048Y02452D01*
X05047Y02436D02*
X0506Y02423D01*
X05044Y02447D02*
X05047Y02445D01*
X04909Y02456D02*
X04914Y02451D01*
X04952Y02433D02*
X0496Y02425D01*
X0506Y02401D02*
Y02445D01*
X05047Y02416D02*
X0506Y02429D01*
X05047Y02416D02*
X0506Y02403D01*
X05047Y02401D02*
Y02445D01*
X0496Y02401D02*
Y0244D01*
X04942Y02423D02*
X0496Y02406D01*
X0489Y02456D02*
X04904Y02442D01*
X0487Y02456D02*
X04894Y02432D01*
X04859Y02456D02*
X04919D01*
X04859Y02448D02*
X04885Y02422D01*
X04859Y02442D02*
X04873Y02456D01*
X04849Y02415D02*
X04859Y02424D01*
X04846Y02391D02*
X04912Y02456D01*
X04826Y02391D02*
X04892Y02456D01*
X04853Y02391D02*
X04919Y02456D01*
X04859Y02429D02*
X04875Y02412D01*
X04851Y02417D02*
X04865Y02403D01*
X0483Y02494D02*
X04849D01*
X04816Y0253D02*
X04852Y02494D01*
X0483D02*
X04849D01*
X04816Y02511D02*
X04832Y02494D01*
X04759Y02563D02*
X04766D01*
X0483Y02494D02*
X04849D01*
X04859Y02424D02*
Y02443D01*
Y02456*
Y02424D02*
Y02443D01*
X04821D02*
Y02456D01*
X04816Y02494D02*
X0483D01*
X04819Y02442D02*
Y02456D01*
X04666Y02563D02*
X04672D01*
X04659D02*
X04666D01*
X04597Y02515D02*
X04609Y02503D01*
X04597Y02493D02*
X04609Y02505D01*
X04587Y02502D02*
X046Y02515D01*
X04601Y02489D02*
X04608D01*
X04609Y02487D02*
Y02515D01*
X04601Y02489D02*
X04608D01*
X04595Y02444D02*
X04629Y02411D01*
X04586Y02503D02*
X04601Y02489D01*
X04586Y02436D02*
X04595Y02444D01*
X04849Y02415D02*
X04859Y02424D01*
X04754Y02421D02*
X04763Y02413D01*
X04749D02*
X04763D01*
X0474Y02421D02*
X04754D01*
X0474D02*
X04749Y02413D01*
X04751D02*
X04757Y02419D01*
X04841Y02407D02*
X04855Y02393D01*
X04825Y02391D02*
X04849Y02415D01*
X04825Y02391D02*
X04853D01*
X04749Y02421D02*
X04758Y02413D01*
X04832Y02397D02*
X04838Y02391D01*
X04629Y02411D02*
X04635Y02405D01*
X04629Y02411D02*
X04635Y02405D01*
X04616D02*
X04635D01*
X04594Y02412D02*
X04611Y02428D01*
X04585Y02422D02*
X04601Y02438D01*
X04626Y02405D02*
X04631Y02409D01*
X04607Y02405D02*
X04621Y02419D01*
X04592Y02442D02*
X04629Y02405D01*
X04602D02*
X04616D01*
X04602D02*
X04616D01*
X04602D02*
X04616D01*
X05025Y0238D02*
X05047Y02401D01*
X05017Y02367D02*
X0506Y02409D01*
X05024Y0238D02*
X05037Y02367D01*
X05005Y0238D02*
X05018Y02367D01*
X0496Y02401D02*
X04981Y0238D01*
X05025*
X05047Y02298D02*
Y02367D01*
X04998D02*
X05011Y0238D01*
X0496Y02367D02*
X05047D01*
X04986Y0238D02*
X04998Y02367D01*
X04978D02*
X04991Y0238D01*
X0496Y02298D02*
Y02367D01*
X04933Y02413D02*
X04979Y02367D01*
X04882Y02362D02*
X0496Y0244D01*
X04923Y02403D02*
X0496Y02367D01*
X04913Y02394D02*
X0496Y02347D01*
X04844Y02311D02*
X0496Y02426D01*
X04903Y02384D02*
X0496Y02328D01*
X04889Y02298D02*
X04976Y02385D01*
X0487Y02298D02*
X04967Y02394D01*
X04894Y02374D02*
X0496Y02308D01*
X0485Y02298D02*
X0496Y02407D01*
X04884Y02364D02*
X04951Y02298D01*
X0506Y02301D02*
Y02345D01*
X05047Y02358D02*
X0506Y02345D01*
X05047Y02338D02*
X0506Y02325D01*
X04872Y02353D02*
X04882Y02362D01*
X04872Y02353D02*
X04882Y02362D01*
X04853Y02353D02*
X04872D01*
X04928Y02298D02*
X0496Y02329D01*
X04909Y02298D02*
X0496Y02348D01*
X04948Y02298D02*
X0496Y02309D01*
X04874Y02355D02*
X04931Y02298D01*
X04857Y02353D02*
X04912Y02298D01*
X04844Y0233D02*
X04866Y02353D01*
X04844D02*
X04853D01*
X04872*
X04844Y0235D02*
X04847Y02353D01*
X0474D02*
X04757Y02336D01*
X04746Y0231D02*
X04757Y02321D01*
X04844Y02326D02*
X04873Y02298D01*
X04844Y02346D02*
X04892Y02298D01*
X04844D02*
X0496D01*
X04844D02*
Y02353D01*
Y02307D02*
X04853Y02298D01*
X04744Y02347D02*
X04749Y02353D01*
X04739D02*
X04757D01*
X04744Y02328D02*
X04757Y0234D01*
X04657Y02348D02*
X04661Y02353D01*
X04644Y02344D02*
X04652Y02353D01*
X04739D02*
X04744Y02348D01*
X04757Y02298D02*
Y02353D01*
X04744Y02329D02*
X04757Y02316D01*
X04744Y02311D02*
X04757Y02298D01*
X04657Y02304D02*
Y02348D01*
X04644Y02304D02*
Y02348D01*
X04744Y02311D02*
Y02348D01*
X04642Y02353D02*
X04657Y02338D01*
X04639Y02353D02*
X04644Y02348D01*
X04639Y02353D02*
X04661D01*
X04579Y0237D02*
X04583Y02367D01*
X04579Y0237D02*
X04583Y02367D01*
X04644Y02332D02*
X04657Y02319D01*
X04644Y02325D02*
X04657Y02338D01*
X04644Y02312D02*
X04692Y02264D01*
X04644Y02305D02*
X04657Y02318D01*
X04729Y02269D02*
X04735Y02264D01*
X04715Y02283D02*
X04729Y02269D01*
X04735Y02264*
X04679Y02283D02*
X04715D01*
X04657Y02304D02*
X04679Y02283D01*
X04719Y02264D02*
X04727Y02271D01*
X04712Y02283D02*
X04731Y02264D01*
X04693Y02283D02*
X04712Y02264D01*
X04699D02*
X04717Y02281D01*
X0466Y02264D02*
X0468Y02283D01*
X0468Y02264D02*
X04699Y02283D01*
X04641Y02264D02*
X04669Y02292D01*
X04638Y02299D02*
X04673Y02264D01*
X04628Y02289D02*
X04653Y02264D01*
X04622Y02283D02*
X04644Y02304D01*
X04621Y02283D02*
X04644Y02305D01*
X04579Y02283D02*
X04622D01*
X04622Y02264D02*
X0466Y02302D01*
X04615Y02283D02*
X04634Y02264D01*
X04602D02*
X04621Y02283D01*
X04583Y02264D02*
X04602Y02283D01*
X04595D02*
X04615Y02264D01*
X04569Y02503D02*
X0458Y02515D01*
X04555D02*
X04574D01*
X04609*
X04555D02*
X04574D01*
X04555Y02509D02*
X04561Y02515D01*
X04555D02*
X04574D01*
X04578D02*
X04604Y02489D01*
X04558Y02515D02*
X0457Y02503D01*
X04555D02*
X04586D01*
X04555D02*
Y02515D01*
X04536Y02486D02*
X04544Y02494D01*
X04526Y0248D02*
X04541Y02494D01*
X04454Y0256D02*
X04464Y0255D01*
X04442Y02532D02*
X04464Y02554D01*
X04451Y02522D02*
X04464Y02535D01*
X04445Y0255D02*
X04464Y02531D01*
X04434Y02539D02*
X04439Y02545D01*
X04434Y02539D02*
X04439Y02545D01*
X04461Y02512D02*
X04464Y02515D01*
X04435Y02541D02*
X04464Y02512D01*
X0452Y02494D02*
X04536Y02479D01*
X04434Y02539D02*
X04462Y02512D01*
X04391Y02525D02*
X04433Y02483D01*
X04539Y02494D02*
X04542Y02492D01*
X04512Y02494D02*
X04544D01*
X0457Y02436D02*
X04586D01*
X04516Y0249D02*
X04521Y02494D01*
X04512D02*
X04536Y0247D01*
Y02486*
X04575Y02431D02*
X04579Y02436D01*
X0457D02*
X04602Y02405D01*
X04579Y02436D02*
X0461Y02405D01*
X04499Y02434D02*
X04507Y02442D01*
X04499Y02424D02*
Y0245D01*
X04482Y02407D02*
X04499Y02424D01*
X04443Y02474D02*
X04446Y02471D01*
X04443Y02474D02*
X04448D01*
X04443D02*
X04448D01*
X04433Y02483D02*
X04443Y02474D01*
X04419Y02471D02*
X04433Y02484D01*
X04433Y02483D02*
X04443Y02474D01*
X04444Y02391D02*
X0446Y02407D01*
X04432Y02457D02*
X04448Y02474D01*
X0446Y02407D02*
X04482D01*
X04419Y02478D02*
X04436Y02462D01*
X04419Y02451D02*
X04442Y02474D01*
X044Y0249D02*
X04413Y02503D01*
X04385Y02495D02*
X04403Y02513D01*
X0439Y0249D02*
X04419D01*
X04376Y02505D02*
X04394Y02523D01*
X04366Y02515D02*
X04377Y02525D01*
X04365Y02515D02*
X0439Y0249D01*
X04432Y02435D02*
Y02457D01*
X04419Y02459D02*
X04432Y02446D01*
X04407Y02419D02*
X04432Y02444D01*
X04419Y0249D02*
X04423Y02494D01*
X04372Y02525D02*
X04407Y0249D01*
X04419Y02432D02*
Y0249D01*
X04364Y02525D02*
X04391D01*
X04329D02*
X04361D01*
X04356Y02525D02*
X04365Y02515D01*
X04337Y02525D02*
X04356D01*
X0433D02*
X04337D01*
X04356*
X04365Y02515*
X04283Y02442D02*
X04306D01*
X04299D02*
X04306Y02435D01*
X04283Y02428D02*
Y02442D01*
Y02432D02*
X04294Y02442D01*
X04419Y02439D02*
X04428Y02431D01*
X04416Y02419D02*
X04432Y02435D01*
X04364Y02432D02*
X04419D01*
X04388Y02419D02*
X04401Y02432D01*
X04387D02*
X044Y02419D01*
X04407Y02432D02*
X04418Y02421D01*
X04368Y02432D02*
X04381Y02419D01*
X04349D02*
X04362Y02432D01*
X04368Y02419D02*
X04381Y02432D01*
X04329Y02419D02*
X04342Y02432D01*
X04348D02*
X04361Y02419D01*
X04329Y02432D02*
X04342Y02419D01*
X04309Y02432D02*
X04322Y02419D01*
X04306Y02432D02*
X04361D01*
X04306Y02435D02*
X04309Y02432D01*
X04306D02*
Y02442D01*
X04279Y02428D02*
X04283Y02432D01*
X0429Y02419D02*
X04306Y02436D01*
X04283Y02439D02*
X04303Y02419D01*
X0431D02*
X04323Y02432D01*
X04271Y02419D02*
X04279Y02428D01*
X04275D02*
X04283Y02419D01*
X04573Y02376D02*
X04579Y0237D01*
X04573Y02376D02*
X04579Y0237D01*
X04557Y02348D02*
X04579Y0237D01*
X04499Y02437D02*
X04573Y02364D01*
X04499Y0245D02*
X04573Y02376D01*
X04496Y02421D02*
X04563Y02354D01*
X04535Y02333D02*
X04576Y02374D01*
X04525Y02342D02*
X04566Y02383D01*
X04557Y02304D02*
Y02348D01*
X04526Y02342D02*
X04543Y02325D01*
X04505Y02342D02*
X04556Y02393D01*
X04504Y02342D02*
X04526D01*
X04485Y02361D02*
X04537Y02413D01*
X04476Y02371D02*
X04527Y02422D01*
X04495Y02352D02*
X04546Y02403D01*
X04466Y02381D02*
X04517Y02432D01*
X04456Y02403D02*
X04516Y02342D01*
X04471Y02376D02*
X04504Y02342D01*
X04487Y02411D02*
X04557Y02341D01*
X04471Y02407D02*
X04557Y02321D01*
X04419Y02342D02*
X04498Y02264D01*
X04442Y02347D02*
X04476Y02314D01*
X04433Y02347D02*
X04476Y02305D01*
X04543Y02322D02*
X04557Y02335D01*
Y02304D02*
X04579Y02283D01*
X04543Y02302D02*
X04557Y02316D01*
X04543Y02292D02*
Y02325D01*
X04526Y02275D02*
X04543Y02292D01*
Y02296D02*
X04576Y02264D01*
X04543Y02315D02*
X04595Y02264D01*
X04563D02*
X04582Y02283D01*
X04544Y02264D02*
X04571Y02291D01*
X04536Y02284D02*
X04556Y02264D01*
X04525Y02275D02*
X04537Y02264D01*
X04524D02*
X04561Y023D01*
X04493Y02275D02*
X04526D01*
X04476Y02292D02*
X04493Y02275D01*
X04476Y02292D02*
Y02314D01*
X04505Y02264D02*
X04516Y02275D01*
X04485Y02264D02*
X04496Y02275D01*
X04466Y02264D02*
X04485Y02283D01*
X04506Y02275D02*
X04517Y02264D01*
X04404Y02337D02*
X04478Y02264D01*
X04446D02*
X04476Y02293D01*
X04451Y02385D02*
X04473Y02407D01*
X04442Y02385D02*
X04461D01*
X04442D02*
X04461D01*
X04446Y02393D02*
X04454Y02385D01*
X04439D02*
X04444Y02391D01*
X04439Y02385D02*
X04442D01*
X04461D02*
X04471Y02376D01*
X04461Y02385D02*
X04471Y02376D01*
X04368Y02264D02*
X04447Y02342D01*
X04439Y02385D02*
X04444Y02391D01*
X04419Y02347D02*
X04442D01*
X04419Y02337D02*
Y02347D01*
X04306Y02337D02*
Y02347D01*
X04303D02*
X04306D01*
X04297Y02347D02*
X04306Y02338D01*
X04283Y02347D02*
X04302D01*
X04283Y02334D02*
X04295Y02347D01*
X04283D02*
X04302D01*
X04349Y02264D02*
X04432Y02347D01*
X04283Y02342D02*
X04361Y02264D01*
X04346Y02337D02*
X0442Y02264D01*
X04283Y02332D02*
Y02347D01*
X0427Y02302D02*
X04306Y02338D01*
X04407Y02264D02*
X04467Y02323D01*
X04385Y02337D02*
X04459Y02264D01*
X04427D02*
X04476Y02313D01*
X04364Y02337D02*
X04419D01*
X04306D02*
X04361D01*
X04388Y02264D02*
X04457Y02333D01*
X04329Y02264D02*
X04403Y02337D01*
X04326D02*
X044Y02264D01*
X04365Y02337D02*
X04439Y02264D01*
X04307Y02337D02*
X04381Y02264D01*
X0431D02*
X04383Y02337D01*
X04281Y02332D02*
X04283Y02334D01*
X0427Y02332D02*
X04283D01*
X0427Y02322D02*
X04281Y02332D01*
X0427Y0229D02*
Y02309D01*
Y02332*
Y0229D02*
Y02309D01*
X0429Y02264D02*
X04364Y02337D01*
X04271Y02264D02*
X04345Y02337D01*
X04273Y02332D02*
X04342Y02264D01*
X0427Y02315D02*
X04322Y02264D01*
X0427Y02296D02*
X04303Y02264D01*
X04256Y03383D02*
X04269Y03369D01*
X04251Y03374D02*
X04259Y03383D01*
X04243D02*
X04842D01*
X04247Y03379D02*
X04256Y03369D01*
X04243Y03383D02*
X04247Y03379D01*
X04256Y03369*
X04266Y03252D02*
X04396Y03383D01*
X04265Y03369D02*
X04279Y03383D01*
X04256Y03369D02*
X04275D01*
X042Y03276D02*
Y03357D01*
X04184D02*
X042Y03341D01*
X04165Y03337D02*
X042Y03302D01*
X04165Y03356D02*
X042Y03322D01*
X04165Y03357D02*
X042D01*
X04165Y03307D02*
X042Y03342D01*
X04165Y03346D02*
X04175Y03357D01*
X04165Y03327D02*
X04194Y03357D01*
X04165Y03318D02*
X042Y03283D01*
X04165Y03288D02*
X042Y03323D01*
X04165Y03298D02*
X0421Y03252D01*
X04165Y03276D02*
Y03357D01*
X04124Y03228D02*
X042Y03303D01*
X04246Y03252D02*
X0427Y03276D01*
X04245D02*
X04269Y03252D01*
X042Y03276D02*
X04275D01*
X04226D02*
X04249Y03252D01*
X042Y03283D02*
X04206Y03276D01*
X04227Y03252D02*
X0425Y03276D01*
X04265D02*
X04288Y03252D01*
X04207D02*
X04231Y03276D01*
X04214Y03252D02*
X04299D01*
X04206Y03276D02*
X0423Y03252D01*
X04195D02*
X04214D01*
X04195D02*
X04214D01*
X04182Y03246D02*
X04211Y03276D01*
X04165Y03279D02*
X04193Y0325D01*
X04189Y03246D02*
X04195Y03252D01*
X04148Y03276D02*
X04177Y03246D01*
X04089Y03276D02*
X04165D01*
X04167Y03246D02*
X04189D01*
X04195Y03252*
X04143Y03228D02*
X042Y03284D01*
X0415Y03229D02*
X04167Y03246D01*
X04105Y03228D02*
X04153Y03276D01*
X04128D02*
X04162Y03242D01*
X04087Y03356D02*
X04089Y03354D01*
X04035Y03362D02*
X04056Y03383D01*
X04077Y03347D02*
X04089Y03334D01*
X04041Y03383D02*
X04049Y03375D01*
X04026Y03352D02*
X04035Y03362D01*
X04026Y03352D02*
X04035Y03362D01*
X04067Y03337D02*
X04089Y03315D01*
X04064Y03323D02*
X04089Y03349D01*
X04064Y03304D02*
X04089Y03329D01*
Y03276D02*
Y03357D01*
X04064Y03333D02*
X04087Y03357D01*
X04064Y03301D02*
Y03333D01*
X04002Y03383D02*
X04029Y03356D01*
X03983Y03383D02*
X04026Y0334D01*
X04022Y03383D02*
X04039Y03365D01*
X04026Y03333D02*
Y03352D01*
X03963Y03383D02*
X04026Y0332D01*
Y03333D02*
Y03352D01*
X03944Y03262D02*
X04026Y03343D01*
X03927Y03264D02*
X04045Y03383D01*
X04026Y03301D02*
Y03333D01*
X03924Y03383D02*
X04019Y03288D01*
X03944Y03383D02*
X04025Y03301D01*
X04064Y03321D02*
X04089Y03295D01*
X0407Y03291D02*
X04089Y0331D01*
X04064Y03301D02*
X0407Y03294D01*
Y03271D02*
X04089Y0329D01*
X04109Y03276D02*
X04153Y03232D01*
X04064Y03302D02*
X04138Y03228D01*
X04091D02*
X0415D01*
X0407Y03269D02*
Y03294D01*
Y03275D02*
X04118Y03228D01*
X04057Y03256D02*
X0407Y03269D01*
X04019D02*
X04032Y03256D01*
X04057*
X04019Y03269D02*
Y03294D01*
X04026Y03301*
X03909Y03264D02*
X03942D01*
X03959Y03238D02*
X04026Y03305D01*
X03954Y03253D02*
X04026Y03324D01*
X03942Y03264D02*
X03959Y03247D01*
X04209Y03126D02*
X04218Y03135D01*
X04153D02*
X04203Y03084D01*
X04218Y03135D02*
X04264D01*
X04167Y03135D02*
X04176Y03126D01*
X04231Y03135D02*
X04363Y03002D01*
X04173Y03062D02*
X04245Y03135D01*
X0425D02*
X04363Y03021D01*
X04133Y03135D02*
X04198Y0307D01*
X04114Y03135D02*
X04186Y03062D01*
X04163Y03071D02*
X04226Y03135D01*
X0404Y03183D02*
X04133Y03276D01*
X0402Y03183D02*
X04114Y03276D01*
X04064Y03262D02*
X04099Y03228D01*
X04001Y03183D02*
X04094Y03276D01*
X04051Y03256D02*
X04091Y03215D01*
X04088Y03139D02*
X04091Y03135D01*
X04088Y03139D02*
X04091Y03135D01*
Y03137D02*
X04094Y03135D01*
X04091Y03135D02*
Y03228D01*
X04081Y03146D02*
X04091Y03156D01*
X04264Y03134D02*
X04281Y03117D01*
X04264Y03134D02*
X04281Y03117D01*
X04253Y03084D02*
X04286Y03117D01*
X04215Y03131D02*
X04262Y03084D01*
X04176Y03126D02*
X04209D01*
X04234Y03084D02*
X04274Y03124D01*
X04214Y03084D02*
X04264Y03134D01*
X042Y03126D02*
X04242Y03084D01*
X04181Y03126D02*
X04223Y03084D01*
X04136D02*
X04178Y03126D01*
X04117Y03084D02*
X04167Y03134D01*
X04156Y03084D02*
X04198Y03126D01*
X04098Y03123D02*
X04109Y03135D01*
X04092D02*
X04098Y03129D01*
X04092Y03135D02*
X04167D01*
X04098Y0311D02*
Y03129D01*
X04092Y03135D02*
X04098Y03129D01*
Y0311D02*
Y03129D01*
Y03104D02*
X04128Y03135D01*
X04094D02*
X04145Y03084D01*
X04098Y03084D02*
X04148Y03135D01*
X04098Y03112D02*
X04126Y03084D01*
X04098D02*
Y0311D01*
X04052Y03175D02*
X04091Y03214D01*
X03982Y03183D02*
X04055Y03256D01*
X04025Y03183D02*
X04044D01*
X03962D02*
X04035Y03256D01*
X03959Y03231D02*
X04007Y03183D01*
X04025D02*
X04044D01*
X04071Y03155D02*
X04091Y03176D01*
X04062Y03165D02*
X04091Y03195D01*
X04054Y03173D02*
X04088Y03139D01*
X04044Y03183D02*
X04054Y03173D01*
X04044Y03183D02*
X04054Y03173D01*
X04006Y03145D02*
X0406Y03091D01*
X03959Y03214D02*
Y03247D01*
Y03219D02*
X04019Y03278D01*
X03958Y03212D02*
X03988Y03183D01*
X03942Y03197D02*
X03959Y03214D01*
X03909Y03197D02*
X03942D01*
X03948Y03203D02*
X03968Y03183D01*
X03943D02*
X04024Y03264D01*
X03935Y03197D02*
X03949Y03183D01*
X03915Y03197D02*
X03929Y03183D01*
X03923D02*
X03937Y03197D01*
X04017Y03121D02*
X04033Y03137D01*
X04006Y03129D02*
X04021Y03145D01*
X04009Y03129D02*
X04019Y03119D01*
X0399Y03129D02*
X04009D01*
X0399D02*
X04009D01*
X04019Y03119*
X04025Y03145D02*
X0406Y0311D01*
X04019Y03119D02*
X04055Y03083D01*
X0406Y03078D02*
Y0311D01*
X04027Y03111D02*
X04043Y03127D01*
X04037Y03101D02*
X04052Y03117D01*
X03947Y03129D02*
X03963Y03145D01*
X03928D02*
X03944Y03129D01*
X03907D02*
X0399D01*
X03909Y03145D02*
X03925Y03129D01*
X03908D02*
X03924Y03145D01*
X03928Y03129D02*
X03944Y03145D01*
X03986Y03129D02*
X04002Y03145D01*
X03967D02*
X03983Y03129D01*
X03987Y03145D02*
X04003Y03129D01*
X03948Y03145D02*
X03964Y03129D01*
X03967D02*
X03982Y03145D01*
X03827Y0332D02*
X03889Y03383D01*
X03808Y0332D02*
X0387Y03383D01*
X03847Y0332D02*
X03909Y03383D01*
X03768D02*
X03831Y0332D01*
X03749Y03383D02*
X03811Y0332D01*
X03788D02*
X0385Y03383D01*
X0386Y03276D02*
X03967Y03383D01*
X0386Y03295D02*
X03948Y03383D01*
X0386Y03256D02*
X03987Y03383D01*
X03788D02*
X0385Y0332D01*
X03741Y03293D02*
X03831Y03383D01*
X0386Y03315D02*
X03928Y03383D01*
X03712Y03322D02*
X03772Y03383D01*
X0371D02*
X03772Y0332D01*
X02852Y03383D02*
X04056D01*
X03674Y03323D02*
X03733Y03383D01*
X03655Y03323D02*
X03714Y03383D01*
X03693Y03323D02*
X03753Y03383D01*
X03729D02*
X03792Y0332D01*
X03721Y03312D02*
X03792Y03383D01*
X03731Y03302D02*
X03811Y03383D01*
X0369D02*
X03769Y03304D01*
X03651Y03383D02*
X03769Y03265D01*
X0386Y0331D02*
X03907Y03263D01*
X03807Y03383D02*
X03926Y03264D01*
X0386Y03291D02*
X03898Y03253D01*
X03892Y03247D02*
X03909Y03264D01*
X0386Y03271D02*
X03892Y0324D01*
X03857Y03253D02*
X0386Y03256D01*
Y03253D02*
Y0332D01*
X03799Y03234D02*
X03818Y03253D01*
X03789Y03244D02*
X03799Y03253D01*
X03769Y0332D02*
X0386D01*
X0375Y03283D02*
X03769Y03302D01*
X0371Y03323D02*
X0372Y03314D01*
X03671Y03383D02*
X03769Y03284D01*
X0371Y03323D02*
X0372Y03314D01*
X0376Y03273D02*
X03769Y03282D01*
X0372Y03314D02*
X03769Y03264D01*
X0378Y03253D02*
X0386D01*
X03769Y03264D02*
Y0332D01*
X03722Y03235D02*
X03732Y03245D01*
X03632Y03383D02*
X03691Y03323D01*
X03611Y03319D02*
X03675Y03383D01*
X03635Y03323D02*
X03694Y03383D01*
X03593D02*
X03652Y03323D01*
X03573Y03383D02*
X03633Y03323D01*
X03612Y03383D02*
X03672Y03323D01*
X03572Y03319D02*
X03636Y03383D01*
X03554D02*
X03618Y03319D01*
X03592D02*
X03655Y03383D01*
X03534D02*
X03598Y03319D01*
X03533D02*
X03597Y03383D01*
X03553Y03319D02*
X03616Y03383D01*
X03514Y03319D02*
X03577Y03383D01*
X03476D02*
X0354Y03319D01*
X03515Y03383D02*
X03579Y03319D01*
X03455D02*
X03519Y03383D01*
X03437D02*
X03501Y03319D01*
X03475D02*
X03538Y03383D01*
X03418D02*
X03481Y03319D01*
X03416D02*
X0348Y03383D01*
X03436Y03319D02*
X03499Y03383D01*
X0339Y03312D02*
X0346Y03383D01*
X03398D02*
X03462Y03319D01*
X03691Y03323D02*
X0371D01*
X03691D02*
X0371D01*
X03672Y03283D02*
X03693D01*
X03651Y03285D02*
X03663Y03274D01*
X0365Y03279D02*
X03655Y03285D01*
X03655Y03266D02*
X03672Y03283D01*
X03655Y03265D02*
X03673Y03283D01*
X0365Y03267D02*
X03655Y03262D01*
X0365Y0326D02*
X03655Y03265D01*
X0365Y03248D02*
X03655Y03243D01*
X0365Y03241D02*
X03655Y03246D01*
X03626Y03323D02*
X03645D01*
X03626D02*
X03645D01*
X03691*
X03622Y03319D02*
X03626Y03323D01*
X03622Y03319D02*
X03626Y03323D01*
X03397Y03319D02*
X03622D01*
X03496Y03383D02*
X03559Y03319D01*
X03494D02*
X03558Y03383D01*
X0365Y03285D02*
X03691D01*
X03379Y03383D02*
X03442Y03319D01*
X03457Y03383D02*
X0352Y03319D01*
X03905Y03383D02*
X04091Y03196D01*
X03892Y03214D02*
X03909Y03197D01*
X03892Y03214D02*
Y03247D01*
X03859Y03253D02*
X03892Y0322D01*
X03848Y03185D02*
X03892Y03229D01*
X03866Y03383D02*
X04091Y03157D01*
X03846Y03383D02*
X04091Y03137D01*
X03885Y03383D02*
X04091Y03176D01*
X03884Y03183D02*
X03904Y03202D01*
X03865Y03183D02*
X03894Y03212D01*
X03904Y03183D02*
X03918Y03197D01*
X03838Y03195D02*
X04026Y03383D01*
X03828Y03205D02*
X04006Y03383D01*
X03827D02*
X04027Y03183D01*
X03819Y03215D02*
X03857Y03253D01*
X03809Y03224D02*
X03838Y03253D01*
X03839D02*
X0391Y03183D01*
X038Y03253D02*
X03871Y03183D01*
X03781Y03253D02*
X03851Y03183D01*
X0382Y03253D02*
X0389Y03183D01*
X03722Y03253D02*
X03835Y0314D01*
X0378Y03253D02*
X03851Y03183D01*
X03889Y03145D02*
X03905Y03129D01*
X03888D02*
X03907D01*
X03888D02*
X03907D01*
X0387Y03145D02*
X03887Y03128D01*
X0386Y03139D02*
X03866Y03145D01*
X03889Y03129D02*
X03905Y03145D01*
X03879Y03119D02*
X03888Y03129D01*
X0386Y0312D02*
X03885Y03145D01*
X03879Y03119D02*
X03888Y03129D01*
X0386Y03101D02*
X03879Y03119D01*
X0386Y03115D02*
X03867Y03108D01*
X03851Y03145D02*
X04025D01*
X03851Y03183D02*
X04025D01*
X0385Y03145D02*
X03855Y0314D01*
X03832Y03145D02*
X03851D01*
X03822Y03154D02*
X03832Y03145D01*
X03851*
X03855Y0314D02*
X0386Y03135D01*
X03777Y0314D02*
X0386D01*
Y03135D02*
X03877Y03118D01*
X03842Y0314D02*
X03846Y03145D01*
X0386Y03101D02*
Y0314D01*
X03722Y03196D02*
X03751Y03225D01*
X03712Y03206D02*
X03741Y03235D01*
X03732Y03186D02*
X03761Y03215D01*
X03722Y03233D02*
Y03254D01*
X03712Y03223D02*
X03722Y03233D01*
X03712Y03205D02*
Y03223D01*
X03722Y03234D02*
X03816Y0314D01*
X03722Y03254D02*
X03822Y03154D01*
X03713Y03223D02*
X03796Y0314D01*
X03741Y03176D02*
X03771Y03206D01*
X03712Y03205D02*
X03777Y0314D01*
X03751Y03167D02*
X0378Y03196D01*
X03655Y03233D02*
X03665Y03223D01*
X0365Y03228D02*
X03665Y03213D01*
X0365Y03202D02*
X03665Y03217D01*
X03655Y03233D02*
Y03266D01*
X0365Y03221D02*
X03658Y03229D01*
X03665Y03205D02*
Y03223D01*
Y03182D02*
Y03205D01*
X0365Y03209D02*
X03665Y03194D01*
X0365Y03182D02*
X03665Y03197D01*
X0365Y03074D02*
Y03285D01*
X03665Y03182D02*
Y03205D01*
X03771Y03147D02*
X038Y03176D01*
X03761Y03157D02*
X0379Y03186D01*
X03822Y03154D02*
X03832Y03145D01*
X03665Y03182D02*
X03677Y0317D01*
X03665Y03182D02*
X03677Y0317D01*
X0365Y03163D02*
X03667Y0318D01*
X03803Y0314D02*
X03819Y03157D01*
X03784Y0314D02*
X0381Y03167D01*
X03823Y0314D02*
X03829Y03147D01*
X0365Y03189D02*
X03755Y03084D01*
X03677Y0317D02*
X03751Y03095D01*
X0365Y0315D02*
X03716Y03084D01*
X0365Y0317D02*
X03735Y03084D01*
X0365Y03085D02*
X03706Y03141D01*
X0365Y03124D02*
X03686Y0316D01*
X0365Y03143D02*
X03677Y0317D01*
X0365Y03104D02*
X03696Y0315D01*
X03618Y03034D02*
X03715Y03131D01*
X03584Y0298D02*
X03725Y03121D01*
X03594Y02971D02*
X03735Y03111D01*
X0365Y03131D02*
X03703Y03078D01*
X0365Y03111D02*
X03693Y03068D01*
X04198Y03084D02*
X04273D01*
X04192Y03062D02*
X04198Y03067D01*
X0417Y03062D02*
X04198D01*
Y03084*
X04098D02*
X04163D01*
Y03066D02*
X04168Y03061D01*
X04207Y02941D02*
X04218Y02951D01*
X042D02*
X0421Y02941D01*
X04192Y02951D02*
X04235D01*
X04163Y03055D02*
Y03084D01*
Y03055D02*
X0417Y03062D01*
X04098Y03092D02*
X04106Y03084D01*
X04046Y03091D02*
X0406Y03105D01*
X04056Y03082D02*
X0406Y03085D01*
X04055Y03083D02*
X0406Y03078D01*
X04055Y03083D02*
X0406Y03078D01*
X04045Y02972D02*
X04056Y0296D01*
X04066Y02951*
X04045Y0297D02*
X04074Y02941D01*
X04056Y0296D02*
X04066Y02951D01*
X04045Y02953D02*
X04054Y02963D01*
X04051Y02941D02*
X04064Y02953D01*
X04227Y02941D02*
X04236Y0295D01*
X0421Y02941D02*
X04229D01*
X0421D02*
X04229D01*
X04195Y02948D02*
X04198Y02951D01*
X04142D02*
X04145Y02947D01*
X04202Y02941D02*
X0421D01*
X04229D02*
X04238Y02931D01*
X04229Y02941D02*
X04238Y02931D01*
X04238Y02932D02*
X04246Y0294D01*
X04139Y02941D02*
X04149Y02951D01*
X04129Y02941D02*
X0414Y02951D01*
X04192D02*
X04202Y02941D01*
X04122Y02951D02*
X04132Y02941D01*
X0411D02*
X0412Y02951D01*
X04085D02*
X04149D01*
X04066D02*
X04085D01*
X04066D02*
X04085D01*
X0409Y02941D02*
X04101Y02951D01*
X04103D02*
X04113Y02941D01*
X04083Y02951D02*
X04093Y02941D01*
X04051D02*
X04139D01*
X04071D02*
X04081Y02951D01*
X04045Y0295D02*
X04054Y02941D01*
X03985Y03038D02*
Y03062D01*
X04007Y03041*
X03985Y0305D02*
X03991Y03056D01*
X03918Y03038D02*
Y03052D01*
X04007Y02947D02*
Y03041D01*
X03985Y03049D02*
X04007Y03027D01*
X03981Y03034D02*
X04007Y03008D01*
X03968Y03021D02*
X03985Y03038D01*
X03918D02*
X03935Y03021D01*
X03911Y03045D02*
X03918Y03038D01*
X03902Y03036D02*
X03918Y03052D01*
Y03038D02*
X03935Y03021D01*
X03892Y03026D02*
X03902Y03036D01*
X03892Y03026D02*
X03902Y03036D01*
X03873Y03026D02*
X03892D01*
X03907Y02933D02*
X04007Y03032D01*
X03901Y03035D02*
X04004Y02933D01*
X03825Y02928D02*
X03926Y0303D01*
X03825Y02948D02*
X03918Y03041D01*
X03825Y02977D02*
Y03026D01*
X04045Y02947D02*
Y02972D01*
X03954Y03021D02*
X04007Y02969D01*
X04045Y02947D02*
X04051Y02941D01*
X03971Y03024D02*
X04007Y02988D01*
X03935Y03021D02*
X04007Y02949D01*
Y02933D02*
Y02947D01*
X03985Y02933D02*
X04007Y02954D01*
X03946Y02933D02*
X04007Y02993D01*
X03967Y02933D02*
X04007D01*
X03966D02*
X04007Y02974D01*
Y02933D02*
Y02947D01*
X03935Y03021D02*
X03968D01*
X03891Y03026D02*
X03984Y02933D01*
X03927D02*
X04007Y03013D01*
X03873Y03026D02*
X03892D01*
X03825Y02987D02*
X03864Y03026D01*
X03903Y02933D02*
X03966D01*
X03852Y03026D02*
X03945Y02933D01*
X03832Y03026D02*
X03926Y02933D01*
X03871Y03026D02*
X03965Y02933D01*
X03825Y03015D02*
X03906Y02933D01*
X03903Y02929D02*
X03907Y02933D01*
X04257Y02912D02*
X04265Y02921D01*
X04247Y02922D02*
X04256Y02931D01*
X04204Y02859D02*
X04229Y02884D01*
X04202Y02903D02*
X0421D01*
X04187Y02888D02*
X04202Y02903D01*
X04194Y02869D02*
X04219Y02894D01*
X04235Y02951D02*
X04342Y02844D01*
X0422Y02951D02*
X04326Y02844D01*
X04238Y02931D02*
X04325Y02844D01*
X0421Y02903D02*
X04297Y02816D01*
X04209Y02903D02*
X04297Y02815D01*
X04196Y02897D02*
X04297Y02796D01*
X04184Y02879D02*
X04208Y02903D01*
X04175Y02888D02*
X04187D01*
X04106Y0288D02*
X04123Y02863D01*
X04056Y0288D02*
X04065Y02872D01*
X04056Y02863D02*
X04073Y0288D01*
X0403D02*
X04073D01*
X04185Y02888D02*
X04296Y02777D01*
X04175Y02888D02*
X04286Y02777D01*
X04026Y02838D02*
X04069Y0288D01*
X04007Y02838D02*
X04049Y0288D01*
X04037D02*
X04056Y02861D01*
X04223Y0284D02*
X04248Y02864D01*
X04214Y0285D02*
X04238Y02874D01*
X04123Y02837D02*
X04146Y0286D01*
X04117Y0287D02*
X04127Y0288D01*
X04106Y0288D02*
X04126D01*
X04123Y02857D02*
X04136Y0287D01*
X04253Y02811D02*
X04277Y02835D01*
X04243Y0282D02*
X04268Y02845D01*
X04262Y02801D02*
X04287Y02825D01*
X04123Y0283D02*
Y02863D01*
X04233Y0283D02*
X04258Y02855D01*
X04106Y02813D02*
X04123Y0283D01*
X04056Y02841D02*
Y02863D01*
X04084Y02813D02*
X04106D01*
X04031Y02823D02*
X04056Y02848D01*
X0403Y02868D02*
X04056Y02842D01*
X04037Y02823D02*
X04056Y02841D01*
X04066Y02794D02*
X04084Y02813D01*
X04056Y02785D02*
X04066Y02794D01*
X04056Y02785D02*
X04066Y02794D01*
X04037Y02785D02*
X04056D01*
X04037D02*
X04056D01*
X0403Y02865D02*
Y0288D01*
X03967Y02865D02*
X0403D01*
X03993D02*
X04021Y02838D01*
X03974Y02865D02*
X04002Y02838D01*
X03987D02*
X04015Y02865D01*
X03968Y02838D02*
X03996Y02865D01*
X04013D02*
X04046Y02832D01*
X03948Y02838D02*
X03976Y02865D01*
X03935D02*
X03963Y02838D01*
X03954Y02865D02*
X03982Y02838D01*
X03903Y02865D02*
Y02933D01*
X03825Y02909D02*
X03937Y03021D01*
X03825Y02893D02*
Y0296D01*
X03825Y02995D02*
X03903Y02916D01*
X03825Y02956D02*
X03903Y02877D01*
X03929Y02838D02*
X03957Y02865D01*
X03825Y02936D02*
X03924Y02838D01*
X03903Y02865D02*
X03966D01*
X03825Y02917D02*
X03904Y02838D01*
X03825Y02897D02*
X03902Y0282D01*
X04029Y0283D02*
X04036Y02823D01*
X04021Y02838D02*
X04029Y0283D01*
Y02823D02*
X04037D01*
X04029D02*
Y02838D01*
X03966D02*
X04029D01*
Y02782D02*
X04032Y02785D01*
X04029Y0277D02*
Y02785D01*
X04037*
X03966Y0277D02*
X04029D01*
X03915Y02865D02*
X03943Y02838D01*
X03909D02*
X03937Y02865D01*
X03902Y02838D02*
X03965D01*
X03902Y02831D02*
X03909Y02838D01*
X03828Y02775D02*
X03918Y02865D01*
X03902Y0277D02*
Y02838D01*
X03828Y02756D02*
X03902Y02831D01*
Y0277D02*
X03965D01*
X03828Y02769D02*
Y02788D01*
Y02769D02*
Y02788D01*
X03751Y03095D02*
X03762Y03084D01*
X03751Y03095D02*
X03762Y03084D01*
X03729D02*
X03762D01*
X03747D02*
X03754Y03092D01*
X03728Y03084D02*
X03745Y03102D01*
X0371Y03084D02*
X03729D01*
X0371D02*
X03729D01*
X03701Y03075D02*
X0371Y03084D01*
X03825Y03006D02*
X03845Y03026D01*
X03701Y03075D02*
X0371Y03084D01*
X03687Y03061D02*
X03701Y03075D01*
X03678Y03052D02*
X03687Y03061D01*
X03678Y03052D02*
X03687Y03061D01*
X0365Y03092D02*
X03684Y03058D01*
X03678Y03033D02*
Y03052D01*
X03618Y03053D02*
X0364Y03074D01*
X03604D02*
X0365D01*
X03648D02*
X03678Y03045D01*
X03618Y03045D02*
X03678Y02986D01*
X03609Y03074D02*
X03678Y03006D01*
X03604Y02961D02*
X03678Y03034D01*
X03628Y03074D02*
X03678Y03025D01*
Y03033D02*
Y03052D01*
X03825Y03026D02*
X03873D01*
X03817Y0296D02*
X03884Y03026D01*
X03762Y02977D02*
X03825D01*
X03798Y0296D02*
X03815Y02977D01*
X03821Y0296D02*
X03825Y02956D01*
X03804Y02977D02*
X03821Y0296D01*
X03762D02*
X03825D01*
X03778D02*
X03796Y02977D01*
X03765D02*
X03782Y0296D01*
X03784Y02977D02*
X03801Y0296D01*
X03759D02*
X03776Y02977D01*
X03749D02*
X03761D01*
X03749Y0296D02*
X03761D01*
X03749Y0297D02*
X03757Y02977D01*
X03618Y03026D02*
X03678Y02967D01*
X03749Y0296D02*
Y02977D01*
Y0296D02*
Y02977D01*
X03614Y02951D02*
X03678Y03015D01*
X03749Y02973D02*
X03762Y0296D01*
X0361Y03015D02*
X03678Y02947D01*
X03623Y02941D02*
X03678Y02995D01*
X0361Y03064D02*
X0362Y03074D01*
X03604Y03071D02*
X03618Y03056D01*
Y03023D02*
Y03056D01*
X03604Y03071D02*
Y03074D01*
X03566Y03071D02*
Y03074D01*
X03551Y03056D02*
X03566Y03071D01*
X03601Y03006D02*
X03618Y03023D01*
X03568Y03006D02*
X03601D01*
X03575Y0299D02*
X0359Y03006D01*
X03555Y0301D02*
X0356Y03014D01*
X03551Y03023D02*
X03568Y03006D01*
X03565Y03D02*
X03571Y03006D01*
X0355Y03074D02*
X0356Y03065D01*
X03531Y03074D02*
X03551Y03054D01*
X0349Y03074D02*
X03566D01*
X03507Y03058D02*
X03523Y03074D01*
X03497Y03068D02*
X03503Y03074D01*
X03516Y03049D02*
X03542Y03074D01*
X03526Y03039D02*
X03562Y03074D01*
X03511D02*
X03551Y03035D01*
X03536Y03029D02*
X03551Y03044D01*
Y03023D02*
Y03056D01*
X03546Y03019D02*
X03551Y03025D01*
X03518Y02933D02*
X03539Y02954D01*
X03508Y0296D02*
X03536Y02933D01*
X03537D02*
X03549Y02945D01*
X03508Y02963D02*
X03519Y02974D01*
X03453Y02996D02*
X03461Y02989D01*
X03508Y02943D02*
X03529Y02964D01*
X03508Y0298D02*
X03555Y02933D01*
X03508Y02985D02*
X0356Y02933D01*
X03508D02*
X0356D01*
X03461D02*
Y0299D01*
X03508Y02941D02*
X03516Y02933D01*
X03453Y02986D02*
X03459Y02992D01*
X03453Y02998D02*
X03461Y0299D01*
X03453Y02977D02*
X03461Y02969D01*
X03453Y02971D02*
Y02998D01*
Y02971D02*
Y02998D01*
X03436Y02954D02*
X03453Y02971D01*
X03446Y02964D02*
X03461Y0295D01*
X0344Y02933D02*
X03461Y02954D01*
X03416Y02933D02*
X03461D01*
X03436Y02954D02*
X03453Y02971D01*
X03437Y02954D02*
X03458Y02933D01*
X03823Y02977D02*
X03903Y02897D01*
X03766Y0285D02*
X03808Y02893D01*
X03678Y029D02*
Y03033D01*
X03785Y0283D02*
X04001Y03046D01*
X03775Y0284D02*
X03957Y03021D01*
X03795Y02821D02*
X03903Y02929D01*
X0381Y02893D02*
X03902Y028D01*
X03805Y02811D02*
X03903Y0291D01*
X03723Y02893D02*
X03818Y02798D01*
X03653Y02912D02*
X03678Y02937D01*
X0358Y03006D02*
X03678Y02908D01*
X03662Y02902D02*
X03678Y02918D01*
X03633Y02932D02*
X03678Y02976D01*
X03599Y03006D02*
X03678Y02928D01*
X03643Y02922D02*
X03678Y02957D01*
Y02887D02*
Y029D01*
X0349Y03074D02*
X03678Y02887D01*
Y029*
X03492Y03074D02*
X03678Y02889D01*
X03672Y02893D02*
X03678Y02898D01*
X03756Y0286D02*
X03789Y02893D01*
X03746Y02869D02*
X03769Y02893D01*
X03762D02*
X03825D01*
X03737Y02879D02*
X0375Y02893D01*
X03727Y02889D02*
X0373Y02893D01*
X03723D02*
X03761D01*
X03814Y02801D02*
X03903Y0289D01*
X03791Y02893D02*
X03902Y02781D01*
X03824Y02791D02*
X03903Y02871D01*
X03818Y02798D02*
X03828Y02788D01*
X03818Y02798D02*
X03828Y02788D01*
X03705Y02809D02*
X03728Y02831D01*
X03705Y02828D02*
X03718Y02841D01*
X03705Y02789D02*
X03737Y02821D01*
X03705Y02836D02*
Y02853D01*
Y02836D02*
Y02853D01*
Y02848D02*
X03708Y02851D01*
X03705Y02841D02*
X0379Y02757D01*
X03705Y02853D02*
X0379Y02769D01*
X03705Y0277D02*
X03747Y02812D01*
X03705Y02773D02*
Y02836D01*
X03658Y02773D02*
Y02781D01*
X03586Y02865D02*
X03607Y02886D01*
X03576Y02874D02*
X03597Y02896D01*
X03609Y02864D02*
X0363D01*
X03573Y0291D02*
X03578Y02915D01*
X03573Y02878D02*
Y02921D01*
Y02891D02*
X03588Y02906D01*
X03573Y02916D02*
X03625Y02864D01*
X03573Y02921D02*
X0363Y02864D01*
X03624D02*
X03627Y02867D01*
X03595Y02855D02*
X03617Y02876D01*
X03573Y02896D02*
X03607Y02861D01*
X03598Y02852D02*
X03609Y02864D01*
X03508Y02933D02*
Y02985D01*
X03475Y02875D02*
X03496Y02896D01*
X03486Y02885D02*
X03497Y02874D01*
X03464Y02863D02*
X03475Y02875D01*
X0342Y02933D02*
X03461Y02974D01*
X03464Y02863D02*
X03475Y02875D01*
X03573Y02878D02*
X03598Y02852D01*
X03462Y02858D02*
X03497Y02893D01*
X03476Y02876D02*
X03497Y02854D01*
Y0284D02*
Y02897D01*
X03439Y02816D02*
X03497Y02874D01*
X03588Y02805D02*
X03592Y02801D01*
X03583Y02811D02*
X03588Y02805D01*
X03592Y02801*
X03583Y02811D02*
X03588Y02805D01*
X03553Y0284D02*
X03583Y02811D01*
X03588Y02798D02*
Y02805D01*
X03653Y02777D02*
X03657Y02773D01*
X03653Y02777D02*
X03658Y02781D01*
X03609Y02777D02*
X03653D01*
X03588Y02798D02*
X03609Y02777D01*
X03634D02*
X03647Y02763D01*
X03497Y0284D02*
X03553D01*
X03449Y02806D02*
X03497Y02854D01*
X03551Y0284D02*
X03588Y02803D01*
X03462Y0284D02*
Y02863D01*
X03415Y0284D02*
X03462D01*
X03429Y02825D02*
X03444Y0284D01*
X03488Y02767D02*
X03557Y02836D01*
X03478Y02777D02*
X03542Y0284D01*
X03498Y02757D02*
X03567Y02826D01*
X03459Y02796D02*
X03503Y0284D01*
X03468Y02786D02*
X03522Y0284D01*
X03326Y03326D02*
X03383Y03383D01*
X03307Y03326D02*
X03363Y03383D01*
X03344Y03325D02*
X03402Y03383D01*
X03287Y03326D02*
X03344Y03383D01*
X03281D02*
X03339Y03325D01*
X03301Y03383D02*
X03358Y03325D01*
X0338Y03322D02*
X03441Y03383D01*
X03359D02*
X03423Y03319D01*
X0338Y03322D02*
X03441Y03383D01*
X0334D02*
X03403Y03319D01*
X0332Y03383D02*
X03397Y03305D01*
X03364Y03325D02*
X03422Y03383D01*
X03262D02*
X03318Y03326D01*
X03248D02*
X03305Y03383D01*
X03268Y03326D02*
X03324Y03383D01*
X03223D02*
X03279Y03326D01*
X03203Y03383D02*
X03259Y03326D01*
X03242Y03383D02*
X03298Y03326D01*
X03184Y03383D02*
X0324Y03326D01*
X03164Y03383D02*
X03221Y03326D01*
X03151Y03268D02*
X03266Y03383D01*
X03145D02*
X03219Y03308D01*
X03086Y03383D02*
X03219Y0325D01*
X03377Y03325D02*
X03394Y03308D01*
X03377Y03325D02*
X03394Y03308D01*
X03396Y03305*
X03343Y03325D02*
X03377D01*
X03332D02*
X03343D01*
X03377*
X03397Y03304D02*
Y03319D01*
X03346Y03255D02*
X03363Y03238D01*
X03396*
X03343Y03258D02*
X03346Y03255D01*
X03332Y03254D02*
X03338Y03248D01*
X03342Y03244D02*
X03349Y03252D01*
X03229Y03326D02*
X03285Y03383D01*
X03219Y03326D02*
X03332D01*
Y03258D02*
X03343D01*
X03219Y03259D02*
Y03326D01*
X03181Y03259D02*
X03219Y03297D01*
Y03256D02*
Y03259D01*
X03332Y03248D02*
X03338D01*
X03332Y03254D02*
X03335Y03258D01*
X03332Y03248D02*
X03338D01*
X03219Y03256D02*
Y03259D01*
X03332Y03248D02*
Y03256D01*
X0305Y03284D02*
X03149Y03383D01*
X0305Y03303D02*
X03129Y03383D01*
X03125D02*
X03219Y03289D01*
X03043Y03335D02*
X0309Y03383D01*
X03023Y03335D02*
X03071Y03383D01*
X0305Y03322D02*
X0311Y03383D01*
X03067D02*
X03201Y03248D01*
X0305Y03245D02*
X03188Y03383D01*
X03106D02*
X03219Y03269D01*
X03047Y03383D02*
X03162Y03268D01*
X03028Y03383D02*
X03142Y03268D01*
X0305Y03264D02*
X03168Y03383D01*
X02887Y03335D02*
X02934Y03383D01*
X02872D02*
X02919Y03335D01*
X02891Y03383D02*
X02939Y03335D01*
X02852Y03383D02*
X029Y03335D01*
X02852Y03378D02*
X02856Y03383D01*
X02867Y03335D02*
X02915Y03383D01*
X03004Y03335D02*
X03051Y03383D01*
X02989D02*
X03036Y03335D01*
X03008Y03383D02*
X03131Y0326D01*
X02969Y03383D02*
X03017Y03335D01*
X02984D02*
X03032Y03383D01*
X03172Y03268D02*
X03189Y03251D01*
X03171Y03268D02*
X03219Y03317D01*
X03139Y03268D02*
X03172D01*
X0305Y03322D02*
X03122Y0325D01*
X02965Y03335D02*
X03012Y03383D01*
X03122Y03251D02*
X03139Y03268D01*
X03209Y03248D02*
X03219Y03258D01*
X0319Y03248D02*
X03219Y03278D01*
Y03248D02*
Y03256D01*
X03189Y03248D02*
Y03251D01*
Y03248D02*
X03219D01*
X02945Y03335D02*
X02993Y03383D01*
X0293D02*
X02978Y03335D01*
X0295Y03383D02*
X02997Y03335D01*
X02852Y03339D02*
X02895Y03383D01*
X02852Y03359D02*
X02876Y03383D01*
X02926Y03335D02*
X02973Y03383D01*
X02911D02*
X02958Y03335D01*
X02906D02*
X02954Y03383D01*
X02852Y03335D02*
X0305D01*
X02852D02*
Y03383D01*
Y03344D02*
X02861Y03335D01*
X03363Y03238D02*
X03396D01*
X03361Y03225D02*
X03374Y03238D01*
X03387D02*
X03397Y03227D01*
X03346Y03255D02*
X03363Y03238D01*
X03338Y03248D02*
X0335Y03236D01*
X03351Y03234D02*
X03359Y03242D01*
X03397Y03189D02*
Y03239D01*
X0335Y03236D02*
X03397Y03189D01*
X0339Y03195D02*
X03397Y03202D01*
X03371Y03215D02*
X03394Y03238D01*
X03367D02*
X03397Y03208D01*
X03381Y03205D02*
X03397Y03222D01*
X03338Y03248D02*
X0335Y03236D01*
X0305Y03186D02*
X03246Y03383D01*
X03332Y03176D02*
X03335Y03179D01*
X03219Y03189D02*
Y03192D01*
X0305Y03206D02*
X03227Y03383D01*
X03219Y03189D02*
Y03192D01*
X03332Y03176D02*
X03367Y03141D01*
X03332Y03182D02*
X03367Y03148D01*
X03332Y03157D02*
X03345Y03169D01*
X03332Y03125D02*
Y03182D01*
X0305Y03166D02*
X03219Y02996D01*
X03343Y03109D02*
X03367Y03133D01*
X03332Y03137D02*
X03367Y03102D01*
X03353Y03099D02*
X03367Y03113D01*
X03338Y03114D02*
X0335Y03102D01*
X03332Y03137D02*
X03355Y0316D01*
X03338Y03114D02*
X0335Y03102D01*
X03367Y03085D02*
Y03091D01*
X0335Y03102D02*
X03367Y03085D01*
Y03091*
Y03148*
X03362Y0309D02*
X03367Y03094D01*
X03332Y03118D02*
X03364Y0315D01*
X03332Y03156D02*
X03367Y03122D01*
X03332Y03122D02*
Y03125D01*
Y03122D02*
Y03125D01*
Y03114D02*
X03338D01*
X03332Y03117D02*
X03335Y03114D01*
X03332D02*
X03338D01*
X0305Y02991D02*
X03219Y03161D01*
X03332Y03114D02*
Y03122D01*
X03219Y03192D02*
Y032D01*
X03178D02*
X03219D01*
X0321D02*
X03219Y03191D01*
X03122Y03218D02*
X03139Y03201D01*
X03122Y03218D02*
Y03251D01*
X03139Y03201D02*
X03153D01*
X03171Y032D02*
X03219Y03152D01*
X03151Y03201D02*
X03219Y03133D01*
X03191Y032D02*
X03219Y03172D01*
X0305Y03263D02*
X03219Y03094D01*
X0305Y03283D02*
X03219Y03113D01*
X0305Y03089D02*
X03161Y032D01*
X0305Y03302D02*
X03122Y0323D01*
X0305Y03225D02*
X03207Y03383D01*
X0305Y03128D02*
X03131Y03209D01*
X0305Y03167D02*
X03122Y03239D01*
X0305Y03147D02*
X03122Y03219D01*
X0305Y03224D02*
X03219Y03055D01*
X0305Y03244D02*
X03219Y03074D01*
X0305Y03205D02*
X03219Y03035D01*
X0305Y0299D02*
Y03335D01*
Y03108D02*
X03142Y03201D01*
X03219Y03122D02*
Y03125D01*
Y03189*
Y03122D02*
Y03125D01*
X03154Y032D02*
X03178D01*
X03154D02*
X03178D01*
X0305Y03069D02*
X03181Y032D01*
X03107Y0299D02*
X03219Y03102D01*
X03068Y0299D02*
X03219Y03141D01*
X03127Y0299D02*
X03219Y03083D01*
Y03058D02*
Y03122D01*
X03088Y0299D02*
X03219Y03122D01*
X0305Y03011D02*
X03219Y0318D01*
X0305Y03185D02*
X03219Y03016D01*
X0305Y02991D02*
X03219Y03161D01*
X0305Y0303D02*
X03219Y032D01*
X0305Y0305D02*
X032Y032D01*
X0305Y03127D02*
X03186Y0299D01*
X0305Y03146D02*
X03206Y0299D01*
X0305Y03107D02*
X03167Y0299D01*
X0305Y03088D02*
X03147Y0299D01*
X0305Y03068D02*
X03128Y0299D01*
X02713Y03356D02*
X02739Y03383D01*
X02693Y03356D02*
X0272Y03383D01*
X02736D02*
X02749Y03369D01*
X02654Y03356D02*
X02681Y03383D01*
X02638D02*
X02665Y03356D01*
X02677Y03383D02*
X02704Y03356D01*
X02749Y03268D02*
Y03383D01*
X02716D02*
X02749Y0335D01*
X02717Y0334D02*
X02749Y03373D01*
X02674Y03356D02*
X027Y03383D01*
X02658D02*
X02684Y03356D01*
X02697Y03383D02*
X02749Y0333D01*
X02635Y03356D02*
X02662Y03383D01*
X02619D02*
X02646Y03356D01*
X02332Y03383D02*
X02749D01*
X02599D02*
X02626Y03356D01*
X02596D02*
X02623Y03383D01*
X02615Y03356D02*
X02642Y03383D01*
X02576Y03356D02*
X02603Y03383D01*
X0256D02*
X02587Y03356D01*
X0258Y03383D02*
X02607Y03356D01*
X02541Y03383D02*
X02571Y03353D01*
X02507Y03306D02*
X02584Y03383D01*
X02852Y03363D02*
X0288Y03335D01*
X02717Y03321D02*
X02749Y03353D01*
X02717Y03343D02*
X02749Y03311D01*
X02717Y03323D02*
X02749Y03291D01*
X02717Y03301D02*
X02749Y03334D01*
X02717Y03282D02*
X02749Y03314D01*
X02742Y03268D02*
X02749Y03275D01*
X02717Y03304D02*
X02749Y03272D01*
X02717Y03268D02*
X02749D01*
X02723D02*
X02749Y03295D01*
X02717Y03268D02*
Y03356D01*
X02742Y03201D02*
X02749Y03194D01*
X02571Y03356D02*
X02717D01*
X02571Y0335D02*
X02576Y03356D01*
X02717Y03284D02*
X02733Y03268D01*
X02507Y03338D02*
X02571Y03275D01*
X02507Y03287D02*
X02571Y0335D01*
X02507Y03267D02*
X02571Y03331D01*
X02717Y03184D02*
X02733Y03201D01*
X02507Y03299D02*
X02571Y03236D01*
X02717Y03201D02*
X02749D01*
X02507Y03209D02*
X02571Y03272D01*
X02507Y03189D02*
X02571Y03253D01*
X02479Y03356D02*
X02506Y03383D01*
X02463D02*
X0249Y03356D01*
X02498D02*
X02525Y03383D01*
X0244Y03356D02*
X02467Y03383D01*
X02424D02*
X02451Y03356D01*
X02459D02*
X02486Y03383D01*
X02502D02*
X02571Y03314D01*
X02482Y03383D02*
X02571Y03294D01*
X02521Y03383D02*
X02571Y03333D01*
X02507Y03345D02*
X02545Y03383D01*
X02443D02*
X0247Y03356D01*
X02507Y03326D02*
X02564Y03383D01*
X02404D02*
X02431Y03356D01*
X02401D02*
X02428Y03383D01*
X0242Y03356D02*
X02447Y03383D01*
X02381Y03356D02*
X02408Y03383D01*
X02332Y03364D02*
X0235Y03383D01*
X02385D02*
X02412Y03356D01*
X02362D02*
X02389Y03383D01*
X02346D02*
X02373Y03356D01*
X02365Y03383D02*
X02392Y03356D01*
X02332Y03345D02*
X02369Y03383D01*
X02332Y03377D02*
X02361Y03348D01*
Y03356D02*
X02507D01*
X02332Y03358D02*
X02361Y03328D01*
X02332Y03325D02*
X02361Y03355D01*
X02332Y03319D02*
X02361Y03289D01*
X02332Y03338D02*
X02361Y03309D01*
X02332Y03286D02*
X02361Y03316D01*
X02507Y0328D02*
X02571Y03216D01*
X02507Y03228D02*
X02571Y03292D01*
X02507Y0326D02*
X02571Y03197D01*
X02507Y03319D02*
X02571Y03255D01*
X02507Y03248D02*
X02571Y03311D01*
X02332Y03247D02*
X02361Y03277D01*
X02332Y0328D02*
X02361Y0325D01*
X02332Y0326D02*
X02361Y03231D01*
X02332Y03299D02*
X02361Y0327D01*
X02332Y03306D02*
X02361Y03335D01*
X02332Y03267D02*
X02361Y03296D01*
X02332Y03221D02*
X02361Y03192D01*
X02332Y03208D02*
X02361Y03238D01*
X02332Y03189D02*
X02361Y03218D01*
X02332Y03228D02*
X02361Y03257D01*
X02332Y03241D02*
X02361Y03211D01*
X02722Y03201D02*
X02749Y03174D01*
X02717Y03165D02*
X02749Y03197D01*
X02717Y03145D02*
X02749Y03178D01*
X02717Y03187D02*
X02749Y03155D01*
X02717Y03168D02*
X02749Y03135D01*
X02717Y03126D02*
X02749Y03158D01*
X02717Y03106D02*
X02749Y03139D01*
Y03008D02*
Y03201D01*
X02717Y03103D02*
Y03201D01*
Y03109D02*
X02749Y03077D01*
X02717Y03129D02*
X02749Y03096D01*
X02717Y03148D02*
X02749Y03116D01*
X02713Y03103D02*
X02717Y03106D01*
X02571Y03103D02*
Y03356D01*
X02507Y03182D02*
X02571Y03119D01*
X02507Y03111D02*
X02571Y03175D01*
X02676Y03046D02*
X02749Y03119D01*
X02507Y03163D02*
X02608Y03062D01*
X02664Y03103D02*
X02749Y03018D01*
X02458Y03042D02*
X02571Y03155D01*
X02507Y03143D02*
X02598Y03053D01*
X02666Y03056D02*
X02713Y03103D01*
X02656Y03066D02*
X02694Y03103D01*
X02703D02*
X02749Y03057D01*
X02638Y03067D02*
X02675Y03103D01*
X02618Y03067D02*
X02655Y03103D01*
X02655Y03067D02*
X02677Y03045D01*
X02684Y03103D02*
X02749Y03038D01*
X02677Y03028D02*
X02749Y031D01*
X02681Y03012D02*
X02749Y0308D01*
X02625Y03103D02*
X0272Y03008D01*
X02645Y03103D02*
X0274Y03008D01*
X02606Y03103D02*
X02642Y03067D01*
X02571Y03103D02*
X02717D01*
X02612Y03067D02*
X02655D01*
X02586Y03103D02*
X02623Y03067D01*
X0254D02*
X02577Y03103D01*
X0249Y03067D02*
X02577D01*
Y03064D02*
X02616Y03103D01*
X02577Y03045D02*
X02636Y03103D01*
X0259Y03045D02*
X02612Y03067D01*
X0256D02*
X02597Y03103D01*
X02577Y03002D02*
Y03067D01*
X02507Y03202D02*
X02571Y03138D01*
X02507Y0315D02*
X02571Y03214D01*
X02507Y03131D02*
X02571Y03194D01*
X02507Y0317D02*
X02571Y03233D01*
X02507Y03241D02*
X02571Y03177D01*
X02507Y03221D02*
X02571Y03158D01*
X02507Y03124D02*
X02564Y03067D01*
X02501D02*
X02571Y03136D01*
X02521Y03067D02*
X02571Y03116D01*
X02507Y03103D02*
Y03356D01*
X02361Y03103D02*
Y03356D01*
X02499Y03103D02*
X02507Y03111D01*
X02332Y03163D02*
X02361Y03134D01*
X02332Y0315D02*
X02361Y03179D01*
X02332Y03131D02*
X02361Y0316D01*
X02332Y0317D02*
X02361Y03199D01*
X02332Y03202D02*
X02361Y03173D01*
X02332Y03182D02*
X02361Y03153D01*
X02332Y03092D02*
X02361Y03121D01*
X02332Y03124D02*
X0241Y03045D01*
X02332Y03104D02*
X0241Y03026D01*
X02332Y03143D02*
X02361Y03114D01*
X02332Y03111D02*
X02361Y0314D01*
X02507Y03104D02*
X02545Y03067D01*
X02489Y03103D02*
X02525Y03067D01*
X02458Y03103D02*
X02507D01*
X02458Y03081D02*
X0248Y03103D01*
X02458Y03101D02*
X0246Y03103D01*
X02469D02*
X02506Y03067D01*
X02458Y03095D02*
X0249Y03063D01*
X02458Y03062D02*
X02499Y03103D01*
X02458Y03076D02*
X0249Y03043D01*
X02458Y03011D02*
Y03103D01*
X0249Y02997D02*
Y03067D01*
X02391Y03103D02*
X0241Y03084D01*
X02372Y03103D02*
X0241Y03065D01*
X02361Y03103D02*
X0241D01*
X02332Y03053D02*
X02382Y03103D01*
X02332Y03072D02*
X02363Y03103D01*
X02332Y03033D02*
X02402Y03103D01*
X02332Y02994D02*
X0241Y03073D01*
X02332Y03085D02*
X0241Y03006D01*
X02332Y03065D02*
X0249Y02907D01*
X0241Y03011D02*
Y03103D01*
X02332Y03014D02*
X0241Y03092D01*
X03365Y03015D02*
X03377Y03003D01*
X03332Y03048D02*
X03365Y03015D01*
X03377Y03003*
X03332Y0302D02*
X03346Y03034D01*
X03332Y0304D02*
X03336Y03044D01*
X03341Y0299D02*
X03366Y03015D01*
X03332Y03039D02*
X03376Y02995D01*
X0336Y0299D02*
X03375Y03005D01*
X03332Y03001D02*
X03356Y03025D01*
X03332Y0299D02*
Y03048D01*
Y0302D02*
X03362Y0299D01*
X03219Y03055D02*
Y03058D01*
Y03055D02*
Y03058D01*
Y0299D02*
Y03055D01*
X03185Y0299D02*
X03219Y03024D01*
X03205Y0299D02*
X03219Y03005D01*
X03146Y0299D02*
X03219Y03063D01*
X0305Y03049D02*
X03108Y0299D01*
X03166D02*
X03219Y03044D01*
X0305Y03029D02*
X03089Y0299D01*
X0305Y0301D02*
X03069Y0299D01*
X03422Y0294D02*
X03436Y02954D01*
X03416Y02933D02*
X03422Y0294D01*
X03416Y02933D02*
X03422Y0294D01*
X03377Y03003D02*
X03385D01*
X03372Y0299D02*
X03385Y03003D01*
X03377D02*
X03385D01*
X03427Y02944D02*
X03438Y02933D01*
X03372Y02923D02*
X03387D01*
X03372D02*
X03387D01*
Y0291D02*
Y02923D01*
X03375Y02899D02*
X03387Y0291D01*
X03375Y02899D02*
X03387Y0291D01*
X03332Y0299D02*
X03372D01*
X03332Y03D02*
X03342Y0299D01*
X03132Y02923D02*
X03372D01*
X03132D02*
X03138Y02917D01*
X0305Y0299D02*
X03219D01*
X03135Y0292D02*
X03137Y02923D01*
X03351D02*
X03375Y02899D01*
X03154Y02901D02*
X03176Y02923D01*
X03371D02*
X03385Y02909D01*
X03132Y02923D02*
X03138Y02917D01*
X03144Y02911D02*
X03157Y02923D01*
X02899Y02973D02*
X02904Y02979D01*
X02852D02*
X02904D01*
X02899Y02973D02*
X02904Y02979D01*
X02886D02*
X02895Y0297D01*
X02866Y02979D02*
X02885Y0296D01*
X02895Y0297D02*
X02899Y02973D01*
X02879Y02953D02*
X02895Y0297D01*
X02852Y0295D02*
X02882Y02979D01*
X02879Y02953D02*
X02895Y0297D01*
X02879Y0292D02*
Y02953D01*
X02852Y02931D02*
Y02979D01*
X02879Y0292D02*
Y02953D01*
X02852Y02969D02*
X02862Y02979D01*
X02716Y03008D02*
X02749Y03041D01*
X02852Y02973D02*
X02879Y02947D01*
X02735Y03008D02*
X02749Y03022D01*
X02716Y03008D02*
X02749D01*
Y02931D02*
Y02941D01*
X02852Y02935D02*
X02879Y02908D01*
X02852Y02954D02*
X02879Y02928D01*
X02778Y02931D02*
X02803Y02906D01*
X02729Y02941D02*
X02764Y02906D01*
X0277D02*
X02794Y02931D01*
X03014Y02917D02*
X03019Y02923D01*
X02949D02*
X03019D01*
X03014Y02917D02*
X03019Y02923D01*
X03D02*
X0301Y02914D01*
X02946Y0292D02*
X02949Y02923D01*
X03009Y02913D02*
X03014Y02917D01*
X02992Y02896D02*
X03009Y02913D01*
X02981Y02923D02*
X03Y02904D01*
X02992Y02896D02*
X03009Y02913D01*
X02946Y02907D02*
X02962Y02923D01*
X02946Y02906D02*
X02954D01*
X02946D02*
Y0292D01*
X02879Y02906D02*
Y0292D01*
X02871Y02906D02*
X02879D01*
X02789D02*
X02814Y02931D01*
X0275Y02906D02*
X02775Y02931D01*
X02749D02*
X02852D01*
X02837D02*
X02871Y02897D01*
X02804Y02902D02*
X02833Y02931D01*
X02721Y02906D02*
X02804D01*
X02731D02*
X02755Y02931D01*
X02759D02*
X02783Y02906D01*
X03332Y02923D02*
X03365Y02889D01*
X03312Y02864D02*
X03371Y02923D01*
X03331Y02864D02*
X03387Y0292D01*
X03293Y02923D02*
X03346Y0287D01*
X03273Y02923D02*
X03332Y02864D01*
X03312Y02923D02*
X03356Y02879D01*
X03254Y02923D02*
X03313Y02864D01*
X03215Y02825D02*
X03313Y02923D01*
X03215Y02786D02*
X03352Y02923D01*
X03215D02*
X03292Y02845D01*
X03215Y02844D02*
X03293Y02923D01*
X03234D02*
X03302Y02855D01*
X03183Y02872D02*
X03235Y02923D01*
X03174Y02881D02*
X03215Y02923D01*
X03191Y02859D02*
X03254Y02923D01*
X03164Y02891D02*
X03196Y02923D01*
X02954Y02876D02*
X03001Y02923D01*
X02946Y02919D02*
X02992Y02872D01*
X03195Y02923D02*
X03289Y0283D01*
X03176Y02923D02*
X03289Y0281D01*
X03215Y02805D02*
X03332Y02923D01*
X03137D02*
X032Y02859D01*
X0321D02*
X03274Y02923D01*
X03415Y0284D02*
X03423Y02832D01*
X0334Y02864D02*
X03375Y02899D01*
X0342Y02835D02*
X03425Y0284D01*
X03289Y0284D02*
X03312Y02864D01*
X03289Y02842D02*
X0331Y02864D01*
X0334*
X03415Y0284D02*
X03423Y02832D01*
X03373Y02796D02*
X03387D01*
X03354Y02777D02*
X03373Y02796D01*
X03289Y02798D02*
X0331Y02777D01*
X03354*
X03172Y02883D02*
X03189Y02866D01*
X03172Y02883D02*
X03189Y02866D01*
Y02859D02*
Y02866D01*
X03138Y02917D02*
X03172Y02883D01*
X02992Y02863D02*
Y02896D01*
Y02863D02*
Y02896D01*
X03289Y02798D02*
Y02842D01*
X03189Y02859D02*
X03215D01*
Y02766D02*
X03289Y0284D01*
X03189Y02859D02*
Y02866D01*
X03039Y02767D02*
X03042Y02764D01*
X02961Y02923D02*
X02992Y02892D01*
X02954Y02856D02*
X02992Y02895D01*
X02954Y02891D02*
X02992Y02853D01*
X02954Y02895D02*
X02981Y02923D01*
X02817Y02931D02*
X02871Y02877D01*
X02954Y02895D02*
X02981Y02923D01*
X02954Y02872D02*
X02992Y02833D01*
X02954Y02837D02*
X02992Y02876D01*
Y02821D02*
Y02863D01*
X02954Y02817D02*
X02992Y02856D01*
X02954Y02783D02*
Y02906D01*
Y02852D02*
X02989Y02818D01*
X02804Y02863D02*
X02879Y02937D01*
X02804Y02882D02*
X02901Y02979D01*
X02804Y02843D02*
X02879Y02918D01*
X02804Y02905D02*
X02871Y02838D01*
X02798Y02931D02*
X02871Y02858D01*
X02804Y02824D02*
X02871Y0289D01*
X02804Y02804D02*
X02871Y02871D01*
X02804Y02885D02*
X02871Y02819D01*
X02804Y02866D02*
X02871Y02799D01*
X02721Y02788D02*
Y02906D01*
X02804Y02803D02*
Y02906D01*
X02954Y02833D02*
X02979Y02808D01*
X02954Y02798D02*
X02992Y02837D01*
X02954Y02783D02*
X02992Y02821D01*
X02954Y02813D02*
X02969Y02798D01*
X02815Y02756D02*
X02871Y02812D01*
X02954Y02794D02*
X02959Y02788D01*
X02832Y02754D02*
X02871Y02793D01*
X02815Y02756D02*
X02871Y02812D01*
X02816Y02754D02*
X02871D01*
X02852D02*
X02871Y02773D01*
X02815Y02758D02*
X02818Y02754D01*
X02813Y02794D02*
X02871Y02851D01*
X02804Y02846D02*
X02871Y0278D01*
X02804Y02827D02*
X02871Y0276D01*
X02815Y02776D02*
X02871Y02832D01*
X02804Y02803D02*
X02815Y02793D01*
X02804Y02803D02*
X02815Y02793D01*
Y02777D02*
X02838Y02754D01*
X02804Y02807D02*
X02857Y02754D01*
X02815Y02756D02*
Y02759D01*
Y02793*
Y02759D02*
Y02793D01*
X0269Y03002D02*
X02749Y03061D01*
X02677Y03032D02*
X02708Y03001D01*
X02706Y02998D02*
X02716Y03008D01*
X02677Y03015D02*
X02694Y02998D01*
X02677Y03015D02*
Y03045D01*
X02694Y02998D02*
X02706D01*
X02658Y02963D02*
X0267Y02951D01*
X02658Y02964D02*
X02671Y02951D01*
X02658Y02963D02*
X0267Y02951D01*
X02654Y02967D02*
X02658Y02963D01*
X02641Y0298D02*
X02654Y02967D01*
X02655D02*
X02658Y02964D01*
X02632Y0298D02*
X02645Y02967D01*
X02626Y0298D02*
X02641D01*
X02635Y02967D02*
X02645Y02976D01*
X02616Y02967D02*
X02629Y0298D01*
X02577Y03025D02*
X0259Y03038D01*
X02619Y02973D02*
X02625Y02967D01*
X02613D02*
X02654D01*
X02613D02*
X02626Y0298D01*
X02608Y02962D02*
X02613Y02967D01*
X02608Y02963D02*
X02612Y02967D01*
X02595Y0295D02*
X02608Y02963D01*
X02706Y02951D02*
X02716Y02941D01*
X02694Y02951D02*
X02706D01*
X02716Y02941D02*
X02749D01*
X02674Y02947D02*
X02678Y02951D01*
X02671D02*
X02677Y02945D01*
X02671Y02951D02*
X02694D01*
X027D02*
X02744Y02906D01*
X0268Y02951D02*
X02725Y02906D01*
X02677Y02934D02*
X02721Y0289D01*
X02677Y02911D02*
X02711Y02945D01*
X02677Y0293D02*
X02697Y02951D01*
X02677Y02901D02*
Y02945D01*
X02596Y0295D02*
X02608Y02962D01*
X02596Y0295D02*
X02608Y02962D01*
X02671Y02951D02*
X02694D01*
X02572Y0295D02*
X02595D01*
X02572D02*
X02595D01*
X0259Y02945D02*
X02595Y0295D01*
X0259Y02905D02*
X02615Y0288D01*
X02584Y0295D02*
X0259Y02943D01*
X02655Y0288D02*
X02677Y02901D01*
X02577Y02928D02*
X0259Y02941D01*
X02577Y02917D02*
X0259Y02905D01*
Y03015D02*
Y03045D01*
X02577Y03054D02*
X0259Y03041D01*
X02577Y03034D02*
X0259Y03021D01*
X02577Y03002D02*
X0259Y03015D01*
X02577Y03006D02*
X0259Y03019D01*
X02577Y03015D02*
X02583Y03009D01*
X02471Y02998D02*
X0249Y03016D01*
X02462Y03007D02*
X0249Y03036D01*
X02471Y02997D02*
X0249D01*
X02458Y03023D02*
X0249Y03055D01*
X02458Y03056D02*
X0249Y03024D01*
X02458Y03037D02*
X0249Y03005D01*
X02458Y03011D02*
X02471Y02997D01*
X02458Y03017D02*
X02478Y02997D01*
X0241Y02987D02*
Y03011D01*
X02332Y02936D02*
X0241Y03014D01*
X02332Y02955D02*
X0241Y03034D01*
X02332Y02916D02*
X0241Y02995D01*
X02332Y02975D02*
X0241Y03053D01*
Y02987D02*
Y03011D01*
X02577Y02937D02*
X0259Y02924D01*
X02576Y02946D02*
X02579Y0295D01*
X02577Y02908D02*
X0259Y02921D01*
X02572Y0295D02*
X02577Y02945D01*
X0249D02*
X02495Y0295D01*
X02577Y02901D02*
Y02945D01*
X0259Y02901D02*
Y02945D01*
X02555Y0288D02*
X02577Y02901D01*
X02512Y0288D02*
X02555D01*
X0249Y02901D02*
Y02945D01*
Y02901D02*
X02512Y0288D01*
X02448Y0295D02*
X02471D01*
X02448D02*
X02471D01*
X02495*
X0241Y02987D02*
X02422Y02975D01*
X0241Y02987D02*
X02422Y02975D01*
X02436Y02962*
X02467Y0295D02*
X0249Y02927D01*
X02436Y02962D02*
X02448Y0295D01*
X02486D02*
X02491Y02945D01*
X02332Y02897D02*
X02416Y02981D01*
X02436Y02962D02*
X02448Y0295D01*
X02663Y02858D02*
X02746Y02941D01*
X02652Y02867D02*
X02727Y02941D01*
X02677Y02915D02*
X02721Y02871D01*
X02674Y02898D02*
X02721Y02851D01*
X02673Y02849D02*
X02721Y02897D01*
X02655Y02867D02*
X02677Y02845D01*
Y02833D02*
X02721Y02877D01*
X02664Y02889D02*
X02721Y02832D01*
X02677Y02813D02*
X02721Y02858D01*
X02677Y02801D02*
Y02845D01*
X02654Y0288D02*
X02721Y02812D01*
X02677Y02837D02*
X02721Y02793D01*
X02634Y0288D02*
X02647Y02867D01*
X02633D02*
X02646Y0288D01*
X02612D02*
X02655D01*
X02613Y02867D02*
X02626Y0288D01*
X0259Y02901D02*
X02612Y0288D01*
X02615D02*
X02628Y02867D01*
X02612D02*
X02655D01*
X0265Y02767D02*
X02721Y02838D01*
X0259Y02845D02*
X02612Y02867D01*
X0259Y02843D02*
X02613Y02867D01*
X02715Y02793D02*
X02721Y02799D01*
X02696Y02794D02*
X02721Y02819D01*
X02715Y02794D02*
X02721Y02788D01*
X02677Y02817D02*
X02701Y02794D01*
X02675Y028D02*
X02681Y02794D01*
X02715D01*
X02666Y0279D02*
X02671Y02784D01*
X02664Y02777D02*
X02681Y02794D01*
X02656Y0278D02*
X02664Y02772D01*
Y02758D02*
Y02777D01*
X02655Y02767D02*
X02664Y02758D01*
X02655Y0278D02*
X02677Y02801D01*
X02612Y0278D02*
X02655D01*
X0259Y02801D02*
X02612Y0278D01*
X02637D02*
X0265Y02767D01*
X0263D02*
X02643Y0278D01*
X02612Y02767D02*
X02655D01*
X02577Y02801D02*
X02611Y02766D01*
X02618Y0278D02*
X0263Y02767D01*
X02575Y029D02*
X0261Y02865D01*
X02555Y02867D02*
X0259Y02902D01*
X02537Y0288D02*
X0255Y02867D01*
X02516D02*
X02529Y0288D01*
X02332Y02877D02*
X02426Y02971D01*
X02535Y02867D02*
X02548Y0288D01*
X02566Y0289D02*
X026Y02855D01*
X02565Y02857D02*
X02599Y02892D01*
X02574Y02847D02*
X02609Y02882D01*
X02332Y02858D02*
X02436Y02962D01*
X02332Y02968D02*
X0249Y0281D01*
X02556Y0288D02*
X02591Y02845D01*
X02332Y03027D02*
X02502Y02856D01*
X02332Y03046D02*
X02511Y02866D01*
X02332Y03007D02*
X02492Y02847D01*
X02332Y02838D02*
X02445Y02952D01*
X02332Y02988D02*
X0249Y02829D01*
X02332Y02819D02*
X02463Y0295D01*
X02332Y0278D02*
X0249Y02938D01*
X02332Y02949D02*
X02514Y02767D01*
X02332Y02929D02*
X02503Y02758D01*
X02332Y02799D02*
X02482Y0295D01*
X02332Y0276D02*
X0249Y02919D01*
X0259Y02801D02*
Y02845D01*
X02577Y02811D02*
X0259Y02824D01*
X02577Y0282D02*
X0259Y02807D01*
X02577Y0283D02*
X0259Y02843D01*
X02555Y02867D02*
X02577Y02845D01*
Y0284D02*
X0259Y02827D01*
X02563Y02758D02*
X02598Y02793D01*
X02552Y02767D02*
X0259Y02804D01*
X02567Y02791D02*
X02602Y02756D01*
X02577Y02801D02*
Y02845D01*
X02555Y0278D02*
X02577Y02801D01*
X02518Y0288D02*
X0253Y02867D01*
X02512D02*
X02555D01*
X02512Y0278D02*
X02555D01*
X0249Y02801D02*
Y02845D01*
X02512Y02867*
X0249Y02801D02*
X02512Y0278D01*
X0254D02*
X02553Y02767D01*
X02533D02*
X02546Y0278D01*
X02512Y02767D02*
X02555D01*
X02513D02*
X02526Y0278D01*
X0252D02*
X02533Y02767D01*
X04176Y02754D02*
X04214Y02792D01*
X04126Y0288D02*
X04258Y02748D01*
X04192Y02749D02*
X04224Y02782D01*
X04157Y02754D02*
X04205Y02802D01*
X04115Y02822D02*
X04183Y02754D01*
X04154D02*
X04187D01*
X04123Y02833D02*
X04277Y02679D01*
X04123Y02852D02*
X04297Y02679D01*
X04204Y02723D02*
X04244Y02763D01*
X04201Y0274D02*
X04234Y02772D01*
X04187Y02754D02*
X04204Y02737D01*
X04137D02*
X04154Y02754D01*
X04115Y0288D02*
X04258Y02737D01*
X04053Y02728D02*
X04166Y02841D01*
X04104Y02813D02*
X04163Y02754D01*
X04085Y02813D02*
X04149Y02749D01*
X04034Y02728D02*
X04156Y0285D01*
X04075Y02803D02*
X04139Y02739D01*
X04086Y02722D02*
X04185Y02821D01*
X04073Y02728D02*
X04175Y02831D01*
X04096Y02712D02*
X04195Y02811D01*
X04035Y02785D02*
X04141Y02679D01*
X04054Y02785D02*
X04161Y02679D01*
X04258Y02726D02*
X04275Y02709D01*
X04218Y02679D02*
X04262Y02722D01*
X04238Y02679D02*
X04272Y02713D01*
X04258Y02726D02*
Y02748D01*
X04204Y02704D02*
X04253Y02753D01*
X04204Y02703D02*
Y02737D01*
Y02732D02*
X04258Y02679D01*
X04199D02*
X04258Y02738D01*
X04257Y02679D02*
X04288Y02709D01*
X04204Y02713D02*
X04238Y02679D01*
X04199Y02698D02*
X04219Y02679D01*
X0419Y02688D02*
X042Y02679D01*
X04187Y02686D02*
X04204Y02703D01*
X04187Y02686D02*
X04204Y02704D01*
X04154Y02686D02*
X04187D01*
X04137Y02703D02*
X04154Y02686D01*
X04125Y02683D02*
X04141Y02699D01*
X04179Y02679D02*
X04187Y02686D01*
X04172D02*
X0418Y02679D01*
X04129D02*
X04362D01*
X04129Y02641D02*
X04362D01*
X0414Y02679D02*
X04151Y02689D01*
X0416Y02679D02*
X04167Y02686D01*
X04029Y02743D02*
X04099Y02813D01*
X0401Y02743D02*
X04052Y02785D01*
X0403Y02731D02*
X04033Y02728D01*
X0399Y02743D02*
X04017Y0277D01*
X03971D02*
X03999Y02743D01*
X03991Y0277D02*
X04018Y02743D01*
X04137Y02703D02*
Y02737D01*
X04065Y02794D02*
X04137Y02722D01*
X04105Y02702D02*
X04137Y02734D01*
X04029Y02771D02*
X04072Y02728D01*
X0401Y0277D02*
X04052Y02728D01*
X0403D02*
Y02743D01*
X03971D02*
X03998Y0277D01*
X03952D02*
X03979Y02743D01*
X03967D02*
X0403D01*
X03932Y0277D02*
X0396Y02743D01*
X03912D02*
X03939Y0277D01*
X03951Y02743D02*
X03978Y0277D01*
X03932Y02743D02*
X03959Y0277D01*
X03913D02*
X0394Y02743D01*
X03903D02*
X03966D01*
X03903Y02709D02*
Y02743D01*
X04079Y02728D02*
X04089Y02719D01*
X04079Y02728D02*
X04089Y02719D01*
X04115Y02693D02*
X04137Y02714D01*
X0406Y02728D02*
X04079D01*
X0403D02*
X0406D01*
X04079*
X04101Y0265D02*
X0411Y02641D01*
X04089Y02719D02*
X04129Y02679D01*
X0411Y02641D02*
X04129D01*
X0406Y0269D02*
X04101Y0265D01*
X0411Y02641*
X0403Y02685D02*
X04035Y0269D01*
X0403D02*
X0406D01*
X03967Y02676D02*
X0403D01*
X03901Y02712D02*
X03903Y02715D01*
X0403Y02676D02*
Y0269D01*
X03917Y02676D02*
X03966D01*
X03917Y0267D02*
X03923Y02676D01*
X03917Y02662D02*
Y02676D01*
X039Y02645D02*
X03917Y02662D01*
X04245Y02588D02*
X04297Y02641D01*
X04225Y02588D02*
X04277Y02641D01*
X04264Y02588D02*
X04316Y02641D01*
X04206Y02588D02*
X04258Y02641D01*
X0416D02*
X04212Y02588D01*
X04218Y02641D02*
X0427Y02588D01*
X04238Y02641D02*
X04304Y02574D01*
X04199Y02641D02*
X04251Y02588D01*
X04257Y02641D02*
X04314Y02583D01*
X04179Y02641D02*
X04231Y02588D01*
X04167D02*
X04219Y02641D01*
X04186Y02588D02*
X04238Y02641D01*
X04102Y0264D02*
X04106Y02645D01*
X04051Y0269D02*
X04101Y0264D01*
X04128Y02608D02*
X04161Y02641D01*
X04063Y0264D02*
X04087Y02664D01*
X04032Y0269D02*
X04082Y0264D01*
X04083D02*
X04096Y02654D01*
X04147Y02608D02*
X0418Y02641D01*
X0414D02*
X04192Y02588D01*
X04157Y02598D02*
X042Y02641D01*
X04108Y02607D02*
X04141Y02641D01*
X04121D02*
X04173Y02588D01*
X0411Y02641D02*
X04129D01*
X04108Y02634D02*
X04134Y02608D01*
X04113D02*
X04147D01*
X04108Y02614D02*
X04114Y02608D01*
X04108Y02627D02*
X04122Y02641D01*
X04108Y02603D02*
X04113Y02608D01*
X04164Y02588D02*
X0422D01*
X04147Y02608D02*
X04164Y02591D01*
X0422Y02588D02*
X04283D01*
X04108Y02603D02*
Y0264D01*
X04113Y02541D02*
X04135D01*
X04101Y0264D02*
X04108Y02634D01*
X04046Y0264D02*
X04108D01*
X04096Y02557D02*
Y02561D01*
X04046D02*
X04096D01*
X04084Y02545D02*
X04097Y02557D01*
X04098Y02539D02*
X04106Y02547D01*
X04096Y02557D02*
X04113Y02541D01*
X0409Y02539D02*
X04137D01*
X04083Y02561D02*
X04106Y02539D01*
X04075Y02553D02*
X0409Y02539D01*
X04027Y02676D02*
X04062Y0264D01*
X03968Y02604D02*
X04054Y0269D01*
X04008Y02676D02*
X04046Y02637D01*
X03968Y02623D02*
X0402Y02676D01*
X03966Y0264D02*
X04001Y02676D01*
X03988D02*
X04046Y02617D01*
X03968Y02565D02*
X04077Y02674D01*
X03968Y02584D02*
X04067Y02684D01*
X04046Y02561D02*
Y0264D01*
X03969Y02676D02*
X04046Y02598D01*
X03968Y02561D02*
Y0264D01*
X03946D02*
X03981Y02676D01*
X0393D02*
X03965Y0264D01*
X03906D02*
X03968D01*
X03927D02*
X03962Y02676D01*
X03917Y02669D02*
X03945Y0264D01*
X03911Y02655D02*
X03926Y0264D01*
X03949Y02676D02*
X04046Y02579D01*
X03907Y0264D02*
X03942Y02676D01*
X03965Y0264D02*
X03968Y02637D01*
X03901Y02646D02*
X03906Y0264D01*
Y02584D02*
Y0264D01*
X04073Y02553D02*
X04081Y02561D01*
X04063D02*
X04072Y02553D01*
X04054D02*
X04062Y02561D01*
X04042Y02553D02*
X04075D01*
X03969Y02488D02*
X04046Y02565D01*
X03968Y02637D02*
X04052Y02553D01*
X04025Y02536D02*
X04042Y02553D01*
X03968Y02598D02*
X04027Y02539D01*
X04025Y02503D02*
Y02536D01*
X03968Y02618D02*
X04037Y02549D01*
X03965Y02503D02*
X04046Y02585D01*
X03968Y02579D02*
X04025Y02522D01*
X03964Y02561D02*
X03968Y02565D01*
X03941Y02561D02*
X03968D01*
X03924Y02545D02*
X03966Y02503D01*
X03966Y02561D02*
X04047Y0248D01*
X03947Y02561D02*
X04047Y02461D01*
X03934Y02554D02*
X04047Y02441D01*
X03926Y02503D02*
X04046Y02624D01*
X03945Y02503D02*
X04046Y02604D01*
X03771Y02893D02*
X03921Y02743D01*
X03752Y02893D02*
X03903Y02741D01*
X03828Y02736D02*
X03902Y02811D01*
X03833Y02722D02*
X03902Y02792D01*
X03828Y02727D02*
Y02769D01*
X0379Y02727D02*
Y02769D01*
X03842Y02712D02*
X03902Y02772D01*
X03732Y02893D02*
X03903Y02721D01*
X03842Y02692D02*
X0392Y0277D01*
X03828Y02758D02*
X03874Y02712D01*
X03828Y02778D02*
X03893Y02712D01*
X03828Y02739D02*
X0386Y02706D01*
X03705Y02802D02*
X03785Y02723D01*
X03705Y02822D02*
X0379Y02738D01*
X03705Y02751D02*
X03757Y02802D01*
X03705Y02749D02*
Y02773D01*
X03693Y02738D02*
X03705Y02749D01*
X03693Y02738D02*
X03705Y02749D01*
Y02763D02*
X03775Y02694D01*
X03705Y02783D02*
X03775Y02713D01*
X03703Y02747D02*
X03781Y02669D01*
X03616Y02642D02*
X03766Y02792D01*
X03693Y02737D02*
X03771Y02659D01*
X039Y02712D02*
X03903Y02709D01*
X03881Y02712D02*
X03903Y02734D01*
X03867Y02712D02*
X039D01*
X0385Y02695D02*
X03867Y02712D01*
X03842Y02705D02*
X03851Y02696D01*
X0385Y02681D02*
Y02695D01*
X03886Y02645D02*
X039D01*
X03872Y02632D02*
X03884Y02644D01*
X03872Y02632D02*
X03884Y02644D01*
X03849Y02632D02*
X03872D01*
X03842Y02679D02*
X03849D01*
Y02632D02*
X03872D01*
X03842Y02679D02*
Y02712D01*
X03828Y02727D02*
X03842Y02712D01*
Y02685D02*
X03848Y02679D01*
X03775Y02679D02*
Y02712D01*
X0379Y02727*
X03775Y02679D02*
X03783Y02671D01*
X0378Y02667D02*
X03783Y02671D01*
X0378Y02667D02*
X03783Y02671D01*
X03832Y02632D02*
X03849D01*
X03683Y02727D02*
X03761Y02649D01*
X03673Y02717D02*
X03752Y02639D01*
X03614Y02777D02*
X03638Y02753D01*
X03531Y0284D02*
X03628Y02743D01*
X03705Y02749D02*
Y02773D01*
X03512Y0284D02*
X03618Y02734D01*
X03507Y02747D02*
X03577Y02817D01*
X03515Y02736D02*
X03586Y02807D01*
X03573Y02696D02*
X03658Y02781D01*
X03553Y02696D02*
X03634Y02777D01*
X0358Y02696D02*
X03658Y02773D01*
X03515Y02697D02*
X03602Y02784D01*
X03515Y02716D02*
X03593Y02794D01*
X03534Y02696D02*
X03615Y02777D01*
X03503Y02751D02*
X03515Y02739D01*
X03467Y02866D02*
X03608Y02724D01*
X03503Y02751D02*
X03515Y02739D01*
X03423Y02832D02*
X03503Y02751D01*
X03367Y0279D02*
X0344Y02717D01*
X03418D02*
X03442Y02741D01*
X03462Y0285D02*
X03599Y02714D01*
X03453Y0284D02*
X03589Y02705D01*
X03434Y0284D02*
X03578Y02696D01*
X0338Y02796D02*
X03468Y02709D01*
X03387Y02796D02*
X03468Y02716D01*
X03515D02*
Y02739D01*
Y02716D02*
Y02739D01*
Y027D02*
X0352Y02696D01*
X03468Y02698D02*
Y02716D01*
X03463Y02703D02*
X03468Y02708D01*
X03459Y02707D02*
X03468Y02698D01*
X03616Y0266D02*
X03693Y02738D01*
X03515Y02739D02*
X03559Y02696D01*
X03515D02*
X0358D01*
X03515Y0272D02*
X03539Y02696D01*
X03515D02*
Y02716D01*
X03453Y02713D02*
X03462Y02721D01*
X03449Y02717D02*
X03459Y02707D01*
X03449Y02717D02*
X03459Y02707D01*
X03438Y02717D02*
X03452Y02731D01*
X0343Y02717D02*
X03449D01*
X0343D02*
X03449D01*
X03439Y0266D02*
X03448Y02651D01*
X03439Y0267D02*
X03448Y02661D01*
X03439Y0264D02*
X03448Y02649D01*
X03439Y02659D02*
X03444Y02665D01*
X03884Y02643D02*
X03906Y02621D01*
X03846Y02599D02*
X03892Y02645D01*
X03874Y02634D02*
X03906Y02601D01*
X03846Y02618D02*
X03859Y02632D01*
X03836Y02628D02*
X0384Y02632D01*
X03846Y02584D02*
Y02617D01*
X03862Y02576D02*
X03906Y0262D01*
X03845Y02578D02*
X03906Y0264D01*
X03872Y02566D02*
X03906Y02601D01*
X03857Y02632D02*
X03905Y02583D01*
X03837Y02632D02*
X03896Y02573D01*
X03846Y02603D02*
X03886Y02563D01*
X03725Y02614D02*
X03782Y02671D01*
X03616Y02603D02*
X03786Y02773D01*
X03832Y02632D02*
X03846Y02617D01*
X03664Y02708D02*
X03742Y0263D01*
X03616Y02622D02*
X03776Y02782D01*
X03726Y02614D02*
X0378Y02667D01*
X03647Y02594D02*
X0379Y02737D01*
X03627Y02594D02*
X0379Y02757D01*
X03762Y02579D02*
X03779Y02595D01*
X03666Y02594D02*
X03775Y02703D01*
X03686Y02594D02*
X03775Y02684D01*
X03846Y02584D02*
X03852Y02578D01*
X03841D02*
X0386D01*
X03877Y02561*
X03841Y02578D02*
X03846Y02584D01*
X0381Y02561D02*
X03815Y02567D01*
X03807D02*
X03815D01*
X03877Y02555D02*
X03906Y02584D01*
X03876Y02497D02*
X03941Y02561D01*
X03876Y02493D02*
X03945Y02561D01*
X0381Y02539D02*
Y02561D01*
X03877Y02555D02*
Y02561D01*
X03806Y02565D02*
X0381Y02561D01*
X03796Y02556D02*
X0381Y02542D01*
X038Y02533D02*
X0381Y02543D01*
X03777Y02536D02*
X03807Y02567D01*
X03762Y02578D02*
X03779Y02595D01*
X03804Y02533D02*
X0381Y02539D01*
X0378Y02533D02*
X03814Y02567D01*
X0367Y02267D02*
X03964Y02561D01*
X03786Y02546D02*
X03799Y02533D01*
X03777Y02536D02*
X0378Y02533D01*
X03774D02*
X03777Y02536D01*
X03654Y02698D02*
X03732Y0262D01*
X03644Y02688D02*
X03718Y02614D01*
X03712D02*
X03726D01*
X03634Y02679D02*
X03705Y02608D01*
X03625Y02669D02*
X03695Y02598D01*
X03695Y02597D02*
X03712Y02614D01*
X03616Y02639D02*
X0366Y02594D01*
X03616Y02658D02*
X0368Y02594D01*
X03695D02*
Y02597D01*
X03616Y02619D02*
X03641Y02594D01*
X03616D02*
Y0266D01*
Y026D02*
X03621Y02594D01*
X03439Y0262D02*
X03448Y02629D01*
X03439Y0264D02*
X03448Y02631D01*
X03439Y02621D02*
X03448Y02612D01*
X03439Y02601D02*
X03448Y0261D01*
X03439Y02577D02*
Y0267D01*
Y02601D02*
X03448Y02592D01*
X03215Y02631D02*
X0345Y02396D01*
X03215Y0265D02*
X0345Y02415D01*
X03215Y02611D02*
X03468Y02358D01*
X03448Y02568D02*
Y02661D01*
X03281Y02603D02*
X0345Y02435D01*
X03616Y02594D02*
X03695D01*
X03439Y02581D02*
X03448Y0259D01*
X03439Y02582D02*
X03448Y02573D01*
Y02549D02*
Y02568D01*
X03435Y02577D02*
X03439Y02581D01*
X03448Y02549D02*
Y02568D01*
X03461Y02536D02*
X03464Y02533D01*
X03457Y02539D02*
X03461Y02536D01*
X03464Y02533*
X03448Y02549D02*
X03457Y02539D01*
X03448Y02549D02*
X03457Y02539D01*
X03385Y02577D02*
X03448Y02514D01*
X03365Y02577D02*
X03448Y02495D01*
X03404Y02577D02*
X03456Y02526D01*
X03339Y02482D02*
X03435Y02577D01*
X0332D02*
X03439D01*
X03424D02*
X03448Y02553D01*
X03346Y02577D02*
X0345Y02474D01*
X03327Y02577D02*
X0345Y02454D01*
X03339Y02423D02*
X03456Y0254D01*
X03339Y02462D02*
X03448Y02571D01*
X03339Y02443D02*
X03448Y02551D01*
X04261Y02511D02*
X04265Y02514D01*
X04261Y02511D02*
X04265Y02514D01*
X04256Y02505D02*
X04265Y02496D01*
X04251Y02501D02*
X0426Y0251D01*
X04251Y02501D02*
X0426Y0251D01*
X04237Y02501D02*
X04251D01*
X04265Y02495D02*
Y02514D01*
X04249Y02495D02*
X04265Y02511D01*
X04242Y02495D02*
X04265D01*
X04241Y02501D02*
X04247Y02495D01*
X04237Y02501D02*
X04242Y02495D01*
X04251Y02419D02*
X04259Y02428D01*
X04237Y02501D02*
X04251D01*
X04154Y02474D02*
X04157Y02477D01*
X0422Y02428D02*
X04283D01*
X04108Y02486D02*
X04123Y02501D01*
X04108Y02491D02*
X04118Y02501D01*
X04108D02*
X04123D01*
X04232Y02419D02*
X0424Y02428D01*
X04212Y02419D02*
X0422Y02428D01*
X04236D02*
X04244Y02419D01*
X04198Y02422D02*
X04204Y02428D01*
X0422*
X04256D02*
X04264Y02419D01*
X04201Y02424D02*
X04205Y02419D01*
X04213D02*
X04416D01*
X04198Y02422D02*
X04204Y02428D01*
X04179Y02422D02*
X04198D01*
X04179D02*
X04198D01*
X04217Y02428D02*
X04225Y02419D01*
X04194D02*
X04213D01*
X04194D02*
X04213D01*
X04184Y0241D02*
X04194Y02419D01*
X04184Y02422D02*
X0419Y02415D01*
X04184Y0241D02*
X04194Y02419D01*
X04173Y02399D02*
X04195Y02422D01*
X04172Y02414D02*
X0418Y02406D01*
X04179Y02405D02*
X04184Y0241D01*
X04164Y02407D02*
X04179Y02422D01*
X04132Y02407D02*
X04164D01*
X04174Y02399D02*
X04179Y02405D01*
X04174Y02399D02*
X04179Y02405D01*
X04159Y02407D02*
X04167Y02399D01*
X04157D02*
X04174D01*
X04132Y02398D02*
X04141Y02407D01*
X0414D02*
X04157Y0239D01*
X04108Y02497D02*
X04114Y02491D01*
X04108Y02486D02*
Y02501D01*
X04042Y02486D02*
X04047D01*
X03966Y02503D02*
X03969Y025D01*
X03914Y02535D02*
X03946Y02503D01*
X04025Y02503D02*
X04042Y02486D01*
X03969Y02429D02*
X04034Y02494D01*
X03969Y02449D02*
X04025Y02505D01*
X04047Y02424D02*
Y02486D01*
X03969Y02424D02*
Y02503D01*
Y02468D02*
X04025Y02524D01*
X03907Y02424D02*
Y02503D01*
X03905Y02525D02*
X03927Y02503D01*
X03895Y02515D02*
X03907Y02503D01*
Y02503D02*
X03969D01*
X03804Y02495D02*
X03809D01*
X03774Y02533D02*
X03777Y02536D01*
X03804Y02495D02*
X03809D01*
X03885Y02506D02*
X03907Y02484D01*
X03876Y02475D02*
Y02497D01*
Y02495D02*
X03907Y02464D01*
X03809Y02475D02*
Y02495D01*
X03798D02*
X03809Y02485D01*
X04047Y02424D02*
X04094D01*
X03964D02*
X03969Y02429D01*
X03957Y02424D02*
X03969D01*
X03957Y02417D02*
X03964Y02424D01*
X04064D02*
X04094Y02394D01*
X03973Y02394D02*
X04047Y02468D01*
X04084Y02424D02*
X04094Y02414D01*
X03963Y02404D02*
X04045Y02486D01*
X03957Y0241D02*
Y02424D01*
X03876Y02476D02*
X03907Y02445D01*
X03867Y02465D02*
X03907Y02425D01*
Y02424D02*
X03919D01*
X03859Y02458D02*
X03876Y02475D01*
X03809D02*
X03826Y02458D01*
X03859*
X03919Y02391D02*
Y0241D01*
X03855Y02458D02*
X03919Y02394D01*
Y02391D02*
Y0241D01*
X03908Y02424D02*
X03919Y02414D01*
Y0241D02*
Y02424D01*
X04132Y02395D02*
X04157Y02371D01*
X04132Y02378D02*
X04161Y02407D01*
X04132Y02359D02*
X04157Y02383D01*
Y02332D02*
Y02399D01*
X04132Y02376D02*
X04157Y02351D01*
X04132Y0232D02*
X04157Y02344D01*
X04251Y02264D02*
X04325Y02337D01*
X04232Y02309D02*
Y02332D01*
X04159Y02289D02*
X04203Y02332D01*
X04132Y02356D02*
X042Y02289D01*
X04132Y02309D02*
Y02407D01*
Y02337D02*
X0418Y02289D01*
X04066Y0237D02*
X04094Y02398D01*
X03969Y025D02*
X04094Y02375D01*
X04047Y0237D02*
X04094D01*
Y02424*
X03969Y02481D02*
X04079Y0237D01*
X04085D02*
X04094Y02379D01*
X04021Y02345D02*
X04094Y02418D01*
X04012Y02355D02*
X04081Y02424D01*
X04132Y02339D02*
X04157Y02364D01*
X04002Y02365D02*
X04061Y02424D01*
X0422Y02332D02*
X04232D01*
X04215D02*
X04232Y02314D01*
X04261Y02281D02*
X0427Y0229D01*
X04198Y02289D02*
X04232Y02323D01*
X04195Y02332D02*
X04225Y02302D01*
X04212Y02289D02*
X04232Y02309D01*
X04264Y02283D02*
X04283Y02264D01*
X04261Y02281D02*
X0427Y0229D01*
X04244Y02264D02*
X04735D01*
X04244D02*
X04261Y02281D01*
X04254Y02273D02*
X04264Y02264D01*
X04176Y02332D02*
X04216Y02292D01*
X04132Y023D02*
X04164Y02332D01*
X04157D02*
X0422D01*
X04132Y0229D02*
Y02309D01*
Y0229D02*
Y02309D01*
X04179Y02289D02*
X04222Y02332D01*
X0414Y02289D02*
X04183Y02332D01*
X0413Y02289D02*
X04212D01*
X04132Y02317D02*
X04161Y02289D01*
X04132Y02298D02*
X04141Y02289D01*
X03982Y02384D02*
X04047Y02449D01*
X03969Y02461D02*
X0406Y0237D01*
X03992Y02375D02*
X04047Y02429D01*
X03969Y02442D02*
X04047Y02363D01*
X03928Y02381D02*
X03939Y0237D01*
X03929D02*
X03934Y02375D01*
X03967Y02424D02*
X04047Y02344D01*
X03957Y02415D02*
X04047Y02325D01*
X04031Y02336D02*
X04047Y02352D01*
Y0232D02*
Y0237D01*
X03957Y0241D02*
X04047Y0232D01*
X03969Y02291D02*
Y02341D01*
X03919Y02391D02*
X03928Y02381D01*
X03919Y02391D02*
X03928Y02381D01*
X03907Y0237D02*
X03939D01*
X0391D02*
X03925Y02385D01*
X03836Y02458D02*
X03923Y0237D01*
X03907Y02368D02*
X0391Y0237D01*
X03784Y02264D02*
X03919Y02399D01*
X03779Y02495D02*
X03907Y02367D01*
Y02291D02*
Y0237D01*
X03803Y02264D02*
X03907Y02368D01*
X03823Y02264D02*
X03907Y02348D01*
X04041Y02326D02*
X04047Y02332D01*
X04003Y02289D02*
X04012Y02297D01*
X03969Y02289D02*
X04021D01*
X03969Y02312D02*
X03983Y02327D01*
X03969Y02332D02*
X03973Y02336D01*
X03969Y02293D02*
X03993Y02317D01*
X03969Y02325D02*
X04005Y02289D01*
X03969Y02341D02*
X04021Y02289D01*
X03984D02*
X04002Y02307D01*
X03969Y02305D02*
X03985Y02289D01*
X03966Y02291D02*
X03969Y02289D01*
X03919Y02282D02*
X03928Y02272D01*
X03919Y02282D02*
Y02291D01*
Y02282D02*
X03928Y02272D01*
X03919Y02282D02*
Y02291D01*
X03907D02*
X03919D01*
X039Y02264D02*
X03919Y02282D01*
X03928Y02272D02*
X03937Y02264D01*
X03881D02*
X03909Y02291D01*
X0392Y02264D02*
X03929Y02272D01*
X03842Y02264D02*
X03907Y02329D01*
X03861Y02264D02*
X03907Y02309D01*
X03774Y02533D02*
X03804D01*
X03762Y02495D02*
X03804D01*
X03762Y02476D02*
X03781Y02495D01*
X03681D02*
X03695Y02482D01*
X03671Y02482D02*
X03684Y02495D01*
X03695Y02482D02*
Y02495D01*
X03762Y02463D02*
Y02495D01*
X03672Y02464D02*
X03695Y02487D01*
X03745Y02446D02*
X03762Y02463D01*
X03674Y02461D02*
X03695Y02482D01*
X03672Y02461D02*
Y02482D01*
Y02465D02*
X03675Y02462D01*
X03623Y02495D02*
X03636Y02482D01*
X03515Y02495D02*
X03695D01*
X03584Y02482D02*
X03672D01*
X03603Y02495D02*
X03616Y02482D01*
X03593D02*
X03606Y02495D01*
X03612Y02482D02*
X03625Y02495D01*
X03662D02*
X03685Y02472D01*
X03651Y02482D02*
X03664Y02495D01*
X03663Y02358D02*
X03801Y02495D01*
X03632Y02482D02*
X03645Y02495D01*
X03642D02*
X03655Y02482D01*
X03731Y02446D02*
X03745D01*
X0371Y02425D02*
X03731Y02446D01*
X03698Y02413D02*
X0371Y02425D01*
X03698Y02413D02*
X0371Y02425D01*
X03674Y02413D02*
X03698D01*
X03674D02*
X03698D01*
X03672Y02406D02*
X0368Y02413D01*
X03652Y02366D02*
X03732Y02446D01*
X03652Y02391D02*
X03672D01*
Y02413*
X03652Y02385D02*
X03658Y02391D01*
X03652Y02369D02*
X03663Y02358D01*
X03652Y02363D02*
Y02386D01*
Y02391*
Y02363D02*
Y02386D01*
X03604D02*
Y02391D01*
X03584D02*
X03604D01*
X03602Y02361D02*
Y02384D01*
Y02361D02*
Y02384D01*
X03544Y02418D02*
X03602Y0236D01*
X0365Y02358D02*
X0367D01*
X03586D02*
X03602Y02375D01*
X03582Y02358D02*
X03602D01*
X03584Y02495D02*
X03597Y02482D01*
X03557Y02485D02*
X03567Y02495D01*
X03533Y02485D02*
X03566D01*
X03545Y02495D02*
X03555Y02485D01*
X03538D02*
X03548Y02495D01*
X0353Y02482D02*
X03533Y02485D01*
X03571Y0248D02*
X03587Y02495D01*
X03564D02*
X03584Y02475D01*
X03581Y0247D02*
X03584Y02474D01*
Y02391D02*
Y02482D01*
X03566Y02485D02*
X03583Y02468D01*
X03525Y02495D02*
X03535Y02485D01*
X03515Y02482D02*
X03528Y02495D01*
X03514Y02482D02*
X0353D01*
X03448Y02484D02*
Y02517D01*
X03464Y02533*
X03515Y02484D02*
Y02495D01*
Y02486D02*
X03519Y02482D01*
X0345Y02391D02*
Y02482D01*
X03332Y02358D02*
X0345Y02475D01*
X03339Y02404D02*
X03448Y02512D01*
X03329Y02374D02*
X03448Y02493D01*
X03583Y02435D02*
Y02468D01*
X03566Y02418D02*
X03583Y02435D01*
X03575Y02426D02*
X03584Y02417D01*
X03537Y02418D02*
X03566D01*
X03584Y02397D02*
X0359Y02391D01*
X03564Y02418D02*
X03584Y02397D01*
X0359Y02391D02*
X03602Y02379D01*
X03537Y02391D02*
Y02418D01*
Y02407D02*
X03548Y02418D01*
X03537Y02405D02*
X03585Y02358D01*
X0345Y02391D02*
X03537D01*
X03493D02*
X03526Y02358D01*
X0345Y02396D02*
X03454Y02391D01*
X03527Y02358D02*
X03584Y02415D01*
X03488Y02358D02*
X03522Y02391D01*
X03448Y02358D02*
X03535D01*
X03339Y02467D02*
X03448Y02358D01*
X03449D02*
X03483Y02391D01*
X03762Y02473D02*
X03907Y02328D01*
X03748Y02448D02*
X03932Y02264D01*
X03764D02*
X03919Y02418D01*
X03762Y02492D02*
X03907Y02347D01*
X03758Y02458D02*
X03907Y02308D01*
X03745Y02264D02*
X03907Y02426D01*
X03731Y02446D02*
X03913Y02264D01*
X03706D02*
X03907Y02465D01*
X03725Y02264D02*
X03907Y02446D01*
X03721Y02436D02*
X03893Y02264D01*
X03711Y02426D02*
X03874Y02264D01*
X03701Y02417D02*
X03855Y02264D01*
X0367Y02326D02*
X03814Y02469D01*
X0367Y02345D02*
X03809Y02484D01*
X0367Y02306D02*
X03824Y0246D01*
X03535Y02347D02*
X03584Y02396D01*
X03508Y02358D02*
X03584Y02435D01*
X03535Y02327D02*
X03599Y02391D01*
X03686Y02264D02*
X03907Y02485D01*
X0367Y02287D02*
X03841Y02458D01*
X03686Y02413D02*
X03835Y02264D01*
X03672Y02407D02*
X03816Y02264D01*
X03668Y02391D02*
X03796Y02264D01*
X0367Y02311D02*
X03718Y02264D01*
X0367Y0235D02*
X03757Y02264D01*
X0367Y02292D02*
X03699Y02264D01*
X0367Y02267D02*
Y02358D01*
X03663D02*
X0367Y0235D01*
Y02272D02*
X03679Y02264D01*
X0367Y02331D02*
X03738Y02264D01*
X03652Y02388D02*
X03777Y02264D01*
X03667D02*
X0367Y02267D01*
X03647Y02264D02*
X0365Y02267D01*
X03656D02*
X0366Y02264D01*
X03628D02*
X03631Y02267D01*
X03617D02*
X03621Y02264D01*
X03582Y02267D02*
X0367D01*
X03582Y02355D02*
X03586Y02358D01*
X03532Y02391D02*
X03582Y02341D01*
X03535Y02329D02*
X03582Y02282D01*
X03637Y02267D02*
X0364Y02264D01*
X03608D02*
X03611Y02267D01*
X02332Y02264D02*
X03937D01*
X03589D02*
X03592Y02267D01*
X03598D02*
X03601Y02264D01*
X03512Y02391D02*
X03582Y02321D01*
X03473Y02391D02*
X03507Y02358D01*
X03535Y02308D02*
X03582Y02355D01*
X03469Y02358D02*
X03502Y02391D01*
X03454D02*
X03487Y02358D01*
X03582Y02267D02*
Y02358D01*
X03535Y02349D02*
X03582Y02302D01*
X03535Y02288D02*
X03582Y02335D01*
X03535Y02267D02*
Y02358D01*
X03448Y02267D02*
Y02358D01*
X03374Y02264D02*
X03448Y02337D01*
X03339Y02326D02*
X0345Y02436D01*
X03339Y02345D02*
X0345Y02456D01*
X03339Y02306D02*
X0345Y02417D01*
X03339Y02428D02*
X03448Y0232D01*
X03339Y02448D02*
X03448Y02339D01*
X03339Y02409D02*
X03448Y023D01*
X03339Y02267D02*
X03463Y02391D01*
X03339Y02287D02*
X0345Y02397D01*
X03337Y02391D02*
X03448Y02281D01*
X03329Y0238D02*
X03445Y02264D01*
X03355D02*
X03448Y02356D01*
X0355Y02264D02*
X03582Y02296D01*
X03535Y02269D02*
X03582Y02316D01*
X03569Y02264D02*
X03582Y02277D01*
X03535Y0229D02*
X03562Y02264D01*
X03535Y0231D02*
X03582Y02264D01*
X03535Y02271D02*
X03543Y02264D01*
X0352Y02267D02*
X03523Y02264D01*
X03511D02*
X03514Y02267D01*
X0353Y02264D02*
X03534Y02267D01*
X03491Y02264D02*
X03495Y02267D01*
X035D02*
X03504Y02264D01*
X03448Y02267D02*
X03535D01*
X03481D02*
X03484Y02264D01*
X03472D02*
X03475Y02267D01*
X03452Y02264D02*
X03456Y02267D01*
X03413Y02264D02*
X03448Y02298D01*
X03461Y02267D02*
X03465Y02264D01*
X03394D02*
X03448Y02317D01*
X03433Y02264D02*
X03448Y02278D01*
X03321Y02717D02*
X03394Y0279D01*
X03301Y02717D02*
X03381Y02796D01*
X03322Y02777D02*
X03382Y02717D01*
X03277Y02731D02*
X03322Y02777D01*
X03257Y02731D02*
X03307Y0278D01*
X03288Y02723D02*
X03342Y02777D01*
X03379Y02717D02*
X03423Y0276D01*
X03357Y0278D02*
X03421Y02717D01*
X03399D02*
X03433Y02751D01*
X03341Y02777D02*
X03402Y02717D01*
X0334D02*
X03403Y0278D01*
X0336Y02717D02*
X03413Y0277D01*
X03215Y02806D02*
X03304Y02717D01*
X03215Y02747D02*
X03289Y02821D01*
X03215Y02786D02*
X0327Y02731D01*
X03215Y02767D02*
X0325Y02731D01*
X03215Y02741D02*
Y02859D01*
Y02747D02*
X03239Y02723D01*
X03215Y02845D02*
X03343Y02717D01*
X03156Y02923D02*
X03363Y02717D01*
X03215Y02825D02*
X03324Y02717D01*
X03174Y02687D02*
X03289Y02801D01*
X03189Y02682D02*
X03297Y0279D01*
X03295Y02679D02*
X0332D01*
X03295Y02717D02*
X0343D01*
X03287Y0267D02*
X03306D01*
X03294D02*
X03302Y02679D01*
X0328Y02731D02*
X03295Y02717D01*
X03287Y0267D02*
X03295Y02679D01*
X0331Y02667D02*
X0332Y02677D01*
X03303Y02679D02*
X0332Y02661D01*
X03306Y0267D02*
X0332Y02656D01*
Y02679*
X03289Y02673D02*
X03292Y0267D01*
X03259Y02664D02*
X03263Y0266D01*
X0323Y02714D02*
X03247Y02731D01*
X03182Y02741D02*
X0323Y02693D01*
X03247Y02731D02*
X0328D01*
X03202Y02741D02*
X0323Y02713D01*
X03159Y02741D02*
X03215D01*
X03174Y02682D02*
X03215D01*
X0323Y02681D02*
X03247Y02664D01*
X03208Y02682D02*
X0323Y02704D01*
X03247Y02664D02*
X03266D01*
X0323Y02681D02*
Y02714D01*
X03215Y02669D02*
X0323Y02684D01*
X03209Y02741D02*
X03215Y02747D01*
X03163Y02715D02*
X03189Y02741D01*
X03159Y02731D02*
X0317Y02741D01*
X03159Y02719D02*
Y02741D01*
X03042Y02732D02*
Y0277D01*
X03159Y02719D02*
X03165Y02714D01*
X03173Y02705D02*
X03209Y02741D01*
X03159Y02725D02*
X03202Y02682D01*
X03165Y02714D02*
X03174Y02704D01*
Y02685D02*
Y02704D01*
X03165Y02714D02*
X03174Y02704D01*
Y02685D02*
Y02704D01*
X03029Y02757D02*
X03042Y02745D01*
X02976Y02704D02*
X03042Y0277D01*
X0302Y02748D02*
X03039Y02729D01*
X0301Y02738D02*
X03029Y02719D01*
X02871Y02754D02*
Y02906D01*
X03Y02728D02*
X03019Y02709D01*
X02974Y02682D02*
X03042Y0275D01*
X02955Y02682D02*
X03042Y02769D01*
X02992Y02682D02*
X03042Y02732D01*
X0299Y02718D02*
X03009Y027D01*
X02981Y02709D02*
X03Y0269D01*
X03174Y0269D02*
X03182Y02682D01*
X03131Y02691D02*
X03136Y02685D01*
X03131Y02682D02*
X03135Y02687D01*
X03115Y02691D02*
X03124Y02682D01*
X03105Y02694D02*
X03109Y02691D01*
X03131*
X03111Y02682D02*
X0312Y02691D01*
X03092Y02682D02*
X03105Y02694D01*
X03096Y02682D02*
X03136D01*
X03092Y02682D02*
X03105Y02694D01*
X03099Y02688D02*
X03104Y02682D01*
X02959Y02687D02*
X02976Y02704D01*
X02959Y02687D02*
X02976Y02704D01*
X02971Y02699D02*
X02988Y02682D01*
X02961Y02689D02*
X02968Y02682D01*
X02946Y02687D02*
X02959D01*
X02946D02*
X02959D01*
X02946Y02682D02*
X02992D01*
X02946Y02685D02*
X02949Y02682D01*
X03089Y02678D02*
X03096Y02671D01*
X02847Y02687D02*
X02858Y02675D01*
X02946Y02682D02*
Y02687D01*
X03313Y0261D02*
X0332Y02603D01*
X03256Y0262D02*
Y02653D01*
X03266Y02664*
X03306Y02603D02*
X0332Y02617D01*
X03301Y02603D02*
X0332Y02583D01*
Y02577D02*
Y02617D01*
X03256Y0262D02*
X03273Y02603D01*
X03306*
X03215Y0267D02*
X03256Y02628D01*
X03163Y02741D02*
X03256Y02648D01*
X03215Y02591D02*
X03256Y02632D01*
X03215Y0263D02*
X03248Y02664D01*
X03215Y0265D02*
X03238Y02673D01*
X03215Y02611D02*
X03256Y02652D01*
X03164Y02482D02*
X03285Y02603D01*
X03145Y02482D02*
X03269Y02606D01*
X03184Y02482D02*
X03304Y02603D01*
X03215Y02564D02*
Y02682D01*
Y02572D02*
X03259Y02616D01*
X03301Y02482D02*
X03396Y02577D01*
X03281Y02482D02*
X03376Y02577D01*
X0332Y02482D02*
X03415Y02577D01*
X0332Y02583D02*
X03327Y02577D01*
X03262Y02482D02*
X03357Y02577D01*
X03207Y02564D02*
X03215Y02572D01*
Y02592D02*
X03324Y02482D01*
X03204Y02464D02*
X0332Y0258D01*
X03227Y02467D02*
X03337Y02577D01*
X03215Y02572D02*
X03305Y02482D01*
X03204Y02564D02*
X03285Y02482D01*
X03203D02*
X0332Y02599D01*
X03184Y02564D02*
X03266Y02482D01*
X03125Y02564D02*
X03215D01*
X03125Y02482D02*
X03207Y02564D01*
X03115Y02554D02*
X03188Y02482D01*
X03106Y02545D02*
X03168Y02482D01*
X03145Y02564D02*
X03242Y02467D01*
X03126Y02564D02*
X03222Y02467D01*
X03165Y02564D02*
X03251Y02477D01*
X03069Y02465D02*
X03168Y02564D01*
X03069Y02445D02*
X03187Y02564D01*
X03079Y02668D02*
X03096Y02652D01*
X03042Y02631D02*
X03092Y02682D01*
X0307Y02659D02*
X03096Y02632D01*
X03025Y02615D02*
X03042Y02631D01*
X03025Y02615D02*
X03042Y02631D01*
X02992Y02615D02*
X03025D01*
X03096Y02592D02*
Y02682D01*
X0306Y02649D02*
X03096Y02613D01*
X0305Y02639D02*
X03096Y02593D01*
X0304Y0263D02*
X03087Y02583D01*
X03031Y0262D02*
X03077Y02573D01*
X02997Y02615D02*
X03058Y02554D01*
X02992Y02615D02*
X03025D01*
X02946D02*
X02992D01*
X02977D02*
X03048Y02544D01*
X02946Y02603D02*
Y02615D01*
X02858Y02606D02*
Y02687D01*
X02936Y02585D02*
X02965Y02615D01*
X0297Y02522D02*
X03096Y02648D01*
X0295Y02522D02*
X03096Y02667D01*
X02989Y02522D02*
X03096Y02628D01*
X02859Y02489D02*
X02985Y02615D01*
X02958D02*
X03038Y02534D01*
X03016Y02615D02*
X03067Y02564D01*
X02946Y02607D02*
X03028Y02525D01*
X03026Y02522D02*
X03096Y02592D01*
X02936Y02583D02*
Y02603D01*
Y02583D02*
Y02603D01*
X02946*
X03069Y02504D02*
X03129Y02564D01*
X03069Y02508D02*
X03125Y02564D01*
X03069Y02484D02*
X03148Y02564D01*
X03009Y02522D02*
X03096Y02609D01*
X02936Y02598D02*
X03012Y02522D01*
X02933Y0258D02*
X02992Y02522D01*
X02931D02*
X03024Y02615D01*
X02924Y02571D02*
X02973Y02522D01*
X02919Y02566D02*
X02936Y02583D01*
X02919Y02566D02*
X02936Y02583D01*
X02883Y0253D02*
X02919Y02566D01*
X02864Y02513D02*
X02936Y02585D01*
X02859Y02469D02*
X03004Y02615D01*
X02914Y02561D02*
X02953Y02522D01*
X02904Y02551D02*
X02934Y02522D01*
X02894Y02542D02*
X02923Y02513D01*
X02698Y0271D02*
Y02727D01*
X02681D02*
X02698D01*
X0269D02*
X02698Y02719D01*
X02677Y02731D02*
X02681Y02727D01*
X0259Y02745D02*
X02612Y02767D01*
X02677Y02716D02*
X02688Y02727D01*
X02698Y0271D02*
X02715Y02693D01*
X02677Y0272D02*
X02723Y02674D01*
X02661Y02661D02*
X02704Y02704D01*
X02677Y02701D02*
Y02731D01*
X0259Y02701D02*
Y02745D01*
X02647Y02667D02*
X02698Y02717D01*
X02573Y02749D02*
X02608Y02783D01*
X02557Y02781D02*
X02592Y02747D01*
X02577Y02733D02*
X02624Y0278D01*
X02555Y02767D02*
X02577Y02745D01*
X02553Y02767D02*
X02577Y02742D01*
X0259Y02729*
X02577Y02723D02*
X0259Y0271D01*
X02577Y02713D02*
X0259Y02726D01*
X02577Y02703D02*
X02614Y02667D01*
X02577Y02701D02*
Y02745D01*
X0255Y02667D02*
X0259Y02707D01*
X02811Y02675D02*
X02823Y02687D01*
X02811D02*
X02816D01*
X02858*
X02715Y02693D02*
X02723D01*
X02655Y0268D02*
X02677Y02701D01*
X02811Y02687D02*
X02816D01*
X02811Y02655D02*
X02843Y02687D01*
X02677Y02701D02*
X02723Y02654D01*
X02827Y02687D02*
X02858Y02656D01*
X02671Y02651D02*
X02714Y02694D01*
X0264Y0268D02*
X02653Y02667D01*
X02655D02*
X02677Y02645D01*
X02628Y02667D02*
X02641Y0268D01*
X02612D02*
X02655D01*
X02612Y02667D02*
X02655D01*
X0259Y02701D02*
X02612Y0268D01*
X02562Y0266D02*
X02597Y02694D01*
X0262Y0268D02*
X02633Y02667D01*
X02572Y0265D02*
X02607Y02685D01*
X02568Y02692D02*
X02603Y02658D01*
X0259Y02645D02*
X02612Y02667D01*
X02558Y02683D02*
X02593Y02648D01*
X02555Y02667D02*
X02577Y02645D01*
X0249Y02745D02*
X02512Y02767D01*
X02448Y02741D02*
X02499Y02792D01*
X0249Y02743D02*
X02513Y02767D01*
X02436Y02748D02*
X0249Y02802D01*
X02417Y02748D02*
X0249Y02821D01*
X02407Y02748D02*
X02441D01*
X02458Y02731D02*
X02509Y02782D01*
X02332Y0289D02*
X0249Y02732D01*
Y02701D02*
Y02745D01*
X02441Y02748D02*
X02458Y02731D01*
X0239D02*
X02407Y02748D01*
X02332Y02741D02*
X02491Y029D01*
X02332Y0291D02*
X02493Y02748D01*
X02332Y02851D02*
X02434Y02748D01*
X02332Y02812D02*
X02401Y02742D01*
X02332Y02832D02*
X02415Y02748D01*
X02332Y02793D02*
X02392Y02733D01*
X02332Y02702D02*
X0251Y02881D01*
X02332Y02721D02*
X02501Y0289D01*
X02332Y02871D02*
X0249Y02712D01*
X02332Y02682D02*
X0249Y02841D01*
X02332Y02773D02*
X0239Y02714D01*
X02555Y0268D02*
X02577Y02701D01*
X02512Y0268D02*
X02555D01*
X02542D02*
X02555Y02667D01*
X0249Y02701D02*
X02512Y0268D01*
X02458Y02698D02*
Y02731D01*
X0253Y02667D02*
X02543Y0268D01*
X02523D02*
X02536Y02667D01*
X02512D02*
X02555D01*
X02577Y02645*
X02458Y02706D02*
X02504Y02659D01*
X0249Y02645D02*
X02512Y02667D01*
X02458Y02711D02*
X0249Y02743D01*
X02441Y02681D02*
X02458Y02698D01*
X0239D02*
Y02731D01*
X02458Y02725D02*
X02516Y02667D01*
X02452Y02692D02*
X02494Y02649D01*
X02407Y02681D02*
X02441D01*
X02332Y02663D02*
X0239Y02722D01*
Y02698D02*
X02407Y02681D01*
X02811Y02636D02*
X02858Y02683D01*
X02811Y02683D02*
X02858Y02636D01*
X02811Y02664D02*
X02858Y02617D01*
X02811Y02616D02*
X02858Y02663D01*
X02811Y02603D02*
Y02687D01*
X02702Y02605D02*
X02723Y02626D01*
X02811Y02644D02*
X02854Y02602D01*
X02795Y0258D02*
X02858Y02644D01*
X02814Y0258D02*
X02858Y02624D01*
X02811Y02625D02*
X02844Y02592D01*
X02723Y02603D02*
Y02693D01*
X02712Y02595D02*
X02723Y02606D01*
X02677Y02638D02*
X02723Y02684D01*
X02667Y02691D02*
X02723Y02635D01*
X02683Y02624D02*
X02723Y02665D01*
X02653Y02667D02*
X02677Y02642D01*
X02577Y02635D02*
X02621Y0268D01*
X02677Y0263D02*
Y02645D01*
X02692Y02615D02*
X02723Y02645D01*
X02677Y02642D02*
X02739Y0258D01*
X02677Y0263D02*
X02727Y0258D01*
X02657Y02681D02*
X02723Y02615D01*
X02683Y02624D02*
X02723Y02665D01*
X02832Y0258D02*
X02858Y02606D01*
X02811Y02605D02*
X02834Y02582D01*
X02794Y02603D02*
X02817Y0258D01*
X02775D02*
X02798Y02603D01*
X02775D02*
X02797Y0258D01*
X02723Y02603D02*
X02811D01*
X02756Y0258D02*
X02778Y02603D01*
X02755D02*
X02778Y0258D01*
X02727D02*
X02832D01*
X02736Y02603D02*
X02758Y0258D01*
X02736D02*
X02759Y02603D01*
X02722Y02585D02*
X02739Y02603D01*
X02577Y02606D02*
X026Y02583D01*
X0259Y02601D02*
X026Y02591D01*
X02569Y02594D02*
X026Y02563D01*
X02567Y02548D02*
X026Y0258D01*
X02567Y02577D02*
X026Y02544D01*
X02667Y02526D02*
Y02539D01*
X02567Y02557D02*
X026Y02524D01*
X02667Y02539D02*
X02676Y0253D01*
X026Y02526D02*
Y02591D01*
X02567Y02528D02*
X026Y02561D01*
X02577Y02601D02*
Y02645D01*
X02442Y02682D02*
X0249Y02634D01*
X02577Y02645D02*
X0259Y02632D01*
X02424Y02681D02*
X0249Y02615D01*
X02332Y02643D02*
X0239Y02702D01*
X0249Y02601D02*
Y02645D01*
X02366Y02522D02*
X02524Y0268D01*
X02332Y02734D02*
X025Y02566D01*
X0259Y02601D02*
Y02645D01*
X02332Y02546D02*
X0249Y02704D01*
X02332Y02715D02*
X025Y02546D01*
X02332Y02695D02*
X025Y02527D01*
X02332Y02565D02*
X0249Y02724D01*
X02332Y02754D02*
X025Y02585D01*
X02332Y02526D02*
X02498Y02693D01*
X02332Y02604D02*
X02408Y02681D01*
X02332Y02624D02*
X02398Y0269D01*
X02332Y02585D02*
X02428Y02681D01*
X02332Y02676D02*
X02486Y02522D01*
X02332Y02507D02*
X02508Y02683D01*
X02332Y02656D02*
X02466Y02522D01*
X02332Y02264D02*
Y03383D01*
Y02637D02*
X02447Y02522D01*
X02577Y02625D02*
X0259Y02612D01*
X02577Y02616D02*
X0259Y02629D01*
X02567Y02567D02*
X02596Y02596D01*
X02567Y02591D02*
X02577Y02601D01*
X02567Y02587D02*
X0259Y02609D01*
X0249Y02601D02*
X025Y02591D01*
X0258Y02522D02*
X026Y02541D01*
X0258Y02522D02*
X026Y02541D01*
X02567Y02538D02*
X02583Y02522D01*
X025Y02321D02*
Y02591D01*
X02567Y02522D02*
Y02591D01*
X02463Y02522D02*
X025Y02558D01*
X02444Y02522D02*
X025Y02578D01*
X02483Y02522D02*
X025Y02539D01*
X02405Y02522D02*
X0249Y02607D01*
X02385Y02522D02*
X0249Y02626D01*
X02424Y02522D02*
X02497Y02594D01*
X02332Y02598D02*
X02408Y02522D01*
X02332Y02617D02*
X02427Y02522D01*
X02332Y02578D02*
X02388Y02522D01*
X02332Y02559D02*
X02369Y02522D01*
X02332Y02539D02*
X02351Y0252D01*
X03251Y02467D02*
Y02482D01*
X03339*
X03247Y02467D02*
X03251Y02472D01*
X03216Y02467D02*
X03249D01*
X03204Y02456D02*
X03216Y02467D01*
X03249D01*
X03339Y02391D02*
Y02482D01*
X03251Y02391D02*
Y024D01*
X03216D02*
X03249D01*
X03204Y02456D02*
X03216Y02467D01*
X03204Y02456D02*
Y02482D01*
Y02391D02*
Y02411D01*
Y02466D02*
X03209Y02461D01*
X03117Y02482D02*
X03204D01*
Y02405D02*
X03207Y02408D01*
X03096Y02535D02*
X03149Y02482D01*
X03204Y02411D02*
X03216Y024D01*
X03204Y02411D02*
X03216Y024D01*
X03204Y02407D02*
X03253Y02358D01*
X03069Y02426D02*
X03137Y02358D01*
X03329Y02391D02*
X03339D01*
X03251D02*
X03262D01*
X03329Y02358D02*
X03339D01*
X03251Y02399D02*
X03259Y02391D01*
X03231Y024D02*
X03262Y02369D01*
X03259Y02391D02*
X03262Y02389D01*
X03329Y02358D02*
Y02391D01*
X03254Y02358D02*
X03262Y02365D01*
X03329Y0236D02*
X03331Y02358D01*
X03262D02*
Y02391D01*
X03251Y02358D02*
X03262D01*
X03251Y02355D02*
X03254Y02358D01*
X03196D02*
X03238Y024D01*
X03176Y02358D02*
X03218Y024D01*
X03216D02*
X03249D01*
X03162Y02391D02*
X03195Y02358D01*
X03157D02*
X0319Y02391D01*
X03117D02*
X03204D01*
X03142D02*
X03175Y02358D01*
X03137D02*
X03171Y02391D01*
X03117Y02358D02*
X03204D01*
X03118D02*
X03151Y02391D01*
X03123D02*
X03156Y02358D01*
X03086Y02525D02*
X03129Y02482D01*
X03076Y02516D02*
X03117Y02475D01*
X03069Y02504D02*
X03117Y02456D01*
X02923Y02522D02*
X03026D01*
X02885Y02532D02*
X02923Y02494D01*
X029Y02452D02*
X02923Y02474D01*
X03117Y02391D02*
Y02482D01*
X03069Y02465D02*
X03117Y02417D01*
X03069Y02406D02*
X03117Y02454D01*
X03069Y02426D02*
X03117Y02473D01*
X03069Y02484D02*
X03117Y02436D01*
X0291Y02442D02*
X02923Y02455D01*
X02866Y02513D02*
X02883Y0253D01*
X02866Y02513D02*
X02883Y0253D01*
X02875Y02522D02*
X02923Y02474D01*
X02859Y02513D02*
X02866D01*
X02859Y02508D02*
X02864Y02513D01*
X02859D02*
X02866D01*
X02865D02*
X02923Y02455D01*
X02861Y02452D02*
X02923Y02513D01*
X02881Y02452D02*
X02923Y02494D01*
X02859Y02452D02*
Y02513D01*
X02866Y02452D02*
X02899D01*
X03069Y02445D02*
X03117Y02397D01*
X02916Y02429D02*
X02923Y02435D01*
X02916Y02422D02*
X02923Y02416D01*
X02916Y02402D02*
Y02435D01*
Y02402D02*
Y02435D01*
Y0241D02*
X02923Y02416D01*
X03069Y02406D02*
X03117Y02358D01*
X03069Y02387D02*
X03117Y02434D01*
Y02397D02*
X03123Y02391D01*
X03069Y02367D02*
X03117Y02415D01*
X02916Y02403D02*
X02923Y02397D01*
X02899Y02452D02*
X02916Y02435D01*
X02899Y02452D02*
X02916Y02435D01*
X02899Y02385D02*
X02916Y02402D01*
X02866Y02385D02*
X02899D01*
X02866Y02452D02*
X02899D01*
X02859Y02385D02*
X02866D01*
X02907Y02393D02*
X02923Y02377D01*
X02899Y02385D02*
X02916Y02402D01*
X02895Y02385D02*
X02923Y02358D01*
X02859Y02372D02*
X02872Y02385D01*
X02866D02*
X02899D01*
X03339Y02267D02*
Y02358D01*
X03204Y02327D02*
X03262Y02385D01*
X03331Y02358D02*
X03339Y0235D01*
X03204Y02267D02*
Y02358D01*
Y02347D02*
X03251Y02394D01*
X03204Y02308D02*
X03251Y02355D01*
X03339Y02331D02*
X03406Y02264D01*
X03339Y0235D02*
X03426Y02264D01*
X03339Y02311D02*
X03387Y02264D01*
X03251Y02267D02*
Y02358D01*
X03218Y02264D02*
X03251Y02296D01*
X03339Y02292D02*
X03367Y02264D01*
X03201Y02391D02*
X03251Y02341D01*
X03181Y02391D02*
X03251Y02321D01*
X03204Y02349D02*
X03251Y02302D01*
X03204Y02329D02*
X03251Y02282D01*
X03204Y02288D02*
X03251Y02335D01*
X03204Y02269D02*
X03251Y02316D01*
X03204Y0231D02*
X0325Y02264D01*
X03296D02*
X033Y02267D01*
X03286D02*
X03289Y02264D01*
X03251Y02267D02*
X03339D01*
X03266D02*
X0327Y02264D01*
X03257D02*
X03261Y02267D01*
X03277Y02264D02*
X0328Y02267D01*
X03339Y02272D02*
X03348Y02264D01*
X03335D02*
X03339Y02267D01*
X03325D02*
X03328Y02264D01*
X03305Y02267D02*
X03309Y02264D01*
X03316D02*
X03319Y02267D01*
X03179Y02264D02*
X03183Y02267D01*
X03169D02*
X03172Y02264D01*
X03117Y02267D02*
X03204D01*
X0315D02*
X03153Y02264D01*
X0314D02*
X03144Y02267D01*
X0316Y02264D02*
X03163Y02267D01*
X03238Y02264D02*
X03251Y02277D01*
X03204Y0229D02*
X03231Y02264D01*
X03204Y02271D02*
X03211Y02264D01*
X03189Y02267D02*
X03192Y02264D01*
X03199D02*
X03202Y02267D01*
X03069Y02328D02*
X03132Y02391D01*
X03069Y02348D02*
X03117Y02395D01*
X03069Y02387D02*
X03117Y02339D01*
X03069Y02309D02*
X03117Y02357D01*
X03069Y02367D02*
X03117Y02319D01*
X03069Y02348D02*
X03117Y023D01*
Y02267D02*
Y02358D01*
X03069Y02328D02*
X03117Y02281D01*
X03069Y0227D02*
X03117Y02318D01*
X03069Y02309D02*
X03114Y02264D01*
X03069Y02269D02*
Y02508D01*
X03082Y02264D02*
X03117Y02298D01*
X02859Y02313D02*
X02923Y02377D01*
X02859Y02382D02*
X02923Y02319D01*
X02859Y02363D02*
X02923Y02299D01*
X02876Y02385D02*
X02923Y02338D01*
X02859Y02333D02*
X02923Y02396D01*
X02859Y02352D02*
X02892Y02385D01*
X03069Y02289D02*
X03117Y02337D01*
X02923Y02269D02*
Y02522D01*
X02887Y02264D02*
X02923Y02299D01*
X02859Y02269D02*
Y02385D01*
X02868Y02264D02*
X02923Y02318D01*
X0305Y02269D02*
X03056Y02264D01*
X03043D02*
X03049Y02269D01*
X03063Y02264D02*
X03068Y02269D01*
X03024Y02264D02*
X03029Y02269D01*
X03011D02*
X03017Y02264D01*
X0303Y02269D02*
X03036Y02264D01*
X03121D02*
X03124Y02267D01*
X03101Y02264D02*
X03117Y02279D01*
X0313Y02267D02*
X03133Y02264D01*
X03069Y02289D02*
X03095Y02264D01*
X03069Y0227D02*
X03075Y02264D01*
X03004D02*
X0301Y02269D01*
X02991D02*
X02997Y02264D01*
X02923Y02269D02*
X03069D01*
X02972D02*
X02978Y02264D01*
X02965D02*
X02971Y02269D01*
X02985Y02264D02*
X0299Y02269D01*
X02946Y02264D02*
X02951Y02269D01*
X02933D02*
X02939Y02264D01*
X02952Y02269D02*
X02958Y02264D01*
X02907D02*
X02923Y0228D01*
X02926Y02264D02*
X02932Y02269D01*
X02707Y02513D02*
X02713D01*
X02707D02*
X02713D01*
X02709D02*
X02713Y02509D01*
X02676Y0253D02*
X02684Y02522D01*
X02676Y0253D02*
X02684Y02522D01*
X02678D02*
X02681Y02525D01*
X02859Y0248D02*
X02886Y02452D01*
X02859Y02499D02*
X02923Y02435D01*
X02707Y02476D02*
X02713Y0247D01*
X02707Y02495D02*
X02713Y02489D01*
X02707Y02492D02*
X02713Y02499D01*
X02707Y02473D02*
X02713Y02479D01*
X02667Y02531D02*
X02671Y02535D01*
X02667Y02535D02*
X02681Y02522D01*
X02667D02*
X02684D01*
X02667D02*
Y02526D01*
X02667Y02522D02*
Y02526D01*
X02667Y02522D02*
Y02526D01*
X026Y02522D02*
Y02526D01*
Y02522D02*
Y02526D01*
X02567Y02522D02*
X026D01*
X02497Y02517D02*
X025Y02519D01*
X02497Y02491D02*
X025Y02488D01*
X02859Y02452D02*
X02866D01*
X02859Y0246D02*
X02867Y02452D01*
X02707Y02437D02*
X02713Y02431D01*
X02707Y02456D02*
X02713Y0245D01*
X02707Y02453D02*
X02713Y0246D01*
X02707Y02434D02*
X02713Y0244D01*
X02859Y02294D02*
X02923Y02357D01*
X02707Y02398D02*
X02713Y02392D01*
X02707Y02317D02*
X02713Y02323D01*
X02707Y02418D02*
X02713Y02411D01*
X02707Y02414D02*
X02713Y02421D01*
X02707Y02395D02*
X02713Y02401D01*
X02707Y02356D02*
X02713Y02362D01*
X02707Y02379D02*
X02713Y02372D01*
X02707Y02359D02*
X02713Y02353D01*
X02497Y02452D02*
X025Y02449D01*
X02497Y02471D02*
X025Y02469D01*
X02707Y02375D02*
X02713Y02382D01*
X02707Y02297D02*
X02713Y02304D01*
X02707Y0232D02*
X02713Y02314D01*
X02707Y02301D02*
X02713Y02294D01*
X02707Y02336D02*
X02713Y02343D01*
X02707Y0234D02*
X02713Y02333D01*
X02497Y02497D02*
X025Y025D01*
X02497Y0251D02*
X025Y02507D01*
X02497Y02478D02*
X025Y0248D01*
X02351Y02522D02*
X02497D01*
X02332Y02468D02*
X02351Y02487D01*
X02497Y02458D02*
X025Y02461D01*
X02497Y02439D02*
X025Y02441D01*
X02497Y02439D02*
X025Y02441D01*
X02497Y02432D02*
X025Y0243D01*
X02497Y02419D02*
X025Y02422D01*
X02497Y02413D02*
X025Y0241D01*
X02332Y02448D02*
X02351Y02468D01*
X02332Y02481D02*
X02351Y02461D01*
X02332Y02461D02*
X02351Y02442D01*
X02332Y02487D02*
X02351Y02507D01*
X02332Y0252D02*
X02351Y025D01*
X02332Y025D02*
X02351Y02481D01*
X02332Y02422D02*
X02351Y02403D01*
X02332Y02409D02*
X02351Y02429D01*
X02332Y0239D02*
X02351Y02409D01*
X02332Y02429D02*
X02351Y02448D01*
X02332Y02442D02*
X02351Y02423D01*
X02497Y02361D02*
X025Y02363D01*
X02497Y02374D02*
X025Y02371D01*
X02497Y02354D02*
X025Y02352D01*
X02497Y02393D02*
X025Y02391D01*
X02497Y024D02*
X025Y02402D01*
X02497Y0238D02*
X025Y02383D01*
X02497Y02315D02*
X025Y02313D01*
X02497Y02322D02*
X025Y02324D01*
X02497Y02302D02*
X025Y02305D01*
X02497Y02341D02*
X025Y02344D01*
X02497Y02335D02*
X025Y02332D01*
X02332Y02403D02*
X02351Y02384D01*
X02332Y02383D02*
X02351Y02364D01*
X02332Y02371D02*
X02351Y0239D01*
X02332Y02351D02*
X02351Y0237D01*
X02332Y02312D02*
X02351Y02331D01*
X02332Y02344D02*
X02351Y02325D01*
X02332Y02325D02*
X02351Y02306D01*
X02332Y02364D02*
X02351Y02345D01*
X02332Y02332D02*
X02351Y02351D01*
X02859Y02274D02*
X02923Y02338D01*
X02859Y02343D02*
X02923Y0228D01*
X02859Y02324D02*
X02919Y02264D01*
X02859Y02304D02*
X029Y02264D01*
X02854Y02269D02*
X02859Y02274D01*
X0279Y02264D02*
X02795Y02269D01*
X02859Y02285D02*
X0288Y02264D01*
X02836Y02269D02*
X02841Y02264D01*
X02829D02*
X02834Y02269D01*
X02809Y02264D02*
X02815Y02269D01*
X02797D02*
X02802Y02264D01*
X02816Y02269D02*
X02822Y02264D01*
X02713Y02269D02*
Y02513D01*
X02707Y02281D02*
X02713Y02275D01*
X02719Y02269*
X02707Y02278D02*
X02713Y02284D01*
X02707Y02269D02*
Y02513D01*
X02575Y02264D02*
X02581Y02269D01*
X0277Y02264D02*
X02776Y02269D01*
X02582D02*
X02588Y02264D01*
X02777Y02269D02*
X02783Y02264D01*
X02556D02*
X02562Y02269D01*
X02563D02*
X02568Y02264D01*
X02848D02*
X02854Y02269D01*
X02713D02*
X02859D01*
X02855D02*
X02861Y02264D01*
X02751D02*
X02756Y02269D01*
X02738D02*
X02744Y02264D01*
X02758Y02269D02*
X02763Y02264D01*
X02719Y02269D02*
X02724Y02264D01*
X02712D02*
X02717Y02269D01*
X02731Y02264D02*
X02737Y02269D01*
X02692Y02264D02*
X02698Y02269D01*
X02699D02*
X02705Y02264D01*
X02634D02*
X02639Y02269D01*
X02621D02*
X02627Y02264D01*
X02561Y02269D02*
X02707D01*
X02602D02*
X02607Y02264D01*
X02595D02*
X02601Y02269D01*
X02614Y02264D02*
X0262Y02269D01*
X02673Y02264D02*
X02678Y02269D01*
X0266D02*
X02666Y02264D01*
X0268Y02269D02*
X02685Y02264D01*
X02641Y02269D02*
X02646Y02264D01*
X02653D02*
X02659Y02269D01*
X0255Y02271D02*
X02561Y02281D01*
X025Y02288D02*
X02517Y02271D01*
X02556Y02276D02*
X02561Y02271D01*
X025Y02288D02*
Y02321D01*
Y02288D02*
Y02321D01*
X02497Y02296D02*
X025Y02293D01*
X0255Y02271D02*
X02561Y02281D01*
X0255Y02271D02*
X02561Y02281D01*
Y02269D02*
Y02281D01*
X025Y02288D02*
X02517Y02271D01*
X025Y02288D02*
X02517Y02271D01*
X02497Y02264D02*
X02511Y02277D01*
X02332Y02305D02*
X02351Y02286D01*
X02497Y02283D02*
X02501Y02287D01*
X02332Y02273D02*
X02351Y02292D01*
X02332Y02293D02*
X02351Y02312D01*
X02332Y02273D02*
X02351Y02292D01*
X02497Y02269D02*
Y02522D01*
X02332Y02286D02*
X02354Y02264D01*
X02497Y02276D02*
X0251Y02264D01*
X02351Y02269D02*
Y02522D01*
X02341Y02264D02*
X02351Y02273D01*
X02517Y02271D02*
X0255D01*
X02517D02*
X0255D01*
X02542D02*
X02549Y02264D01*
X02522Y02271D02*
X02529Y02264D01*
X02517D02*
X02524Y02271D01*
X02536Y02264D02*
X02544Y02271D01*
X02478Y02264D02*
X02484Y02269D01*
X02465D02*
X02471Y02264D01*
X02485Y02269D02*
X0249Y02264D01*
X02446Y02269D02*
X02451Y02264D01*
X02458D02*
X02464Y02269D01*
X02439Y02264D02*
X02445Y02269D01*
X02426D02*
X02432Y02264D01*
X02351Y02269D02*
X02497D01*
X02407D02*
X02412Y02264D01*
X024D02*
X02406Y02269D01*
X02419Y02264D02*
X02425Y02269D01*
X0238Y02264D02*
X02386Y02269D01*
X02368D02*
X02373Y02264D01*
X02387Y02269D02*
X02393Y02264D01*
X02361D02*
X02367Y02269D01*
X02332Y02267D02*
X02335Y02264D01*
G54D11*
X03535Y02887D03*
X03425D03*
X04125Y03037D03*
X04235D03*
X04129Y03181D03*
X04239D03*
X04127Y03322D03*
X04237D03*
G54D14*
X04917Y02971D03*
Y02908D03*
X04987D03*
Y02971D03*
G54D15*
X03793Y02926D03*
X0373D03*
X0373Y03011D03*
X03793D03*
X04906Y0251D03*
X04969D03*
X03935Y02899D03*
X03998D03*
X04906Y02609D03*
X04969D03*
X03934Y02804D03*
X03997D03*
X04906Y02707D03*
X04969D03*
X03935Y02709D03*
X03998D03*
X05681Y02761D03*
X05744D03*
X05624Y02956D03*
X05561D03*
X05571Y02514D03*
X05508D03*
X05334Y02418D03*
X05397D03*
X04251Y02366D03*
X04188D03*
X04251Y02461D03*
X04188D03*
X04251Y02555D03*
X04188D03*
X05744Y02864D03*
X05681D03*
G54D22*
X05462Y03214D02*
X05491D01*
X05462D02*
Y03243D01*
X05432Y03214D02*
X05462D01*
X0576Y0313D02*
Y03159D01*
X0573Y0313D02*
X0576D01*
Y031D02*
Y0313D01*
X05462Y0303D02*
Y0306D01*
X05419Y0303D02*
Y03054D01*
X05624Y02956D02*
X05652D01*
X05462Y0303D02*
X05491D01*
X05419Y03007D02*
Y0303D01*
X05624Y02956D02*
Y02985D01*
X05391Y0303D02*
X05419D01*
X05058D02*
X05086D01*
X0503D02*
X05058D01*
Y03007D02*
Y0303D01*
X04725Y03337D02*
Y03366D01*
Y03337D02*
X04754D01*
X04892Y03094D02*
X04918D01*
X04866D02*
X04892D01*
Y03064D02*
Y03094D01*
X04725Y03153D02*
Y03183D01*
Y03212*
Y03183D02*
X04754D01*
X04695Y03337D02*
X04725D01*
X04687Y03168D02*
Y03213D01*
X04367Y03144D02*
X04409D01*
Y03104D02*
Y03144D01*
X05058Y0303D02*
Y03054D01*
X04967Y02803D02*
X04996D01*
X04967D02*
Y02832D01*
X04937Y02803D02*
X04967D01*
X04917Y0288D02*
Y02908D01*
X04888D02*
X04917D01*
X05744Y02761D02*
Y02791D01*
Y02732D02*
Y02761D01*
X05584Y02718D02*
Y02744D01*
Y02692D02*
Y02718D01*
X05554D02*
X05584D01*
X05614*
X05505Y02734D02*
Y02763D01*
Y02734D02*
X05534D01*
X05505Y02704D02*
Y02734D01*
X05571Y02514D02*
Y02544D01*
Y02484D02*
Y02514D01*
X05599*
X05451Y0246D02*
Y02489D01*
Y0246D02*
X0548D01*
X05421D02*
X05451D01*
X05334Y02389D02*
Y02418D01*
Y02448*
X05292Y02391D02*
Y02421D01*
X05203Y02423D02*
Y02463D01*
Y02384D02*
Y02423D01*
X05332Y02371D02*
X05362D01*
X05391*
X05362Y02341D02*
Y02371D01*
X04967Y02773D02*
Y02803D01*
X04878Y02707D02*
X04906D01*
X04787Y02699D02*
Y02744D01*
X04906Y02707D02*
Y02737D01*
Y02677D02*
Y02707D01*
X04787Y02654D02*
Y02699D01*
X04737D02*
Y02744D01*
X04787Y02699D02*
X04812D01*
X04687Y02654D02*
Y02699D01*
X04737Y02654D02*
Y02699D01*
X04906Y02609D02*
Y02639D01*
Y0258D02*
Y02609D01*
X04491Y0273D02*
X0452D01*
X04468Y02673D02*
X0451D01*
X04625Y0258D02*
X04654D01*
X0451Y02633D02*
Y02673D01*
X04906Y0251D02*
Y0254D01*
X04878Y0251D02*
X04906D01*
X046Y02326D02*
X0464D01*
X046Y02287D02*
Y02326D01*
X04561D02*
X046D01*
X04127Y03322D02*
X04161D01*
X04127Y0328D02*
Y03322D01*
X04093D02*
X04127D01*
X03926Y03231D02*
Y0326D01*
Y03231D02*
X03955D01*
X04129Y03139D02*
Y03181D01*
Y03224*
X04095Y03181D02*
X04129D01*
X03926Y03201D02*
Y03231D01*
X03815Y03287D02*
X03856D01*
X03815D02*
Y03316D01*
Y03257D02*
Y03287D01*
X03773D02*
X03815D01*
X03896Y03231D02*
X03926D01*
X04125Y03037D02*
Y0308D01*
X03952Y03055D02*
X03981D01*
X03922D02*
X03952D01*
Y03025D02*
Y03055D01*
X03935Y02869D02*
Y02899D01*
Y02929*
X03907Y02899D02*
X03935D01*
X03934Y02804D02*
Y02834D01*
Y02774D02*
Y02804D01*
X03906D02*
X03934D01*
X03793Y02981D02*
Y03011D01*
X03821*
X03793Y02926D02*
X03821D01*
X03793D02*
Y02956D01*
Y02897D02*
Y02926D01*
X03276Y03157D02*
X03328D01*
X03223D02*
X03276D01*
X02936D02*
Y03331D01*
Y03157D02*
X03046D01*
X02753D02*
X02801D01*
Y02935D02*
Y03157D01*
X03276Y03023D02*
X03328D01*
X03223D02*
X03276D01*
X02533Y03023D02*
Y03063D01*
X02494Y03023D02*
X02533D01*
X02573*
X02633Y02823D02*
Y02863D01*
Y02823D02*
X02673D01*
X02633Y02784D02*
Y02823D01*
X02594D02*
X02633D01*
X03935Y02709D02*
Y02739D01*
Y0268D02*
Y02709D01*
X03907D02*
X03935D01*
X04077Y02601D02*
X04104D01*
X04077D02*
Y02636D01*
Y02565D02*
Y02601D01*
X0405D02*
X04077D01*
X03379Y02636D02*
X03435D01*
X04078Y02428D02*
Y02464D01*
X04051D02*
X04078D01*
Y02331D02*
Y02366D01*
X04051Y02331D02*
X04078D01*
X0355Y02452D02*
Y02481D01*
Y02422D02*
Y02452D01*
X03579*
X03493Y02395D02*
Y02437D01*
X03454D02*
X03493D01*
X03491Y02312D02*
Y02354D01*
Y02312D02*
X03531D01*
X03452D02*
X03491D01*
Y02271D02*
Y02312D01*
X03289Y02636D02*
Y02666D01*
X0326Y02636D02*
X03289D01*
Y02607D02*
Y02636D01*
X03379Y02581D02*
Y02636D01*
X02424Y02715D02*
Y02744D01*
Y02715D02*
X02454D01*
X02424Y02685D02*
Y02715D01*
X02394D02*
X02424D01*
X0316Y02437D02*
Y02478D01*
X03121Y02437D02*
X0316D01*
Y02395D02*
Y02437D01*
Y02312D02*
X032D01*
X0316D02*
Y02354D01*
X03121Y02312D02*
X0316D01*
Y02271D02*
Y02312D01*
X02424Y02395D02*
Y02518D01*
X02355Y02395D02*
X02424D01*
X02493*
X02424Y02273D02*
Y02395D01*
X0456Y02623D02*
Y02756D01*
X04546Y0261D02*
X0456Y02623D01*
X04546Y0277D02*
X0456Y02756D01*
X0373Y02926D02*
Y02968D01*
X0373Y02968D02*
X0373Y02968D01*
X0373Y02968D02*
Y03011D01*
X04587Y02983D02*
X04637D01*
X04687Y02514D02*
X04737D01*
X04537Y03168D02*
X04587D01*
X04251Y02366D02*
X04293D01*
X04293Y02366*
X04335*
X04251Y02461D02*
X04335D01*
X05343Y03118D02*
X05373D01*
X05389Y03101*
X05419*
X05342Y02995D02*
Y03056D01*
X05343Y03057*
Y03118*
X05133Y02995D02*
Y03055D01*
X05135Y03056*
Y03118*
X04847Y02973D02*
X04863D01*
X04884Y02952*
X04903Y02971*
X04917*
X05058Y03101D02*
X05066D01*
X05083Y03118*
X05135*
X05194Y02893D02*
Y02922D01*
X05232Y0296*
Y0298*
X05243Y02991*
X05274D02*
Y02995D01*
X04964Y02908D02*
X04987D01*
X04952Y0292D02*
X04964Y02908D01*
X04952Y0292D02*
Y03007D01*
X04812D02*
X04952D01*
X04812Y0292D02*
Y03007D01*
Y0292D02*
X04826Y02905D01*
X04847*
X05681Y02761D02*
Y02864D01*
X05103Y02323D02*
X05153Y02373D01*
Y02449*
X05131Y02471D02*
X05153Y02449D01*
X05131Y02471D02*
Y02558D01*
X05623Y03067D02*
X05643Y03047D01*
Y03016D02*
Y03047D01*
Y03016D02*
X0568Y0298D01*
X05705*
X05744Y03048D02*
X0576Y03031D01*
Y02929D02*
Y03031D01*
X05744Y02913D02*
X0576Y02929D01*
X04251Y023D02*
Y02366D01*
X04221Y0227D02*
X04251Y023D01*
X0396Y0227D02*
X04221D01*
X03938Y02291D02*
X0396Y0227D01*
X03938Y02291D02*
Y02331D01*
X04188Y02441D02*
Y02461D01*
X05397Y02418D02*
X0564D01*
X05693Y02471*
Y02618*
X05777Y02702*
Y0285*
X05762Y02864D02*
X05777Y0285D01*
X05744Y02864D02*
X05762D01*
X0554Y0289D02*
X05549Y029D01*
X05734*
X05744Y0289*
X047Y02326D02*
X04748Y02279D01*
X0524*
X05257Y02296*
Y02558*
X04987Y02862D02*
Y02908D01*
Y02862D02*
X05046Y02804D01*
X05074*
X03126Y02725D02*
X03155Y02695D01*
Y02623D02*
Y02695D01*
X05162Y02893D02*
Y02919D01*
X052Y02957*
Y02995*
X04872Y03362D02*
X05613D01*
X05803Y03172*
Y02456D02*
Y03172D01*
X05739Y02392D02*
X05803Y02456D01*
X05029Y0259D02*
X0505Y02569D01*
X05029Y0259D02*
Y02667D01*
X0504Y02678*
X05074*
X04251Y0253D02*
Y02555D01*
X04241Y0252D02*
X04251Y0253D01*
X04059Y0252D02*
X04241D01*
X03843Y02492D02*
X03937Y02586D01*
Y02601*
X04251Y02555D02*
X04311D01*
X04311Y02554*
X04335*
X05129Y02741D02*
X0518Y02792D01*
X05074Y02741D02*
X05129D01*
X05131Y02893D02*
Y0292D01*
X0508Y02971D02*
X05131Y0292D01*
X04987Y02971D02*
X0508D01*
X05561Y02956D02*
Y02982D01*
X0539D02*
X05561D01*
X05364Y02956D02*
X0539Y02982D01*
X05293Y02956D02*
X05364D01*
X05257Y0292D02*
X05293Y02956D01*
X05257Y02893D02*
Y0292D01*
X05284Y02678D02*
X05408D01*
X05216Y02747D02*
X05284Y02678D01*
X05288Y02485D02*
X05304Y0247D01*
X05288Y02485D02*
Y02558D01*
X04968Y0251D02*
X04969D01*
X04933Y02475D02*
X04968Y0251D01*
X03535Y02887D02*
X03602Y0282D01*
X03631*
X02996Y02463D02*
X03155Y02623D01*
X02996Y02395D02*
Y02463D01*
X04248Y02461D02*
X04251D01*
X04212Y02497D02*
X04248Y02461D01*
X04148Y02497D02*
X04212D01*
X04113Y02462D02*
X04148Y02497D01*
X04113Y023D02*
Y02462D01*
X04103Y0229D02*
X04113Y023D01*
X04049Y0229D02*
X04103D01*
X03938Y024D02*
X04049Y0229D01*
X03938Y024D02*
Y02464D01*
X05275Y02804D02*
X05408D01*
X05256Y02824D02*
X05275Y02804D01*
X04637Y02878D02*
X04638Y02878D01*
X04637Y02878D02*
Y02983D01*
X05228Y02646D02*
X05408D01*
X03528Y03197D02*
X03635Y03304D01*
X03701*
X03841Y03164*
X04035*
X04079Y0312*
Y02998D02*
Y0312D01*
Y02998D02*
X04086Y0299D01*
X04275*
Y03*
X04285Y0301*
X0429*
X03758Y02546D02*
X03813Y02601D01*
X0348Y02546D02*
X03758D01*
X03467Y02558D02*
X0348Y02546D01*
X03467Y02558D02*
Y0267D01*
X0344Y02698D02*
X03467Y0267D01*
X04219Y02922D02*
X0433Y02811D01*
X04171Y02922D02*
X04219D01*
X04969Y02571D02*
Y02609D01*
X04961Y02563D02*
X04969Y02571D01*
X04687Y02845D02*
Y02983D01*
X05342Y03342D02*
X05391Y03293D01*
X04984Y03342D02*
X05342D01*
X04965Y03323D02*
X04984Y03342D01*
X0479Y03323D02*
X04965D01*
X04768Y03301D02*
X0479Y03323D01*
X0468Y03301D02*
X04768D01*
X0373Y03011D02*
Y03045D01*
X03883*
X03927Y0309*
X03986*
X04026Y0305*
Y02938D02*
Y0305D01*
Y02938D02*
X04041Y02922D01*
X04171*
X05131Y0292D02*
X05167Y02955D01*
Y0304*
X05297Y0317*
X05616*
X05706Y0308*
X05445Y02514D02*
X05508Y02514D01*
X05397Y02418D02*
Y02466D01*
X05351Y0253D02*
Y02558D01*
Y0253D02*
X05367Y02514D01*
X05003Y02423D02*
X05038Y02471D01*
X05092Y02525*
X05074Y02709D02*
X05152D01*
X05155Y02646D02*
X05183Y02619D01*
X05074Y02646D02*
X05155D01*
X04687Y02514D02*
Y0255D01*
X04722Y02585*
X04823*
X04856Y02618*
X0545Y02638D02*
X0547Y02619D01*
X0545Y02638D02*
Y02825D01*
X0544Y02835D02*
X0545Y02825D01*
X05408Y02835D02*
X0544D01*
X04537Y03168D02*
Y03189D01*
X04535Y03191D02*
X04537Y03189D01*
X04535Y03191D02*
Y0326D01*
X0465Y03249D02*
X04846D01*
X04891Y03293*
X05098*
X05109Y03304*
X05409Y02932D02*
X05425Y02948D01*
X05332Y02932D02*
X05409D01*
X0532Y0292D02*
X05332Y02932D01*
X0532Y02893D02*
Y0292D01*
X0496Y03094D02*
Y03114D01*
X04944Y0313D02*
X0496Y03114D01*
X0486Y0313D02*
X04944D01*
X04792Y03062D02*
X0486Y0313D01*
X04792Y02857D02*
Y03062D01*
Y02857D02*
X04795Y02854D01*
Y02823D02*
Y02854D01*
X05074Y02835D02*
X05074D01*
X0556Y0265D02*
X05584D01*
X05489Y0258D02*
X0556Y0265D01*
X05445Y0258D02*
X05489D01*
X05435Y0259D02*
X05445Y0258D01*
X05408Y02615D02*
X05435D01*
X04221Y03376D02*
X04237Y0336D01*
Y03322D02*
Y0336D01*
X04193Y0316D02*
X04206Y03173D01*
X04239D02*
Y03181D01*
X04235Y03016D02*
Y03037D01*
X04187Y03029D02*
X042Y03016D01*
X0532Y02558D02*
Y02612D01*
X0547Y02693D02*
X05505Y02659D01*
X0547Y02693D02*
Y02793D01*
X05496Y02819*
X05548*
X04188Y02366D02*
Y02386D01*
X04203Y024*
X04425*
X04466Y02441*
X03813Y02514D02*
X03844Y02545D01*
X03495Y02514D02*
X03813D01*
X03482Y02501D02*
X03495Y02514D01*
X05162Y02509D02*
X05167Y02504D01*
X05162Y02509D02*
Y02558D01*
X0441Y02833D02*
X04441Y02801D01*
X04578*
X04625Y02755*
X04714*
X04759Y028*
Y0285*
X04767Y02858*
Y02992*
X04747Y03012D02*
X04767Y02992D01*
X04371Y0272D02*
Y02843D01*
X04245Y0297D02*
X04371Y02843D01*
X04075Y0297D02*
X04245D01*
X04046Y03D02*
X04075Y0297D01*
X04046Y03D02*
Y03064D01*
X04Y0311D02*
X04046Y03064D01*
X03898Y0311D02*
X04D01*
X03853Y03065D02*
X03898Y0311D01*
X0372Y03065D02*
X03853D01*
X03697Y03042D02*
X0372Y03065D01*
X03697Y02891D02*
Y03042D01*
Y02891D02*
X03809Y02779D01*
Y02696D02*
Y02779D01*
X04149Y02555D02*
X04188D01*
X0413Y02574D02*
X04149Y02555D01*
X02767Y02648D02*
Y02691D01*
X04452Y02366D02*
X0451Y02309D01*
X0439Y02366D02*
X04452D01*
X03998Y02899D02*
X04136D01*
X04292Y02743*
X0457Y0247D02*
X04598D01*
X04648Y0242*
X04713*
X0474Y02394*
X048*
X0484Y02434*
Y02475*
X04787D02*
Y02514D01*
X04472Y02939D02*
X04492Y02919D01*
X04544*
X04633Y02829*
X04672*
X04687Y02845*
X03997Y02804D02*
X04047D01*
X0409Y02847*
X04299Y02506D02*
X04346D01*
X0439Y02461*
Y02554D02*
X0442D01*
X04476Y0261*
X04546*
X04482Y0277D02*
X04546D01*
X04372Y0266D02*
X04482Y0277D01*
X0412Y0266D02*
X04372D01*
X0407Y02709D02*
X0412Y0266D01*
X03998Y02709D02*
X0407D01*
X0457Y03242D02*
X04615D01*
X04637Y0322*
Y03168D02*
Y0322D01*
X0439Y02554D02*
X04452Y02493D01*
X04485*
X04592Y02386*
X04606*
Y02372D02*
Y02386D01*
X04863Y02372D02*
X04959Y02468D01*
X04994*
X05002Y02476*
Y02695*
X0499Y02707D02*
X05002Y02695D01*
X04969Y02707D02*
X0499D01*
X05633Y02761D02*
X05681D01*
X05613Y02782D02*
X05633Y02761D01*
X05267Y02757D02*
X05355D01*
X05221Y02803D02*
X05267Y02757D01*
X05221Y02803D02*
Y02863D01*
X05225Y02868*
Y02893*
X05568Y03067D02*
X05598Y03097D01*
X0565*
X05668Y0308*
Y0302D02*
Y0308D01*
Y0302D02*
X05677Y03012D01*
X0574*
Y02949D02*
Y03012D01*
X05712Y02921D02*
X0574Y02949D01*
X05561Y02921D02*
X05712D01*
X05561D02*
Y02956D01*
X03524Y03197D02*
X03528D01*
X03585*
Y0304D02*
Y03197D01*
X05367Y02514D02*
X05445D01*
X05508*
X05397Y02466D02*
Y02514D01*
Y02466D02*
X05445Y02514D01*
X05445Y02514*
X05744Y02864D02*
Y0289D01*
Y02913*
X05706Y03048D02*
Y0308D01*
X05705Y03048D02*
X05706D01*
X05744*
X05243Y02991D02*
X05274D01*
X05074Y02835D02*
Y02892D01*
X05435Y0259D02*
Y02615D01*
X04206Y03173D02*
X04239D01*
X042Y03016D02*
X04235D01*
X04148Y02441D02*
X04188D01*
X02698Y0276D02*
X02732Y02727D01*
X02767Y02691*
X04787Y02475D02*
X0484D01*
X04933*
X04606Y02386D02*
X04691D01*
X04606Y02372D02*
X04863D01*
X04485Y03243D02*
X04544Y03302D01*
X04679*
X0468Y03301*
X04535Y0326D02*
X04557Y03282D01*
X04617*
X0465Y03249*
X04204Y03233D02*
X04308D01*
X04318Y03243*
X04485*
X04184Y03213D02*
X04204Y03233D01*
X04045Y03282D02*
Y03343D01*
X04078Y03376*
X04221*
X03264Y02698D02*
X0344D01*
X02301Y02234D02*
Y03411D01*
X02304Y02232D02*
X05847D01*
X02301Y03411D02*
X05846D01*
Y02234D02*
Y03411D01*
G54D23*
X03295Y02312D02*
Y02437D01*
X04906Y0251D02*
Y02609D01*
X04687Y02699D02*
X04737D01*
X04787*
X03934Y02804D02*
Y02851D01*
X03935Y02852*
Y02899*
X03793Y02926D02*
Y02968D01*
X03793Y02968D02*
X03793Y02968D01*
X03793Y02968D02*
Y03011D01*
X04078Y02331D02*
Y02464D01*
X02801Y03157D02*
X02936D01*
X03491Y02312D02*
Y02373D01*
X03493Y02375*
Y02437*
X03851Y02926D02*
X03878Y02899D01*
X03203Y0314D02*
X0322Y03157D01*
X03203Y0304D02*
Y0314D01*
Y0304D02*
X03219Y03023D01*
X03276*
X0316Y02312D02*
X03161D01*
X0316Y02403D02*
X03161Y02403D01*
X03289Y02636D02*
X03379D01*
X03493Y02437D02*
X03535D01*
X02786Y02395D02*
Y02419D01*
X05725Y02712D02*
X05727Y02714D01*
X05634Y02712D02*
X05725D01*
X05628Y02718D02*
X05634Y02712D01*
X05571Y0256D02*
X05634Y02622D01*
Y02704*
X02902Y026D02*
Y02648D01*
X02849Y02547D02*
X02902Y026D01*
X0271Y02547D02*
X02849D01*
X02633Y02623D02*
X0271Y02547D01*
X0279Y02925D02*
X02801Y02936D01*
X0272Y02925D02*
X0279D01*
X02699Y02904D02*
X0272Y02925D01*
X02699Y02888D02*
Y02904D01*
X02633Y02823D02*
X02699Y02888D01*
X03155Y028D02*
Y02849D01*
X03104Y02901D02*
X03155Y02849D01*
X03047Y02901D02*
X03104D01*
X03026Y0288D02*
X03047Y02901D01*
X03026Y02805D02*
Y0288D01*
X02942Y02721D02*
X03026Y02805D01*
X028Y02721D02*
X02942D01*
X02781Y02739D02*
X028Y02721D01*
X02781Y02739D02*
Y02776D01*
X02763D02*
Y02827D01*
X02902Y02648D02*
X03009D01*
X03076Y02715*
Y02851*
X04009Y02495D02*
Y02542D01*
X05451Y0246D02*
X05551D01*
X04477Y02673D02*
X0451D01*
X04429Y02625D02*
X04477Y02673D01*
X03855Y02803D02*
X03856Y02804D01*
X03855Y0274D02*
Y02803D01*
Y0274D02*
X03868Y02727D01*
X02566Y0304D02*
X02613Y03087D01*
X02533Y03023D02*
X02566D01*
X02634Y02395D02*
Y02509D01*
X02633Y02509D02*
X02634Y02509D01*
X02633Y02509D02*
Y02623D01*
X05462Y03214D02*
X05676D01*
X04129Y03132D02*
Y03181D01*
Y03132D02*
X0416Y03101D01*
X04346*
X04349Y03104*
Y03137*
X04355Y03144*
X04409*
X04912Y03214D02*
X04953Y03255D01*
X0503*
X03815Y03287D02*
X03936D01*
X03389Y02957D02*
X0342Y02988D01*
X02932Y02957D02*
X03389D01*
X02912Y02937D02*
X02932Y02957D01*
X02912Y02827D02*
Y02937D01*
X0453Y03337D02*
X04725D01*
X04939Y03164D02*
X04981Y03206D01*
X04805Y03164D02*
X04939D01*
X04738Y03098D02*
X04805Y03164D01*
X04504Y03098D02*
X04738D01*
X04482Y0312D02*
X04504Y03098D01*
X04482Y0312D02*
Y03182D01*
X04298Y03151D02*
Y03171D01*
X02533Y02305D02*
X02534Y02305D01*
X02533Y02305D02*
Y02623D01*
X0336Y03291D02*
X0338Y03272D01*
X03276Y03291D02*
X0336D01*
X0464Y0258D02*
X04687Y02627D01*
X04625Y0258D02*
X0464D01*
X0451Y02673D02*
Y02719D01*
X0452Y0273*
X03955Y0266D02*
X04047D01*
X05505Y02734D02*
X05521Y02718D01*
X03768Y03287D02*
X03815D01*
X03708Y03347D02*
X03768Y03287D01*
X02801Y03157D02*
Y03347D01*
X04129Y03181D02*
Y03214D01*
X04124Y03287D02*
X04127Y03322D01*
X04125Y03037D02*
X04129Y03088D01*
X05076Y03214D02*
X05462D01*
X02424Y02395D02*
Y02715D01*
X03379Y02512D02*
Y02636D01*
X03455Y02437D02*
X03493D01*
X03379Y02512D02*
X03455Y02437D01*
X02763Y02776D02*
X02781D01*
X02786Y02419D02*
X02883D01*
X03161Y02312D02*
Y02403D01*
X02566Y03023D02*
Y0304D01*
X02613Y03087D02*
X02801D01*
Y02936D02*
Y03087D01*
Y03157*
Y03347D02*
X03708D01*
X02936Y03157D02*
X0322D01*
X03276*
X04129Y03088D02*
Y03132D01*
X04128Y03214D02*
X04129D01*
X04124Y03287D02*
X04127Y0329D01*
X04128Y03214D02*
X04129Y03181D01*
X04124Y03287D02*
X04128Y03214D01*
X04127Y0328D02*
Y0329D01*
Y03322*
X05011Y03148D02*
X05074Y03211D01*
X05076Y03214*
X0503Y03255D02*
X05074Y03211D01*
X05076Y03209*
X05681*
X05676Y03214D02*
X05681Y03209D01*
X0576Y0313*
X0446Y03204D02*
X04482Y03182D01*
X04127Y0328D02*
X04129Y03278D01*
X04471D02*
X0453Y03337D01*
X04298Y03171D02*
X04331Y03204D01*
X0446*
X03938Y03231D02*
X03955Y03214D01*
X03926Y03231D02*
X03938D01*
X03955Y03214D02*
X04128D01*
X0407Y03232D02*
X04124Y03287D01*
X0399Y03232D02*
X0407D01*
X03936Y03287D02*
X0399Y03232D01*
X0316Y02403D02*
Y02501D01*
X03379Y02512*
X03535Y02437D02*
X0355Y02452D01*
X03292Y02434D02*
X03295Y02437D01*
X03233Y02434D02*
X03292D01*
G54D24*
X03626Y02312D02*
Y02373D01*
X03628Y02375*
Y02437*
X02584Y02974D02*
X02633Y03023D01*
X0246Y02974D02*
X02584D01*
X02434Y02999D02*
X0246Y02974D01*
X02434Y02999D02*
Y03229D01*
X02644D02*
Y03235D01*
X03156D02*
X03166Y03224D01*
X03276*
X04637Y02514D02*
Y02538D01*
X05589Y02343D02*
X05784D01*
X04371Y02922D02*
X04409Y02959D01*
Y03009*
X03689Y03194D02*
Y0325D01*
Y03194D02*
X03775Y03107D01*
X03815*
X03332Y0282D02*
X03399Y02887D01*
X03425*
X03628Y02437D02*
X03686D01*
X03719Y02571D02*
X03729Y02581D01*
X03492Y02571D02*
X03719D01*
X03492D02*
Y02728D01*
X03399Y0282D02*
X03492Y02728D01*
X03332Y0282D02*
X03399D01*
X04409Y03009D02*
X0446D01*
X04485Y02983*
X04537*
X03557Y02636D02*
X03682Y02761D01*
Y02848*
X03464Y03066D02*
X03682Y02848D01*
X03405Y03066D02*
X03464D01*
X03391Y0308D02*
X03405Y03066D01*
X03391Y0308D02*
Y0316D01*
X03326Y03224D02*
X03391Y0316D01*
X03276Y03224D02*
X03326D01*
X03276Y0309D02*
X03326D01*
X03389Y03027*
X0346*
X03485Y03002*
Y0292D02*
Y03002D01*
X03452Y02887D02*
X03485Y0292D01*
X03425Y02887D02*
X03452D01*
X03686Y02437D02*
X03729Y0248D01*
Y02581D02*
X03804Y02656D01*
X03861*
X03884Y02679*
X02633Y03023D02*
X02682Y02975D01*
X02733*
X04544Y02871D02*
X04629Y02785D01*
X047*
X04732Y02817*
Y02963*
X04371Y02922D02*
X04423Y02871D01*
X04464*
X04498Y02837*
X04584Y02597D02*
X04616Y02629D01*
X04584Y0256D02*
Y02597D01*
X04562Y02538D02*
X04584Y0256D01*
X0451Y02538D02*
X04562D01*
X04637Y02466D02*
Y02514D01*
Y02466D02*
X04658Y02445D01*
X04781*
X04786Y02441*
X04562Y02538D02*
X04637D01*
X04464Y02871D02*
X04544D01*
X02644Y03235D02*
X02733D01*
G54D27*
X0346Y02636D02*
X03476D01*
X03468Y02629D02*
Y02644D01*
X03155Y02704D02*
Y02719D01*
X03148Y02712D02*
X03163D01*
G54D28*
X04171Y02922D03*
X04371D03*
Y0272D03*
X04171D03*
X03156Y03235D03*
X03289Y02636D03*
X02883Y02419D03*
X04967Y02803D03*
X03076Y02851D03*
X04148Y02441D03*
X0554Y0289D03*
X05613Y02782D03*
X05292Y02421D03*
X05362Y02371D03*
X05451Y0246D03*
X02732Y02727D03*
X03126Y02725D03*
X05589Y02343D03*
X05784D03*
X04872Y03362D03*
X0505Y02569D03*
X04059Y0252D03*
X03843Y02492D03*
X0518Y02792D03*
X05216Y02747D03*
X05304Y0247D03*
X03689Y0325D03*
X05256Y02824D03*
X04638Y02878D03*
X05228Y02646D03*
X05462Y0303D03*
X0576Y0313D03*
X0429Y0301D03*
X03585Y0304D03*
X03729Y0248D03*
Y02581D03*
X03813Y02601D03*
X03264Y02698D03*
X0433Y02811D03*
X04961Y02563D03*
X04672Y02829D03*
X0342Y02988D03*
X04725Y03337D03*
Y03183D03*
X05391Y03293D03*
X05092Y02525D03*
X05397Y02514D03*
X05152Y02709D03*
X05183Y02619D03*
X04856Y02618D03*
X0547Y02619D03*
X05109Y03304D03*
X05425Y02948D03*
X04795Y02823D03*
X05074Y02892D03*
X04193Y0316D03*
X04187Y03029D03*
X0532Y02612D03*
X05505Y02659D03*
X05548Y02819D03*
X04981Y03206D03*
X04298Y03151D03*
X02534Y02305D03*
X04466Y02441D03*
X03844Y02545D03*
X03482Y02501D03*
X05167Y02504D03*
X0441Y02833D03*
X04747Y03012D03*
X03809Y02696D03*
X0413Y02574D03*
X0338Y03272D03*
X02698Y0276D03*
X04292Y02743D03*
X0451Y02309D03*
X0457Y0247D03*
X04472Y02939D03*
X0409Y02847D03*
X04299Y02506D03*
X04691Y02386D03*
X0457Y03242D03*
X05355Y02757D03*
X04625Y0258D03*
X0452Y0273D03*
X05505Y02734D03*
X03952Y03055D03*
X05462Y03214D03*
X02424Y02715D03*
X03884Y02679D03*
X02733Y02975D03*
X04732Y02963D03*
X04498Y02837D03*
X04616Y02629D03*
X04786Y02441D03*
X02733Y03235D03*
X03926Y03231D03*
X04184Y03213D03*
X0355Y02452D03*
X03233Y02434D03*
G54D29*
X03332Y0282D03*
X03631D03*
X05203Y02423D03*
X05103D03*
X05003D03*
X05203Y02323D03*
X05103D03*
X046Y02326D03*
X047D03*
X02633Y03023D03*
X02533Y02923D03*
X02633D03*
X02533Y02823D03*
X02633D03*
X02533Y02723D03*
X02633D03*
X02533Y02623D03*
X02633D03*
G54D30*
X05739Y02292D03*
X05738Y02472D03*
G54D31*
X05739Y02392D03*
X05738Y02572D03*
G54D32*
X05003Y02323D03*
X048Y02326D03*
G54D33*
X02533Y03023D03*
G54D34*
X05217Y03287D03*
X05317D03*
G54D35*
X04045Y03282D03*
G54D36*
X0316Y02312D03*
X03295D03*
X0316Y02437D03*
X03295D03*
X02902Y02648D03*
X02767D03*
X03493Y02437D03*
X03628D03*
X03491Y02312D03*
X03626D03*
G54D37*
X0451Y02673D03*
Y02538D03*
X04409Y03144D03*
Y03009D03*
G54D38*
X05419Y0303D03*
Y03101D03*
X05058Y0303D03*
Y03101D03*
G54D39*
X03937Y02601D03*
X04077D03*
X03938Y02464D03*
X04078D03*
X03938Y02331D03*
X04078D03*
G54D40*
X03524Y03197D03*
G54D41*
X03815Y03107D03*
Y03287D03*
G54D42*
X03276Y03023D03*
Y0309D03*
Y03157D03*
Y03224D03*
Y03291D03*
G54D43*
X02936Y03157D03*
G54D44*
X02801Y03157D03*
G54D45*
X04787Y02514D03*
X04737D03*
X04687D03*
X04637D03*
X04787Y02699D03*
X04737D03*
X04687D03*
X04637D03*
X04537Y03168D03*
X04587D03*
X04637D03*
X04687D03*
X04537Y02983D03*
X04587D03*
X04637D03*
X04687D03*
G54D46*
X04335Y02366D03*
X0439D03*
X04335Y02461D03*
X0439D03*
X04335Y02554D03*
X0439D03*
X05568Y03067D03*
X05623D03*
G54D47*
X04847Y02973D03*
Y02905D03*
X05705Y03048D03*
Y0298D03*
X05584Y02718D03*
Y0265D03*
G54D48*
X04892Y03094D03*
X0496D03*
X05274Y02995D03*
X05342D03*
X052D03*
X05133D03*
G54D49*
X05074Y02835D03*
Y02804D03*
Y02772D03*
Y02741D03*
Y02709D03*
Y02678D03*
Y02646D03*
Y02615D03*
X05408D03*
Y02646D03*
Y02678D03*
Y02709D03*
Y02741D03*
Y02772D03*
Y02804D03*
Y02835D03*
G54D50*
X05131Y02558D03*
X05162D03*
X05194D03*
X05225D03*
X05257D03*
X05288D03*
X0532D03*
X05351D03*
Y02893D03*
X0532D03*
X05288D03*
X05257D03*
X05225D03*
X05194D03*
X05162D03*
X05131D03*
G54D51*
X03379Y02636D03*
X03557D03*
G54D52*
X03155Y028D03*
Y02623D03*
G54D53*
X02912Y02827D03*
X02763D03*
G54D54*
X05135Y03118D03*
X05343D03*
G54D55*
X02424Y02395D03*
X02634D03*
X02434Y03229D03*
X02644D03*
X02786Y02395D03*
X02996D03*
G54D56*
X03793Y02926D02*
X03851D01*
X03878Y02899D02*
X03935D01*
X04906Y02704D02*
Y02707D01*
X05727Y02761D02*
X05744D01*
X05571Y02514D02*
Y0256D01*
X04906Y02609D02*
Y0264D01*
X04884Y02661D02*
X04906Y0264D01*
Y02707D02*
Y02742D01*
X04967Y02803*
X05292Y02421D02*
X05295Y02418D01*
X05334D02*
Y02418D01*
Y02398D02*
X05362Y02371D01*
X05551Y0246D02*
X05571Y0248D01*
Y02514*
X04917Y0288D02*
Y02908D01*
X03856Y02804D02*
X03934D01*
X03935Y02709D02*
Y02727D01*
Y0268D02*
X03955Y0266D01*
X03935Y0268D02*
Y02709D01*
Y02899D02*
X03952Y03018D01*
Y03055*
X05579Y03018D02*
X05624Y02972D01*
Y02956D02*
Y02972D01*
X03868Y02727D02*
X03935D01*
X05295Y02418D02*
X05334D01*
Y02398D02*
Y02418D01*
X05727Y02714D02*
Y02761D01*
G54D57*
X04787Y02699D02*
Y02704D01*
Y02661D02*
Y02699D01*
Y0275D02*
X04917Y0288D01*
X04687Y03168D02*
Y03214D01*
X04725Y03178D02*
Y03183D01*
X0471Y03163D02*
X04725Y03178D01*
X04687Y03163D02*
Y03168D01*
Y02627D02*
Y02699D01*
X04787Y02661D02*
X04884D01*
X04787Y02704D02*
Y0275D01*
Y02704D02*
X04906D01*
X04687Y03163D02*
X0471D01*
X04687Y03214D02*
X04912D01*
G54D58*
X0562Y02718D02*
X05634Y02704D01*
X05584Y02718D02*
X0562D01*
X04892Y03081D02*
Y03094D01*
Y03081D02*
X04928Y03045D01*
X05521Y02718D02*
X05584D01*
X0562D02*
X05628D01*
G54D59*
X04009Y02542D02*
X0404Y02573D01*
X04009Y02495D02*
X0404Y02464D01*
X04078*
X041Y02625D02*
X04429D01*
X04077Y02602D02*
X041Y02625D01*
X04047Y0266D02*
X04077Y0263D01*
X0404Y02573D02*
X04077D01*
Y02601*
Y02602*
Y0263*
G54D60*
X0504Y0303D02*
X05058D01*
X05462Y03052D02*
Y03058D01*
X05011Y03045D02*
Y03148D01*
X05419Y0303D02*
X0544D01*
X04928Y03045D02*
X05011D01*
X05025*
X05032Y03038*
X0504Y0303*
X05011Y03045D02*
X05032Y03038D01*
X05058Y0303*
X05419D02*
X05458Y03019D01*
X05462Y03018*
X0544Y0303D02*
X05456Y03021D01*
X05462Y03018*
X0544Y0303D02*
X05462D01*
X0544D02*
X05462Y03052D01*
Y03018D02*
Y0303D01*
Y03052*
Y03018D02*
X05579D01*
G54D61*
X04129Y03278D02*
X0419D01*
X04203Y03264*
X04272*
X04285Y03278*
X04471*
M02*