%FSTAX23Y23*%
%MOIN*%
%SFA1B1*%

%IPPOS*%
%AMD31*
4,1,8,-0.030000,-0.012400,-0.012400,-0.030000,0.012400,-0.030000,0.030000,-0.012400,0.030000,0.012400,0.012400,0.030000,-0.012400,0.030000,-0.030000,0.012400,-0.030000,-0.012400,0.0*
%
%AMD34*
4,1,8,0.030000,-0.025000,0.030000,0.025000,0.015000,0.040000,-0.015000,0.040000,-0.030000,0.025000,-0.030000,-0.025000,-0.015000,-0.040000,0.015000,-0.040000,0.030000,-0.025000,0.0*
%
%ADD11R,0.047200X0.065000*%
%ADD14R,0.039400X0.035400*%
%ADD15R,0.035400X0.039400*%
%ADD22C,0.010000*%
%ADD27C,0.003900*%
%ADD28C,0.039400*%
%ADD29C,0.059100*%
%ADD30C,0.060000*%
G04~CAMADD=31~4~0.0~0.0~599.6~599.6~0.0~175.6~0~0.0~0.0~0.0~0.0~0~0.0~0.0~0.0~0.0~0~0.0~0.0~0.0~135.0~599.6~599.6*
%ADD31D31*%
%ADD32R,0.059100X0.059100*%
%ADD33R,0.059100X0.059100*%
G04~CAMADD=34~4~0.0~0.0~800.0~600.0~0.0~150.0~0~0.0~0.0~0.0~0.0~0~0.0~0.0~0.0~0.0~0~0.0~0.0~0.0~270.0~600.0~800.0*
%ADD34D34*%
%ADD36R,0.059800X0.063000*%
%ADD37R,0.063000X0.059800*%
%ADD38R,0.035400X0.027600*%
%ADD39R,0.033500X0.051200*%
%ADD40R,0.224400X0.216500*%
%ADD41R,0.063000X0.039400*%
%ADD42R,0.085000X0.042100*%
%ADD43R,0.200000X0.328000*%
%ADD44R,0.075200X0.425200*%
%ADD45R,0.028300X0.070100*%
%ADD46R,0.030000X0.030000*%
%ADD47R,0.040000X0.032000*%
%ADD48R,0.032000X0.040000*%
%ADD49R,0.047200X0.019700*%
%ADD50R,0.019700X0.047200*%
%ADD51R,0.090600X0.090600*%
%ADD52R,0.090600X0.090600*%
%ADD53R,0.055100X0.129900*%
%ADD54R,0.066900X0.070900*%
%ADD55R,0.118100X0.224400*%
%LNuzcar-1*%
%LPD*%
G54D11*
X03535Y02887D03*
X03425D03*
X04125Y03037D03*
X04235D03*
X04129Y03181D03*
X04239D03*
X04127Y03322D03*
X04237D03*
G54D14*
X04917Y02971D03*
Y02908D03*
X04987D03*
Y02971D03*
G54D15*
X03793Y02926D03*
X0373D03*
X0373Y03011D03*
X03793D03*
X04906Y0251D03*
X04969D03*
X03935Y02899D03*
X03998D03*
X04906Y02609D03*
X04969D03*
X03934Y02804D03*
X03997D03*
X04906Y02707D03*
X04969D03*
X03935Y02709D03*
X03998D03*
X05681Y02761D03*
X05744D03*
X05624Y02956D03*
X05561D03*
X05571Y02514D03*
X05508D03*
X05334Y02418D03*
X05397D03*
X04251Y02366D03*
X04188D03*
X04251Y02461D03*
X04188D03*
X04251Y02555D03*
X04188D03*
X05744Y02864D03*
X05681D03*
G54D22*
X02301Y02234D02*
Y03411D01*
X02304Y02232D02*
X05847D01*
X02301Y03411D02*
X05846D01*
Y02234D02*
Y03411D01*
G54D27*
X0346Y02636D02*
X03476D01*
X03468Y02629D02*
Y02644D01*
X03155Y02704D02*
Y02719D01*
X03148Y02712D02*
X03163D01*
G54D28*
X04171Y02922D03*
X04371D03*
Y0272D03*
X04171D03*
G54D29*
X03332Y0282D03*
X03631D03*
X05203Y02423D03*
X05103D03*
X05003D03*
X05203Y02323D03*
X05103D03*
X046Y02326D03*
X047D03*
X02633Y03023D03*
X02533Y02923D03*
X02633D03*
X02533Y02823D03*
X02633D03*
X02533Y02723D03*
X02633D03*
X02533Y02623D03*
X02633D03*
G54D30*
X05739Y02292D03*
X05738Y02472D03*
G54D31*
X05739Y02392D03*
X05738Y02572D03*
G54D32*
X05003Y02323D03*
X048Y02326D03*
G54D33*
X02533Y03023D03*
G54D34*
X05217Y03287D03*
X05317D03*
G54D36*
X0316Y02312D03*
X03295D03*
X0316Y02437D03*
X03295D03*
X02902Y02648D03*
X02767D03*
X03493Y02437D03*
X03628D03*
X03491Y02312D03*
X03626D03*
G54D37*
X0451Y02673D03*
Y02538D03*
X04409Y03144D03*
Y03009D03*
G54D38*
X05419Y0303D03*
Y03101D03*
X05058Y0303D03*
Y03101D03*
G54D39*
X03937Y02601D03*
X04077D03*
X03938Y02464D03*
X04078D03*
X03938Y02331D03*
X04078D03*
G54D40*
X03524Y03197D03*
G54D41*
X03815Y03107D03*
Y03287D03*
G54D42*
X03276Y03023D03*
Y0309D03*
Y03157D03*
Y03224D03*
Y03291D03*
G54D43*
X02936Y03157D03*
G54D44*
X02801Y03157D03*
G54D45*
X04787Y02514D03*
X04737D03*
X04687D03*
X04637D03*
X04787Y02699D03*
X04737D03*
X04687D03*
X04637D03*
X04537Y03168D03*
X04587D03*
X04637D03*
X04687D03*
X04537Y02983D03*
X04587D03*
X04637D03*
X04687D03*
G54D46*
X04335Y02366D03*
X0439D03*
X04335Y02461D03*
X0439D03*
X04335Y02554D03*
X0439D03*
X05568Y03067D03*
X05623D03*
G54D47*
X04847Y02973D03*
Y02905D03*
X05705Y03048D03*
Y0298D03*
X05584Y02718D03*
Y0265D03*
G54D48*
X04892Y03094D03*
X0496D03*
X05274Y02995D03*
X05342D03*
X052D03*
X05133D03*
G54D49*
X05074Y02835D03*
Y02804D03*
Y02772D03*
Y02741D03*
Y02709D03*
Y02678D03*
Y02646D03*
Y02615D03*
X05408D03*
Y02646D03*
Y02678D03*
Y02709D03*
Y02741D03*
Y02772D03*
Y02804D03*
Y02835D03*
G54D50*
X05131Y02558D03*
X05162D03*
X05194D03*
X05225D03*
X05257D03*
X05288D03*
X0532D03*
X05351D03*
Y02893D03*
X0532D03*
X05288D03*
X05257D03*
X05225D03*
X05194D03*
X05162D03*
X05131D03*
G54D51*
X03379Y02636D03*
X03557D03*
G54D52*
X03155Y028D03*
Y02623D03*
G54D53*
X02912Y02827D03*
X02763D03*
G54D54*
X05135Y03118D03*
X05343D03*
G54D55*
X02424Y02395D03*
X02634D03*
X02434Y03229D03*
X02644D03*
X02786Y02395D03*
X02996D03*
M02*