M48
;Layer_Color=9474304
;FILE_FORMAT=2:4
INCH,LZ
;TYPE=PLATED
T1F00S00C0.0118
T2F00S00C0.0157
T3F00S00C0.0197
T4F00S00C0.0315
T5F00S00C0.0354
T6F00S00C0.0400
%
T01
X04045Y03282
T02
X04171Y027204
X043718
Y029222
X04171
T03
X04691Y02386
X04786Y02441
X04856Y02618
X04961Y02563
X0505Y02569
X05092Y02525
X051673Y025047
X051831Y02619
X05228Y026469
X05216Y02747
X0518Y02792
X05256Y02824
X05355Y02757
X05505Y02734
Y02659
X0547Y02619
X053203Y02612
X05304Y0247
X05292Y02421
X05362Y02371
X05451Y0246
X053971Y025141
X05589Y02343
X05784
X05613Y02782
X05548Y02819
X0554Y028908
X05425Y02948
X05462Y030309
X05074Y02892
X04967Y02803
X04795Y02823
X04732Y02963
X04747Y03012
X05152Y027099
X04672Y028299
X04638Y028783
X04498Y02837
X0441Y02833
X043309Y02811
X04292Y027436
X045207Y0273
X04616Y02629
X04625Y0258
X0457Y0247
X04466Y02441
X0451Y02309
X04299Y02506
X04148Y02441
X041303Y025747
X04059Y0252
X03844Y02545
X03843Y02492
X03729Y0248
Y02581
X03813Y02601
X03809Y02696
X03884Y02679
X0409Y02847
X04187Y03029
X0429Y0301
X04472Y02939
X03952Y030554
X03585Y0304
X0342Y02988
X03264Y02698
X032899Y026369
X03126Y02725
X03233Y02434
X03482Y02501
X0355Y02452
X02883Y02419
X02732Y02727
X026983Y027607
X02733Y02975
X03076Y028517
X024245Y02715
X02534Y02305
X02733Y03235
X03156
X0338Y03272
X03689Y0325
X03926Y03231
X04184Y03213
X04193Y0316
X04298Y03151
X0457Y03242
X04725Y03183
Y03337
X04872Y03362
X04981Y03206
X05109Y03304
X05391Y03293
X05462Y03214
X057606Y0313
T04
X033325Y028205
X036317
T05
X047009Y023267
X048009
X050035Y023237
Y024237
X051035
X052035
Y023237
X051035
X046009Y023267
X026339Y026235
Y027235
Y028235
Y029235
Y030235
X025339
Y029235
Y028235
Y027235
Y026235
T06
X057391Y022928
Y023928
X057389Y024727
Y025727
X053171Y03287
X052171
M30
