%FSTAX23Y23*%
%MOIN*%
%SFA1B1*%

%IPPOS*%
%ADD22C,0.010000*%
%ADD27C,0.003900*%
%ADD111C,0.002000*%
%LNuzcar-1*%
%LPD*%
G54D22*
X02301Y02234D02*
Y03411D01*
X02304Y02232D02*
X05847D01*
X02301Y03411D02*
X05846D01*
Y02234D02*
Y03411D01*
G54D27*
X0346Y02636D02*
X03476D01*
X03468Y02629D02*
Y02644D01*
X03155Y02704D02*
Y02719D01*
X03148Y02712D02*
X03163D01*
G54D111*
X04163Y02922D02*
X04178D01*
X04171Y02914D02*
Y0293D01*
X04363Y02922D02*
X04379D01*
X04371Y02914D02*
Y0293D01*
X04363Y0272D02*
X04379D01*
X04371Y02712D02*
Y02728D01*
X04163Y0272D02*
X04178D01*
X04171Y02712D02*
Y02728D01*
X03316Y0282D02*
X03348D01*
X03332Y02804D02*
Y02836D01*
X03616Y0282D02*
X03647D01*
X03631Y02804D02*
Y02836D01*
X05719Y02292D02*
X05759D01*
X05739Y02272D02*
Y02312D01*
X05719Y02392D02*
X05759D01*
X05739Y02372D02*
Y02412D01*
X05718Y02572D02*
X05758D01*
X05738Y02552D02*
Y02592D01*
X05718Y02472D02*
X05758D01*
X05738Y02452D02*
Y02492D01*
X05185Y02423D02*
X05221D01*
X05203Y02406D02*
Y02441D01*
X05085Y02423D02*
X05121D01*
X05103Y02406D02*
Y02441D01*
X04985Y02423D02*
X05021D01*
X05003Y02406D02*
Y02441D01*
X05185Y02323D02*
X05221D01*
X05203Y02306D02*
Y02341D01*
X05085Y02323D02*
X05121D01*
X05103Y02306D02*
Y02341D01*
X04985Y02323D02*
X05021D01*
X05003Y02306D02*
Y02341D01*
X04583Y02326D02*
X04618D01*
X046Y02308D02*
Y02344D01*
X04683Y02326D02*
X04718D01*
X047Y02308D02*
Y02344D01*
X04783Y02326D02*
X04818D01*
X048Y02308D02*
Y02344D01*
X02516Y03023D02*
X02551D01*
X02533Y03005D02*
Y03041D01*
X02616Y03023D02*
X02651D01*
X02633Y03005D02*
Y03041D01*
X02516Y02923D02*
X02551D01*
X02533Y02905D02*
Y02941D01*
X02616Y02923D02*
X02651D01*
X02633Y02905D02*
Y02941D01*
X02516Y02823D02*
X02551D01*
X02533Y02805D02*
Y02841D01*
X02616Y02823D02*
X02651D01*
X02633Y02805D02*
Y02841D01*
X02516Y02723D02*
X02551D01*
X02533Y02705D02*
Y02741D01*
X02616Y02723D02*
X02651D01*
X02633Y02705D02*
Y02741D01*
X02516Y02623D02*
X02551D01*
X02533Y02605D02*
Y02641D01*
X02616Y02623D02*
X02651D01*
X02633Y02605D02*
Y02641D01*
X05197Y03287D02*
X05237D01*
X05217Y03267D02*
Y03307D01*
X05297Y03287D02*
X05337D01*
X05317Y03267D02*
Y03307D01*
X03146Y03235D02*
X03165D01*
X03156Y03225D02*
Y03244D01*
X0328Y02636D02*
X03299D01*
X03289Y02627D02*
Y02646D01*
X02873Y02419D02*
X02892D01*
X02883Y02409D02*
Y02428D01*
X04957Y02803D02*
X04976D01*
X04967Y02793D02*
Y02812D01*
X03066Y02851D02*
X03085D01*
X03076Y02841D02*
Y02861D01*
X04138Y02441D02*
X04157D01*
X04148Y02431D02*
Y0245D01*
X0553Y0289D02*
X05549D01*
X0554Y02881D02*
Y029D01*
X05603Y02782D02*
X05622D01*
X05613Y02772D02*
Y02791D01*
X05282Y02421D02*
X05301D01*
X05292Y02411D02*
Y0243D01*
X05352Y02371D02*
X05371D01*
X05362Y02361D02*
Y0238D01*
X05441Y0246D02*
X0546D01*
X05451Y0245D02*
Y02469D01*
X02722Y02727D02*
X02741D01*
X02732Y02717D02*
Y02736D01*
X03116Y02725D02*
X03135D01*
X03126Y02715D02*
Y02734D01*
X05579Y02343D02*
X05598D01*
X05589Y02333D02*
Y02352D01*
X05774Y02343D02*
X05793D01*
X05784Y02333D02*
Y02352D01*
X04862Y03362D02*
X04881D01*
X04872Y03352D02*
Y03371D01*
X0504Y02569D02*
X05059D01*
X0505Y02559D02*
Y02578D01*
X04049Y0252D02*
X04068D01*
X04059Y0251D02*
Y02529D01*
X03833Y02492D02*
X03852D01*
X03843Y02482D02*
Y02501D01*
X0517Y02792D02*
X05189D01*
X0518Y02782D02*
Y02801D01*
X05206Y02747D02*
X05225D01*
X05216Y02737D02*
Y02756D01*
X05294Y0247D02*
X05313D01*
X05304Y0246D02*
Y02479D01*
X03679Y0325D02*
X03698D01*
X03689Y0324D02*
Y03259D01*
X05246Y02824D02*
X05265D01*
X05256Y02814D02*
Y02833D01*
X04628Y02878D02*
X04647D01*
X04638Y02868D02*
Y02888D01*
X05218Y02646D02*
X05237D01*
X05228Y02637D02*
Y02656D01*
X05452Y0303D02*
X05471D01*
X05462Y03021D02*
Y0304D01*
X0575Y0313D02*
X0577D01*
X0576Y0312D02*
Y03139D01*
X0428Y0301D02*
X04299D01*
X0429Y03D02*
Y03019D01*
X03575Y0304D02*
X03594D01*
X03585Y0303D02*
Y03049D01*
X03719Y0248D02*
X03738D01*
X03729Y0247D02*
Y02489D01*
X03719Y02581D02*
X03738D01*
X03729Y02571D02*
Y0259D01*
X03803Y02601D02*
X03822D01*
X03813Y02591D02*
Y0261D01*
X03254Y02698D02*
X03273D01*
X03264Y02688D02*
Y02707D01*
X04321Y02811D02*
X0434D01*
X0433Y02801D02*
Y0282D01*
X04951Y02563D02*
X0497D01*
X04961Y02553D02*
Y02572D01*
X04662Y02829D02*
X04681D01*
X04672Y0282D02*
Y02839D01*
X0341Y02988D02*
X03429D01*
X0342Y02978D02*
Y02997D01*
X04715Y03337D02*
X04734D01*
X04725Y03327D02*
Y03346D01*
X04715Y03183D02*
X04734D01*
X04725Y03173D02*
Y03192D01*
X05381Y03293D02*
X054D01*
X05391Y03283D02*
Y03302D01*
X05082Y02525D02*
X05101D01*
X05092Y02515D02*
Y02534D01*
X05387Y02514D02*
X05406D01*
X05397Y02504D02*
Y02524D01*
X05142Y02709D02*
X05161D01*
X05152Y027D02*
Y02719D01*
X05173Y02619D02*
X05192D01*
X05183Y02609D02*
Y02628D01*
X04846Y02618D02*
X04865D01*
X04856Y02608D02*
Y02627D01*
X0546Y02619D02*
X05479D01*
X0547Y02609D02*
Y02628D01*
X05099Y03304D02*
X05118D01*
X05109Y03294D02*
Y03313D01*
X05415Y02948D02*
X05434D01*
X05425Y02938D02*
Y02957D01*
X04785Y02823D02*
X04804D01*
X04795Y02813D02*
Y02832D01*
X05064Y02892D02*
X05083D01*
X05074Y02882D02*
Y02901D01*
X04183Y0316D02*
X04202D01*
X04193Y0315D02*
Y03169D01*
X04177Y03029D02*
X04196D01*
X04187Y03019D02*
Y03038D01*
X0531Y02612D02*
X0533D01*
X0532Y02602D02*
Y02621D01*
X05495Y02659D02*
X05514D01*
X05505Y02649D02*
Y02668D01*
X05538Y02819D02*
X05557D01*
X05548Y02809D02*
Y02828D01*
X04971Y03206D02*
X0499D01*
X04981Y03196D02*
Y03215D01*
X04288Y03151D02*
X04307D01*
X04298Y03141D02*
Y0316D01*
X02524Y02305D02*
X02543D01*
X02534Y02295D02*
Y02314D01*
X04456Y02441D02*
X04475D01*
X04466Y02431D02*
Y0245D01*
X03834Y02545D02*
X03853D01*
X03844Y02535D02*
Y02554D01*
X03472Y02501D02*
X03491D01*
X03482Y02491D02*
Y0251D01*
X05157Y02504D02*
X05177D01*
X05167Y02494D02*
Y02514D01*
X044Y02833D02*
X04419D01*
X0441Y02823D02*
Y02842D01*
X04737Y03012D02*
X04756D01*
X04747Y03002D02*
Y03021D01*
X03799Y02696D02*
X03818D01*
X03809Y02686D02*
Y02705D01*
X0412Y02574D02*
X0414D01*
X0413Y02564D02*
Y02584D01*
X0337Y03272D02*
X03389D01*
X0338Y03262D02*
Y03281D01*
X02688Y0276D02*
X02708D01*
X02698Y0275D02*
Y0277D01*
X04282Y02743D02*
X04301D01*
X04292Y02733D02*
Y02753D01*
X045Y02309D02*
X04519D01*
X0451Y02299D02*
Y02318D01*
X0456Y0247D02*
X04579D01*
X0457Y0246D02*
Y02479D01*
X04462Y02939D02*
X04481D01*
X04472Y02929D02*
Y02948D01*
X0408Y02847D02*
X04099D01*
X0409Y02837D02*
Y02856D01*
X04289Y02506D02*
X04308D01*
X04299Y02496D02*
Y02515D01*
X04681Y02386D02*
X047D01*
X04691Y02376D02*
Y02395D01*
X0456Y03242D02*
X04579D01*
X0457Y03232D02*
Y03251D01*
X05345Y02757D02*
X05364D01*
X05355Y02747D02*
Y02766D01*
X04615Y0258D02*
X04634D01*
X04625Y0257D02*
Y02589D01*
X0451Y0273D02*
X0453D01*
X0452Y0272D02*
Y02739D01*
X05495Y02734D02*
X05514D01*
X05505Y02724D02*
Y02743D01*
X03942Y03055D02*
X03961D01*
X03952Y03045D02*
Y03065D01*
X05452Y03214D02*
X05471D01*
X05462Y03204D02*
Y03223D01*
X02414Y02715D02*
X02434D01*
X02424Y02705D02*
Y02724D01*
X03874Y02679D02*
X03893D01*
X03884Y02669D02*
Y02688D01*
X02723Y02975D02*
X02742D01*
X02733Y02965D02*
Y02984D01*
X04722Y02963D02*
X04741D01*
X04732Y02953D02*
Y02972D01*
X04488Y02837D02*
X04507D01*
X04498Y02827D02*
Y02846D01*
X04606Y02629D02*
X04625D01*
X04616Y02619D02*
Y02638D01*
X04776Y02441D02*
X04795D01*
X04786Y02431D02*
Y0245D01*
X02723Y03235D02*
X02742D01*
X02733Y03225D02*
Y03244D01*
X03916Y03231D02*
X03935D01*
X03926Y03221D02*
Y0324D01*
X04174Y03213D02*
X04193D01*
X04184Y03203D02*
Y03222D01*
X04039Y03282D02*
X0405D01*
X04045Y03276D02*
Y03287D01*
X0354Y02452D02*
X03559D01*
X0355Y02442D02*
Y02461D01*
X03223Y02434D02*
X03242D01*
X03233Y02424D02*
Y02443D01*
M02*