%FSTAX23Y23*%
%MOIN*%
%SFA1B1*%

%IPPOS*%
%ADD22C,0.010000*%
%ADD27C,0.003900*%
%ADD66C,0.002000*%
%LNuzcar-1*%
%LPD*%
G54D22*
X02301Y02234D02*
Y03411D01*
X02304Y02232D02*
X05847D01*
X02301Y03411D02*
X05846D01*
Y02234D02*
Y03411D01*
G54D27*
X05402Y03066D02*
X05436D01*
X05419Y03049D02*
Y03083D01*
X05041Y03066D02*
X05075D01*
X05058Y03049D02*
Y03083D01*
X05722Y02767D02*
Y02806D01*
X05702Y02786D02*
X05742D01*
X05723Y02663D02*
Y02702D01*
X05703Y02682D02*
X05742D01*
X0348Y02867D02*
Y02906D01*
X0346Y02887D02*
X035D01*
X0418Y03018D02*
Y03057D01*
X0416Y03037D02*
X042D01*
X04184Y03161D02*
Y03201D01*
X04164Y03181D02*
X04204D01*
X04182Y03303D02*
Y03342D01*
X04162Y03322D02*
X04202D01*
X04654Y02673D02*
X05143D01*
X04654Y03142D02*
X05143D01*
X04654Y02673D02*
Y03142D01*
X05143Y02673D02*
Y03142D01*
X04899Y02888D02*
Y02927D01*
X04879Y02908D02*
X04918D01*
X05221Y02725D02*
X05261D01*
X05241Y02706D02*
Y02745D01*
X05034Y02518D02*
Y02932D01*
Y02518D02*
X05448D01*
Y02932*
X05034D02*
X05448D01*
X02818Y02827D02*
X02857D01*
X02837Y02808D02*
Y02847D01*
X0346Y02636D02*
X03476D01*
X03468Y02629D02*
Y02644D01*
X03155Y02704D02*
Y02719D01*
X03148Y02712D02*
X03163D01*
G54D66*
X05633Y02743D02*
X05811D01*
X05633Y0283D02*
X05811D01*
Y02743D02*
Y0283D01*
X05633Y02743D02*
Y0283D01*
X05634Y02639D02*
X05811D01*
X05634Y02726D02*
X05811D01*
Y02639D02*
Y02726D01*
X05634Y02639D02*
Y02726D01*
X03391Y0293D02*
X03569D01*
X03391Y02843D02*
X03569D01*
Y0293*
X03391Y02843D02*
Y0293D01*
X04092Y02994D02*
X04269D01*
X04092Y03081D02*
X04269D01*
X04092Y02994D02*
Y03081D01*
X04269Y02994D02*
Y03081D01*
X04096Y03138D02*
X04273D01*
X04096Y03224D02*
X04273D01*
X04096Y03138D02*
Y03224D01*
X04273Y03138D02*
Y03224D01*
X04094Y03279D02*
X04271D01*
X04094Y03366D02*
X04271D01*
X04094Y03279D02*
Y03366D01*
X04271Y03279D02*
Y03366D01*
X03762Y02908D02*
Y02945D01*
X03743Y02926D02*
X0378D01*
X03761Y02992D02*
Y03029D01*
X03743Y03011D02*
X0378D01*
X04937Y02491D02*
Y02529D01*
X04918Y0251D02*
X04956D01*
X03967Y0288D02*
Y02918D01*
X03948Y02899D02*
X03985D01*
X04937Y02591D02*
Y02628D01*
X04918Y02609D02*
X04956D01*
X03966Y02785D02*
Y02823D01*
X03947Y02804D02*
X03984D01*
X04937Y02688D02*
Y02726D01*
X04918Y02707D02*
X04956D01*
X03967Y02691D02*
Y02728D01*
X03948Y02709D02*
X03985D01*
X05712Y02743D02*
Y0278D01*
X05693Y02761D02*
X05731D01*
X05593Y02937D02*
Y02974D01*
X05574Y02956D02*
X05611D01*
X0554Y02495D02*
Y02533D01*
X05521Y02514D02*
X05559D01*
X05365Y024D02*
Y02437D01*
X05346Y02418D02*
X05384D01*
X04363Y02348D02*
Y02385D01*
X04344Y02366D02*
X04382D01*
X04363Y02443D02*
Y0248D01*
X04344Y02461D02*
X04382D01*
X04363Y02536D02*
Y02573D01*
X04344Y02554D02*
X04382D01*
X05596Y03049D02*
Y03086D01*
X05577Y03067D02*
X05615D01*
X03413Y02363D02*
Y02401D01*
X03394Y02382D02*
X03432D01*
X04201Y02366D02*
X04239D01*
X0422Y02347D02*
Y02384D01*
X04201Y02461D02*
X04239D01*
X0422Y02443D02*
Y0248D01*
X04201Y02555D02*
X04239D01*
X0422Y02536D02*
Y02573D01*
X05432Y0289D02*
X0547D01*
X05451Y02872D02*
Y02909D01*
X04917Y02921D02*
Y02958D01*
X04898Y02939D02*
X04936D01*
X04987Y02921D02*
Y02958D01*
X04968Y02939D02*
X05006D01*
X05693Y02864D02*
X05731D01*
X05712Y02846D02*
Y02883D01*
X04828Y02939D02*
X04866D01*
X04847Y02921D02*
Y02958D01*
X05687Y03014D02*
X05724D01*
X05705Y02995D02*
Y03033D01*
X04926Y03076D02*
Y03113D01*
X04907Y03094D02*
X04945D01*
X05565Y02684D02*
X05602D01*
X05584Y02665D02*
Y02702D01*
X05308Y02976D02*
Y03013D01*
X05289Y02995D02*
X05327D01*
X05166Y02976D02*
Y03013D01*
X05148Y02995D02*
X05185D01*
M02*